<svg width="32" height="32" viewBox="0 0 32 32" fill="none" xmlns="http://www.w3.org/2000/svg">
<rect x="0.5" y="0.5" width="31" height="31" rx="15.5" fill="#1F330A"/>
<rect x="0.5" y="0.5" width="31" height="31" rx="15.5" stroke="white"/>
<path d="M22 23.5H20.5V22C20.5 20.7573 19.4927 19.75 18.25 19.75H13.75C12.5074 19.75 11.5 20.7573 11.5 22V23.5H10V22C10 19.929 11.6789 18.25 13.75 18.25H18.25C20.321 18.25 22 19.929 22 22V23.5ZM16 16.75C13.5147 16.75 11.5 14.7353 11.5 12.25C11.5 9.76472 13.5147 7.75 16 7.75C18.4853 7.75 20.5 9.76472 20.5 12.25C20.5 14.7353 18.4853 16.75 16 16.75ZM16 15.25C17.6568 15.25 19 13.9069 19 12.25C19 10.5931 17.6568 9.25 16 9.25C14.3431 9.25 13 10.5931 13 12.25C13 13.9069 14.3431 15.25 16 15.25Z" fill="white"/>
</svg>
