<svg width="135" height="135" viewBox="0 0 135 135" fill="none" xmlns="http://www.w3.org/2000/svg">
<path opacity="0.15" d="M29.8408 123.581C29.8408 125.118 34.5137 126.592 42.8315 127.678C51.1494 128.765 62.4308 129.375 74.1939 129.375C85.9571 129.375 97.2385 128.765 105.556 127.678C113.874 126.592 118.547 125.118 118.547 123.581C118.547 122.045 113.874 120.571 105.556 119.485C97.2385 118.398 85.9571 117.788 74.1939 117.788C62.4308 117.788 51.1494 118.398 42.8315 119.485C34.5137 120.571 29.8408 122.045 29.8408 123.581Z" fill="#45413C"/>
<path d="M126.563 28.4627C126.911 21.9646 124.915 15.5574 120.938 10.4065C120.47 9.75338 119.869 9.20791 119.173 8.80675C118.477 8.40559 117.704 8.15806 116.904 8.08079C116.105 8.00352 115.298 8.0983 114.539 8.35877C113.779 8.61924 113.084 9.03936 112.5 9.59086C111.469 10.6423 110.892 12.056 110.892 13.5284C110.892 15.0007 111.469 16.4144 112.5 17.4659C113.933 18.9127 115.064 20.63 115.827 22.518C116.589 24.4059 116.969 26.4267 116.944 28.4627C116.944 37.519 112.416 47.1377 95.3439 50.9627C93.8674 50.7084 92.37 50.5953 90.872 50.6252L57.6282 52.2565C55.752 52.3485 53.8876 51.9123 52.2469 50.9975C50.6062 50.0827 49.2551 48.7259 48.347 47.0815L43.6501 36.169C42.4429 34.3398 40.8249 32.8181 38.9251 31.7252C38.3566 29.8817 37.5632 28.1153 36.5626 26.4659C35.2604 24.0943 33.3092 22.143 30.9376 20.8409C30.6556 20.6973 30.3427 20.6248 30.0262 20.6299C29.7097 20.6349 29.3993 20.7173 29.1219 20.8698C28.8446 21.0224 28.6088 21.2404 28.435 21.505C28.2613 21.7696 28.1549 22.0726 28.1251 22.3877L27.4783 29.5596C25.3237 29.6884 23.2233 30.2862 21.3239 31.3113C19.4244 32.3363 17.7717 33.7638 16.4814 35.494L14.2595 38.8409L8.10012 45.0002C7.60342 45.499 7.25999 46.1296 7.11046 46.8174C6.96093 47.5053 7.01157 48.2215 7.25637 48.8815L9.33762 57.9377C9.82214 59.2264 10.5967 60.3863 11.6014 61.3275C12.6061 62.2688 13.8139 62.9663 15.1314 63.3659L25.9314 66.6002C27.2268 66.9951 28.3964 67.722 29.324 68.7088C30.2515 69.6956 30.9048 70.9079 31.2189 72.2252L33.5251 81.8159C35.2354 86.9619 38.5343 91.4327 42.947 94.5846C43.3969 97.8941 43.6317 101.229 43.6501 104.569C42.9936 109.475 42.0546 114.34 40.8376 119.138C40.7244 119.701 40.7385 120.282 40.8789 120.839C41.0193 121.396 41.2825 121.915 41.6491 122.357C42.0158 122.799 42.4767 123.154 42.9981 123.395C43.5195 123.636 44.0882 123.757 44.6626 123.75H47.1658C47.8562 123.753 48.5344 123.569 49.1286 123.217C49.7228 122.866 50.2108 122.36 50.5407 121.753C53.1845 116.944 59.7095 104.71 60.9189 99.2534C62.9141 99.0606 64.8785 98.6262 66.7689 97.9596L75.9376 94.4721C78.5361 93.5417 81.3633 93.4629 84.0095 94.2471C86.3053 94.9182 88.6596 95.3703 91.0407 95.5971C92.5352 100.056 95.5133 103.868 99.4782 106.397L98.0439 119.475C97.9837 120.02 98.0406 120.572 98.2107 121.093C98.3808 121.615 98.6602 122.094 99.0303 122.498C99.4004 122.903 99.8525 123.224 100.357 123.44C100.861 123.656 101.405 123.762 101.953 123.75H106.2C107.046 123.757 107.87 123.485 108.546 122.977C109.222 122.469 109.712 121.752 109.941 120.938L115.003 100.716C113.868 97.6277 113.214 94.3837 113.063 91.0971L114.244 75.8534C114.499 72.75 114.133 69.627 113.167 66.6667C112.201 63.7065 110.655 60.9685 108.619 58.6127L107.859 57.8252C118.125 53.1284 126.281 44.0721 126.563 28.4627Z" fill="#FFCC99"/>
<path d="M10.1814 55.2096C9.91059 54.4988 9.85149 53.7248 10.0112 52.9811C10.1709 52.2374 10.5426 51.5559 11.0814 51.019L17.9157 44.5221L20.3064 40.9221C21.6984 39.0623 23.4785 37.5279 25.5233 36.4254C27.568 35.3229 29.8283 34.6787 32.147 34.5377L32.8501 26.8034C32.8835 26.4871 32.9899 26.1829 33.1609 25.9148C33.3319 25.6467 33.5629 25.4219 33.8356 25.2583C34.1083 25.0947 34.4153 24.9966 34.7323 24.9719C35.0494 24.9472 35.3679 24.9965 35.6626 25.1159C34.463 23.3871 32.8857 21.954 31.0501 20.9252C30.7681 20.7816 30.4552 20.7092 30.1387 20.7142C29.8222 20.7193 29.5118 20.8017 29.2344 20.9542C28.9571 21.1068 28.7213 21.3248 28.5475 21.5894C28.3738 21.854 28.2674 22.157 28.2376 22.4721L27.5907 29.644C25.4362 29.7728 23.3358 30.3706 21.4364 31.3956C19.5369 32.4207 17.8842 33.8482 16.5939 35.5784L14.372 38.9252L8.10012 45.0002C7.60342 45.499 7.25999 46.1296 7.11046 46.8174C6.96093 47.5053 7.01157 48.2215 7.25637 48.8815L9.33762 57.9377C9.80856 59.2106 10.5692 60.3565 11.5595 61.2846L10.1814 55.2096ZM54.3939 53.1565C55.37 54.9364 56.8256 56.4071 58.5954 57.4013C60.3653 58.3956 62.3784 58.8738 64.4064 58.7815L100.181 57.0377C101.796 57.0407 103.407 57.2009 104.991 57.5159C107.561 56.9463 110.074 56.1462 112.5 55.1252C120.572 50.0346 126.31 41.569 126.563 28.4627C126.916 21.9639 124.919 15.555 120.938 10.4065C120.47 9.75338 119.869 9.20791 119.173 8.80675C118.477 8.40559 117.704 8.15806 116.904 8.08079C116.105 8.00352 115.298 8.0983 114.539 8.35877C113.779 8.61924 113.084 9.03936 112.5 9.59086C111.469 10.6423 110.892 12.056 110.892 13.5284C110.892 15.0007 111.469 16.4144 112.5 17.4659C113.933 18.9127 115.064 20.63 115.827 22.518C116.589 24.4059 116.969 26.4267 116.944 28.4627C116.944 37.519 112.416 47.1377 95.3439 50.9627C93.8674 50.7084 92.37 50.5953 90.872 50.6252L57.6282 52.2565C56.2614 52.2833 54.9031 52.0346 53.6345 51.5252L54.3939 53.1565Z" fill="#FFE8D1"/>
<path d="M126.563 28.4627C126.911 21.9646 124.915 15.5574 120.938 10.4065C120.47 9.75338 119.869 9.20791 119.173 8.80675C118.477 8.40559 117.704 8.15806 116.904 8.08079C116.105 8.00352 115.298 8.0983 114.539 8.35877C113.779 8.61924 113.084 9.03936 112.5 9.59086C111.469 10.6423 110.892 12.056 110.892 13.5284C110.892 15.0007 111.469 16.4144 112.5 17.4659C113.933 18.9127 115.064 20.63 115.827 22.518C116.589 24.4059 116.969 26.4267 116.944 28.4627C116.944 37.519 112.416 47.1377 95.3439 50.9627C93.8674 50.7084 92.37 50.5953 90.872 50.6252L57.6282 52.2565C55.752 52.3485 53.8876 51.9123 52.2469 50.9975C50.6062 50.0827 49.2551 48.7259 48.347 47.0815L43.6501 36.169C42.4429 34.3398 40.8249 32.8181 38.9251 31.7252C38.3566 29.8817 37.5632 28.1153 36.5626 26.4659C35.2604 24.0943 33.3092 22.143 30.9376 20.8409C30.6556 20.6973 30.3427 20.6248 30.0262 20.6299C29.7097 20.6349 29.3993 20.7173 29.1219 20.8698C28.8446 21.0224 28.6088 21.2404 28.435 21.505C28.2613 21.7696 28.1549 22.0726 28.1251 22.3877L27.4782 29.5596C25.3237 29.6884 23.2233 30.2862 21.3239 31.3113C19.4244 32.3363 17.7717 33.7638 16.4814 35.494L14.2595 38.8409L8.10012 45.0002C7.60342 45.499 7.25999 46.1296 7.11046 46.8174C6.96093 47.5053 7.01157 48.2215 7.25637 48.8815L9.33762 57.9377C9.82214 59.2264 10.5967 60.3863 11.6014 61.3275C12.6061 62.2688 13.8139 62.9663 15.1314 63.3659L25.9314 66.6002C27.2268 66.9951 28.3964 67.722 29.324 68.7088C30.2515 69.6956 30.9048 70.9079 31.2189 72.2252L33.5251 81.8159C35.2354 86.9619 38.5343 91.4327 42.947 94.5846C43.3969 97.8941 43.6317 101.229 43.6501 104.569C42.9936 109.475 42.0546 114.34 40.8376 119.138C40.7244 119.701 40.7385 120.282 40.8789 120.839C41.0193 121.396 41.2825 121.915 41.6491 122.357C42.0158 122.799 42.4767 123.154 42.9981 123.395C43.5195 123.636 44.0882 123.757 44.6626 123.75H47.1658C47.8562 123.753 48.5344 123.569 49.1286 123.217C49.7228 122.866 50.2108 122.36 50.5407 121.753C53.1845 116.944 59.7095 104.71 60.9189 99.2534C62.9141 99.0606 64.8785 98.6262 66.7689 97.9596L75.9376 94.4721C78.5361 93.5418 81.3633 93.4629 84.0095 94.2471C86.3053 94.9182 88.6596 95.3703 91.0407 95.5971C92.5352 100.056 95.5133 103.868 99.4782 106.397L98.0439 119.475C97.9837 120.02 98.0406 120.572 98.2107 121.093C98.3808 121.615 98.6602 122.094 99.0303 122.498C99.4004 122.903 99.8525 123.224 100.357 123.44C100.861 123.656 101.405 123.762 101.953 123.75H106.2C107.046 123.757 107.87 123.485 108.546 122.977C109.222 122.469 109.712 121.752 109.941 120.938L115.003 100.716C113.868 97.6277 113.214 94.3837 113.063 91.0971L114.244 75.8534C114.499 72.75 114.133 69.627 113.167 66.6667C112.201 63.7065 110.655 60.9685 108.619 58.6127L107.859 57.8252C118.125 53.1284 126.281 44.0721 126.563 28.4627Z" stroke="#45413C" stroke-linecap="round" stroke-linejoin="round"/>
<path d="M60.9189 99.1125C62.1283 92.3906 62.9439 85.05 62.9439 85.05M99.5908 106.397C99.5908 106.397 87.7783 100.125 90.0002 83.25" stroke="#45413C" stroke-linecap="round" stroke-linejoin="round"/>
<path d="M25.7627 42.6377C25.7627 43.2496 25.5813 43.8477 25.2413 44.3565C24.9014 44.8653 24.4182 45.2618 23.8529 45.4959C23.2876 45.7301 22.6655 45.7914 22.0654 45.672C21.4653 45.5526 20.914 45.258 20.4813 44.8253C20.0487 44.3926 19.754 43.8414 19.6346 43.2413C19.5153 42.6411 19.5765 42.0191 19.8107 41.4538C20.0449 40.8885 20.4414 40.4053 20.9502 40.0653C21.4589 39.7254 22.0571 39.5439 22.6689 39.5439C23.4895 39.5439 24.2764 39.8699 24.8566 40.4501C25.4367 41.0303 25.7627 41.8172 25.7627 42.6377Z" fill="#45413C"/>
<path d="M28.8843 50.2314C28.8843 51.0752 30.2905 51.7783 31.978 51.7783C33.6655 51.7783 35.0718 51.0752 35.0718 50.2314C35.0718 49.3877 33.6937 48.6846 31.978 48.6846C30.2624 48.6846 28.8843 49.3596 28.8843 50.2314Z" fill="#FFAA54"/>
</svg>
