<svg width="135" height="135" viewBox="0 0 135 135" fill="none" xmlns="http://www.w3.org/2000/svg">
<g id="streamline-emojis:dog">
<path id="Vector" opacity="0.15" d="M14.8501 124.65C14.8501 125.27 16.153 125.885 18.6844 126.458C21.2159 127.031 24.9262 127.552 29.6037 127.991C34.2811 128.43 39.8341 128.778 45.9455 129.015C52.0569 129.253 58.607 129.375 65.222 129.375C71.8369 129.375 78.3871 129.253 84.4985 129.015C90.6098 128.778 96.1628 128.43 100.84 127.991C105.518 127.552 109.228 127.031 111.76 126.458C114.291 125.885 115.594 125.27 115.594 124.65C115.594 124.029 114.291 123.415 111.76 122.842C109.228 122.268 105.518 121.747 100.84 121.309C96.1628 120.87 90.6098 120.522 84.4985 120.284C78.3871 120.047 71.8369 119.925 65.222 119.925C58.607 119.925 52.0569 120.047 45.9455 120.284C39.8341 120.522 34.2811 120.87 29.6037 121.309C24.9262 121.747 21.2159 122.268 18.6844 122.842C16.153 123.415 14.8501 124.029 14.8501 124.65Z" fill="#45413C"/>
<path id="Vector_2" d="M125.156 32.4561C122.573 29.8445 119.302 28.0175 115.724 27.1863C112.146 26.3551 108.405 26.5538 104.935 27.7592C103.983 28.0879 103.19 28.7613 102.711 29.6465C102.232 30.5316 102.102 31.5643 102.347 32.5405C102.562 33.3654 103.031 34.1021 103.687 34.647C104.343 35.1918 105.153 35.5174 106.003 35.578C110.053 35.8592 116.663 37.8842 114.131 48.2061C113.638 51.0819 112.429 53.7873 110.615 56.0728C108.802 58.3584 106.442 60.1506 103.753 61.2842C100.766 59.0283 97.0864 57.8845 93.347 58.0498L71.5501 59.0623C67.7435 59.2219 63.9698 58.2968 60.6686 56.3948C57.3673 54.4927 54.6744 51.6919 52.9033 48.3186C52.0281 46.6396 51.4118 44.838 51.0751 42.9748L49.9501 37.3498C49.3957 34.5716 47.9561 32.0478 45.8468 30.1566C43.7375 28.2653 41.0722 27.1084 38.2501 26.8592C33.5814 26.4373 25.9876 28.4905 23.2876 32.3155L19.6876 37.1811L10.1533 39.7123C9.74156 39.7922 9.35016 39.9542 9.00245 40.1887C8.65473 40.4232 8.35782 40.7253 8.12944 41.0771C7.90107 41.4288 7.7459 41.823 7.67322 42.236C7.60054 42.6491 7.61182 43.0725 7.70639 43.4811L9.75952 52.8186C9.88383 53.3355 10.1336 53.8138 10.4868 54.2112C10.84 54.6085 11.2858 54.9127 11.7845 55.0967L23.0626 59.0623C24.4268 59.5599 25.6321 60.415 26.5525 61.5382C27.4728 62.6614 28.0742 64.0114 28.2939 65.4467L30.9376 82.7717C31.3134 85.2284 32.1431 87.5937 33.3845 89.7467L31.472 114.665C30.0003 114.832 28.6414 115.535 27.6555 116.64C26.6696 117.745 26.1258 119.175 26.1283 120.656C26.1283 121.477 26.4542 122.264 27.0344 122.844C27.6146 123.424 28.4015 123.75 29.222 123.75H39.6564C40.2654 123.729 40.8552 123.532 41.3544 123.182C41.8536 122.833 42.2408 122.346 42.4689 121.781L50.9064 101.081C57.0846 102.614 63.5438 102.614 69.722 101.081L79.4814 98.6624C83.1183 97.863 86.8614 97.6635 90.5626 98.0717C91.5694 100.167 92.7551 102.171 94.1064 104.062C95.7402 106.733 96.47 109.86 96.1876 112.978L96.047 114.665C95.2365 114.639 94.429 114.776 93.6725 115.068C92.916 115.36 92.2259 115.801 91.6434 116.365C91.0609 116.93 90.5978 117.605 90.2816 118.352C89.9655 119.099 89.8028 119.901 89.8033 120.712C89.8175 121.509 90.1382 122.269 90.6988 122.835C91.2593 123.4 92.0165 123.728 92.8126 123.75H104.063C104.705 123.707 105.319 123.469 105.822 123.066C106.325 122.664 106.693 122.117 106.875 121.5L111.881 104.878C113.738 99.478 109.069 97.8186 109.069 89.4655L109.66 87.8623C110.926 84.4964 111.46 80.8993 111.228 77.3106C110.995 73.7219 110 70.224 108.31 67.0498C131.85 66.7686 135.816 42.1873 125.156 32.4561Z" stroke="#45413C" stroke-linecap="round" stroke-linejoin="round"/>
<g id="Vector_3">
<path d="M50.8218 101.081L54.3374 92.2783L50.8218 101.081Z" fill="white"/>
<path d="M50.8218 101.081L54.3374 92.2783" stroke="#45413C" stroke-linecap="round" stroke-linejoin="round"/>
</g>
<path id="Vector_4" d="M88.7063 82.8281L88.1719 88.4531C88.1191 91.7844 88.9127 95.0746 90.4781 98.0156" stroke="#45413C" stroke-linecap="round" stroke-linejoin="round"/>
<path id="Vector_5" d="M35.4375 29.3063C36.1005 25.5407 37.1563 21.855 38.5875 18.3094C39.5719 16.5376 45.4781 21.6282 44.8875 34.0313" stroke="#45413C" stroke-linecap="round" stroke-linejoin="round"/>
<path id="Vector_6" d="M31.1624 39.0658C31.168 39.5688 31.0236 40.062 30.7476 40.4825C30.4716 40.9031 30.0766 41.2319 29.6129 41.4269C29.1493 41.622 28.638 41.6745 28.1444 41.5777C27.6508 41.4809 27.1972 41.2393 26.8415 40.8836C26.4858 40.5279 26.2442 40.0743 26.1474 39.5807C26.0506 39.0871 26.1031 38.5758 26.2982 38.1122C26.4932 37.6485 26.822 37.2535 27.2426 36.9775C27.6631 36.7015 28.1563 36.5571 28.6593 36.5627C29.3232 36.5627 29.9599 36.8264 30.4293 37.2958C30.8987 37.7652 31.1624 38.4019 31.1624 39.0658Z" fill="#45413C"/>
<path id="Vector_7" d="M35.4375 43.6499C35.4375 44.353 36.5625 44.9155 37.9687 44.9155C39.375 44.9155 40.4719 44.353 40.4719 43.6499C40.4719 42.9468 39.3469 42.3843 37.9687 42.3843C36.5906 42.3843 35.4375 42.9468 35.4375 43.6499Z" fill="#FFAA54"/>
</g>
</svg>
