<svg width="135" height="135" viewBox="0 0 135 135" fill="none" xmlns="http://www.w3.org/2000/svg">
<g id="streamline-emojis:dog">
<path id="Vector" opacity="0.15" d="M14.8501 124.65C14.8501 125.27 16.153 125.885 18.6844 126.458C21.2159 127.031 24.9262 127.552 29.6037 127.991C34.2811 128.43 39.8341 128.778 45.9455 129.015C52.0569 129.253 58.607 129.375 65.222 129.375C71.8369 129.375 78.3871 129.253 84.4985 129.015C90.6098 128.778 96.1628 128.43 100.84 127.991C105.518 127.552 109.228 127.031 111.76 126.458C114.291 125.885 115.594 125.27 115.594 124.65C115.594 124.029 114.291 123.415 111.76 122.842C109.228 122.268 105.518 121.747 100.84 121.309C96.1628 120.87 90.6098 120.522 84.4985 120.284C78.3871 120.047 71.8369 119.925 65.222 119.925C58.607 119.925 52.0569 120.047 45.9455 120.284C39.8341 120.522 34.2811 120.87 29.6037 121.309C24.9262 121.747 21.2159 122.268 18.6844 122.842C16.153 123.415 14.8501 124.029 14.8501 124.65Z" fill="#45413C"/>
<path id="Vector_2" d="M125.156 32.4561C122.572 29.8445 119.302 28.0175 115.724 27.1863C112.145 26.3551 108.405 26.5538 104.934 27.7592C103.983 28.0879 103.189 28.7613 102.71 29.6465C102.231 30.5316 102.102 31.5643 102.347 32.5405C102.562 33.3654 103.031 34.1021 103.687 34.647C104.342 35.1918 105.153 35.5174 106.003 35.578C110.053 35.8592 116.662 37.8842 114.131 48.2061C113.638 51.0819 112.429 53.7873 110.615 56.0728C108.801 58.3584 106.442 60.1506 103.753 61.2842C100.766 59.0283 97.0862 57.8845 93.3468 58.0498L71.5499 59.0623C67.7432 59.2219 63.9696 58.2968 60.6683 56.3948C57.3671 54.4927 54.6741 51.6919 52.903 48.3186C52.0279 46.6396 51.4115 44.838 51.0749 42.9748L49.9499 37.3498C49.3955 34.5716 47.9558 32.0478 45.8465 30.1566C43.7372 28.2653 41.0719 27.1084 38.2499 26.8592C33.5812 26.4373 25.9874 28.4905 23.2874 32.3155L19.6874 37.1811L10.153 39.7123C9.74131 39.7922 9.34992 39.9542 9.0022 40.1887C8.65448 40.4232 8.35758 40.7253 8.1292 41.0771C7.90082 41.4288 7.74566 41.823 7.67298 42.236C7.60029 42.6491 7.61157 43.0725 7.70615 43.4811L9.75928 52.8186C9.88358 53.3355 10.1334 53.8138 10.4866 54.2112C10.8398 54.6085 11.2855 54.9127 11.7843 55.0967L23.0624 59.0623C24.4266 59.5599 25.6319 60.4151 26.5522 61.5382C27.4725 62.6614 28.074 64.0114 28.2937 65.4467L30.9374 82.7717C31.3131 85.2284 32.1429 87.5937 33.3843 89.7467L31.4718 114.665C30 114.832 28.6412 115.535 27.6553 116.64C26.6694 117.745 26.1256 119.175 26.128 120.656C26.128 121.477 26.454 122.264 27.0342 122.844C27.6144 123.424 28.4013 123.75 29.2218 123.75H39.6562C40.2651 123.729 40.855 123.532 41.3542 123.182C41.8534 122.833 42.2405 122.346 42.4687 121.781L50.9062 101.081C57.0844 102.614 63.5436 102.614 69.7218 101.081L79.4812 98.6624C83.118 97.863 86.8611 97.6635 90.5624 98.0717C91.5692 100.167 92.7548 102.171 94.1061 104.062C95.7399 106.733 96.4697 109.86 96.1874 112.978L96.0468 114.665C95.2363 114.639 94.4287 114.776 93.6722 115.068C92.9157 115.36 92.2257 115.801 91.6431 116.365C91.0606 116.93 90.5975 117.605 90.2814 118.352C89.9653 119.099 89.8026 119.901 89.803 120.712C89.8172 121.509 90.138 122.269 90.6985 122.835C91.2591 123.4 92.0162 123.728 92.8124 123.75H104.062C104.705 123.707 105.319 123.469 105.822 123.066C106.325 122.664 106.692 122.117 106.875 121.5L111.881 104.878C113.737 99.478 109.069 97.8186 109.069 89.4655L109.659 87.8623C110.926 84.4964 111.46 80.8993 111.227 77.3106C110.995 73.7219 110 70.224 108.309 67.0498C131.85 66.7686 135.816 42.1873 125.156 32.4561Z" fill="#F7E5C6"/>
<path id="Vector_3" d="M8.83115 48.0658C9.23624 47.6939 9.73019 47.4324 10.2655 47.3065L19.6874 44.8033L23.1749 39.9096C25.9874 36.1127 33.4687 34.0315 38.1374 34.4533C40.9857 34.6869 43.6801 35.843 45.8119 37.7464C47.9436 39.6497 49.3965 42.1965 49.9499 45.0002L51.0749 50.4846C51.4161 52.3466 52.0322 54.1475 52.903 55.8283C54.6794 59.1972 57.3735 61.9942 60.6735 63.8956C63.9735 65.7969 67.7444 66.7249 71.5499 66.5721L93.3468 65.6721C97.0813 65.5105 100.757 66.643 103.753 68.8783C106.447 67.7536 108.813 65.9639 110.628 63.6768C112.443 61.3897 113.648 58.6797 114.131 55.8002C114.892 53.3357 114.892 50.6991 114.131 48.2346C113.624 51.1016 112.409 53.7967 110.597 56.0756C108.785 58.3544 106.432 60.1448 103.753 61.2846C100.766 59.0287 97.0862 57.8849 93.3468 58.0502L71.5499 59.0627C67.7432 59.2223 63.9696 58.2972 60.6683 56.3951C57.3671 54.4931 54.6741 51.6923 52.903 48.319C52.0279 46.64 51.4115 44.8384 51.0749 42.9752L49.9499 37.3502C49.3955 34.572 47.9558 32.0482 45.8465 30.1569C43.7372 28.2657 41.0719 27.1088 38.2499 26.8596C33.5812 26.4377 25.9874 28.4908 23.2874 32.3158L19.6874 37.1815L10.153 39.7127C9.74131 39.7926 9.34992 39.9546 9.0022 40.1891C8.65448 40.4236 8.35758 40.7257 8.1292 41.0774C7.90082 41.4292 7.74566 41.8234 7.67298 42.2364C7.60029 42.6494 7.61157 43.0729 7.70615 43.4815L8.83115 48.0658ZM105.047 35.3533C108.504 34.1676 112.225 33.982 115.782 34.8179C119.34 35.6538 122.589 37.4772 125.156 40.0783C127.956 42.7405 129.803 46.2483 130.416 50.0627C131.101 46.6927 130.883 43.2011 129.784 39.9426C128.684 36.6841 126.741 33.7746 124.153 31.5095C121.566 29.2444 118.424 27.7044 115.049 27.0458C111.673 26.3872 108.184 26.6335 104.934 27.7596C103.983 28.0882 103.189 28.7616 102.71 29.6468C102.231 30.532 102.102 31.5647 102.347 32.5408C102.514 33.2037 102.851 33.8116 103.324 34.3047C103.798 34.7979 104.391 35.1593 105.047 35.3533Z" fill="#FFF5E3"/>
<path id="Vector_4" d="M125.156 32.4561C122.572 29.8445 119.302 28.0175 115.724 27.1863C112.145 26.3551 108.405 26.5538 104.934 27.7592C103.983 28.0879 103.189 28.7613 102.71 29.6465C102.231 30.5316 102.102 31.5643 102.347 32.5405C102.562 33.3654 103.031 34.1021 103.687 34.647C104.342 35.1918 105.153 35.5174 106.003 35.578C110.053 35.8592 116.662 37.8842 114.131 48.2061C113.638 51.0819 112.429 53.7873 110.615 56.0728C108.801 58.3584 106.442 60.1506 103.753 61.2842C100.766 59.0283 97.0862 57.8845 93.3468 58.0498L71.5499 59.0623C67.7432 59.2219 63.9696 58.2968 60.6683 56.3948C57.3671 54.4927 54.6741 51.6919 52.903 48.3186C52.0279 46.6396 51.4115 44.838 51.0749 42.9748L49.9499 37.3498C49.3955 34.5716 47.9558 32.0478 45.8465 30.1566C43.7372 28.2653 41.0719 27.1084 38.2499 26.8592C33.5812 26.4373 25.9874 28.4905 23.2874 32.3155L19.6874 37.1811L10.153 39.7123C9.74131 39.7922 9.34992 39.9542 9.0022 40.1887C8.65448 40.4232 8.35758 40.7253 8.1292 41.0771C7.90082 41.4288 7.74566 41.823 7.67298 42.236C7.60029 42.6491 7.61157 43.0725 7.70615 43.4811L9.75928 52.8186C9.88358 53.3355 10.1334 53.8138 10.4866 54.2112C10.8398 54.6085 11.2855 54.9127 11.7843 55.0967L23.0624 59.0623C24.4266 59.5599 25.6319 60.415 26.5522 61.5382C27.4725 62.6614 28.074 64.0114 28.2937 65.4467L30.9374 82.7717C31.3131 85.2284 32.1429 87.5937 33.3843 89.7467L31.4718 114.665C30 114.832 28.6412 115.535 27.6553 116.64C26.6694 117.745 26.1256 119.175 26.128 120.656C26.128 121.477 26.454 122.264 27.0342 122.844C27.6144 123.424 28.4013 123.75 29.2218 123.75H39.6562C40.2651 123.729 40.855 123.532 41.3542 123.182C41.8534 122.833 42.2405 122.346 42.4687 121.781L50.9062 101.081C57.0844 102.614 63.5436 102.614 69.7218 101.081L79.4812 98.6624C83.118 97.863 86.8611 97.6635 90.5624 98.0717C91.5692 100.167 92.7548 102.171 94.1061 104.062C95.7399 106.733 96.4697 109.86 96.1874 112.978L96.0468 114.665C95.2363 114.639 94.4287 114.776 93.6722 115.068C92.9157 115.36 92.2257 115.801 91.6431 116.365C91.0606 116.93 90.5975 117.605 90.2814 118.352C89.9653 119.099 89.8026 119.901 89.803 120.712C89.8172 121.509 90.138 122.269 90.6985 122.835C91.2591 123.4 92.0162 123.728 92.8124 123.75H104.062C104.705 123.707 105.319 123.469 105.822 123.066C106.325 122.664 106.692 122.117 106.875 121.5L111.881 104.878C113.737 99.478 109.069 97.8186 109.069 89.4655L109.659 87.8623C110.926 84.4964 111.46 80.8993 111.227 77.3106C110.995 73.7219 110 70.224 108.309 67.0498C131.85 66.7686 135.816 42.1873 125.156 32.4561Z" stroke="#45413C" stroke-linecap="round" stroke-linejoin="round"/>
<g id="Vector_5">
<path d="M50.8218 101.081L54.3374 92.2783L50.8218 101.081Z" fill="white"/>
<path d="M50.8218 101.081L54.3374 92.2783" stroke="#45413C" stroke-linecap="round" stroke-linejoin="round"/>
</g>
<path id="Vector_6" d="M88.7063 82.8281L88.1719 88.4531C88.1191 91.7844 88.9127 95.0746 90.4781 98.0156" stroke="#45413C" stroke-linecap="round" stroke-linejoin="round"/>
<g id="Vector_7">
<path d="M35.4375 29.3063C36.1005 25.5407 37.1563 21.855 38.5875 18.3094C39.5719 16.5376 45.4781 21.6282 44.8875 34.0313" fill="#FFF5E3"/>
<path d="M35.4375 29.3063C36.1005 25.5407 37.1563 21.855 38.5875 18.3094C39.5719 16.5376 45.4781 21.6282 44.8875 34.0313" stroke="#45413C" stroke-linecap="round" stroke-linejoin="round"/>
</g>
<path id="Vector_8" d="M31.1624 39.0658C31.168 39.5688 31.0236 40.062 30.7476 40.4825C30.4716 40.9031 30.0766 41.2319 29.6129 41.4269C29.1493 41.622 28.638 41.6745 28.1444 41.5777C27.6508 41.4809 27.1972 41.2393 26.8415 40.8836C26.4858 40.5279 26.2442 40.0743 26.1474 39.5807C26.0506 39.0871 26.1031 38.5758 26.2982 38.1122C26.4932 37.6485 26.822 37.2535 27.2426 36.9775C27.6631 36.7015 28.1563 36.5571 28.6593 36.5627C29.3232 36.5627 29.9599 36.8264 30.4293 37.2958C30.8987 37.7652 31.1624 38.4019 31.1624 39.0658Z" fill="#45413C"/>
<path id="Vector_9" d="M35.4375 43.6499C35.4375 44.353 36.5625 44.9155 37.9687 44.9155C39.375 44.9155 40.4719 44.353 40.4719 43.6499C40.4719 42.9468 39.3469 42.3843 37.9687 42.3843C36.5906 42.3843 35.4375 42.9468 35.4375 43.6499Z" fill="#FFAA54"/>
</g>
</svg>
