<svg width="64" height="64" viewBox="0 0 64 64" fill="none" xmlns="http://www.w3.org/2000/svg">
<g filter="url(#filter0_d_216_1706)">
<g filter="url(#filter1_d_216_1706)">
<rect x="4" width="56" height="56" rx="6" fill="#FFCCDD"/>
<rect x="4.5" y="0.5" width="55" height="55" rx="5.5" stroke="white"/>
</g>
<path d="M41.0203 29.6531C43.4281 27.2453 44.7578 24.0379 44.7578 20.6328C44.7578 17.2232 43.4326 14.0203 41.0203 11.6125C38.6125 9.20469 35.4051 7.875 32 7.875C28.5949 7.875 25.3875 9.2002 22.9797 11.6125C20.5719 14.0248 19.2422 17.2232 19.2422 20.6328C19.2422 23.4988 20.1811 26.2211 21.9105 28.4447C22.2385 28.867 22.5934 29.2668 22.9752 29.6531C23.357 30.035 23.7613 30.3898 24.1791 30.7178C25.958 32.1014 28.0559 32.9818 30.293 33.2783V38.0625H25.1719C24.9742 38.0625 24.8125 38.2242 24.8125 38.4219V41.1172C24.8125 41.3148 24.9742 41.4766 25.1719 41.4766H30.293V47.7656C30.293 47.9633 30.4547 48.125 30.6523 48.125H33.3477C33.5453 48.125 33.707 47.9633 33.707 47.7656V41.4766H38.8281C39.0258 41.4766 39.1875 41.3148 39.1875 41.1172V38.4219C39.1875 38.2242 39.0258 38.0625 38.8281 38.0625H33.707V33.2783C36.4697 32.91 39.0168 31.6566 41.0203 29.6531ZM32 29.9766C29.5023 29.9766 27.1619 29.0063 25.392 27.2408C23.6266 25.4754 22.6562 23.1305 22.6562 20.6328C22.6562 18.1352 23.6266 15.7947 25.392 14.0248C27.1574 12.2549 29.5023 11.2891 32 11.2891C34.4977 11.2891 36.8381 12.2594 38.608 14.0248C40.3734 15.7902 41.3438 18.1352 41.3438 20.6328C41.3438 23.1305 40.3734 25.4709 38.608 27.2408C36.8381 29.0063 34.4977 29.9766 32 29.9766Z" fill="white"/>
</g>
<defs>
<filter id="filter0_d_216_1706" x="0" y="0" width="64" height="64" filterUnits="userSpaceOnUse" color-interpolation-filters="sRGB">
<feFlood flood-opacity="0" result="BackgroundImageFix"/>
<feColorMatrix in="SourceAlpha" type="matrix" values="0 0 0 0 0 0 0 0 0 0 0 0 0 0 0 0 0 0 127 0" result="hardAlpha"/>
<feOffset dy="4"/>
<feGaussianBlur stdDeviation="2"/>
<feComposite in2="hardAlpha" operator="out"/>
<feColorMatrix type="matrix" values="0 0 0 0 0 0 0 0 0 0 0 0 0 0 0 0 0 0 0.25 0"/>
<feBlend mode="normal" in2="BackgroundImageFix" result="effect1_dropShadow_216_1706"/>
<feBlend mode="normal" in="SourceGraphic" in2="effect1_dropShadow_216_1706" result="shape"/>
</filter>
<filter id="filter1_d_216_1706" x="0" y="0" width="64" height="64" filterUnits="userSpaceOnUse" color-interpolation-filters="sRGB">
<feFlood flood-opacity="0" result="BackgroundImageFix"/>
<feColorMatrix in="SourceAlpha" type="matrix" values="0 0 0 0 0 0 0 0 0 0 0 0 0 0 0 0 0 0 127 0" result="hardAlpha"/>
<feOffset dy="4"/>
<feGaussianBlur stdDeviation="2"/>
<feComposite in2="hardAlpha" operator="out"/>
<feColorMatrix type="matrix" values="0 0 0 0 0 0 0 0 0 0 0 0 0 0 0 0 0 0 0.15 0"/>
<feBlend mode="normal" in2="BackgroundImageFix" result="effect1_dropShadow_216_1706"/>
<feBlend mode="normal" in="SourceGraphic" in2="effect1_dropShadow_216_1706" result="shape"/>
</filter>
</defs>
</svg>
