<svg width="220" height="210" viewBox="0 0 220 210" fill="none" xmlns="http://www.w3.org/2000/svg">
<g id="metropolitan-france-map" clip-path="url(#clip0_184_633)">
<path id="Vector" d="M204.549 192.727H204.782L205.036 192.683L205.715 192.354L205.821 192.42L206.054 192.311L206.69 192.201L206.754 191.917L206.563 191.654L206.309 191.413H206.075L205.884 191.347L205.821 191.194L205.503 191.304L205.418 191.063L205.842 190.8V190.647L205.694 190.472L205.312 190.362L205.057 190.647L204.867 190.734L204.782 189.99H205.036L205.1 189.815L205.566 189.684L205.503 189.399L205.63 189.092L205.948 189.005L206.181 189.136L206.287 189.071L206.393 188.72L206.266 188.655V188.501H206.457V188.239L206.605 188.02L206.542 187.866H206.181L206.415 187.472V187.144L206.478 187.056L206.69 187.1L206.839 187.013L207.199 186.925L207.135 186.421L207.22 186.356L207.072 186.049L207.114 185.874L207.242 185.83L207.284 186.203L207.708 186.006V186.203L207.856 186.312L208.153 186.268L208.408 185.984L208.344 185.743L208.493 185.59V185.327L208.832 185.393L209.107 185.195L209.277 185.283L209.426 185.152L209.489 184.845H209.934L210.083 184.648H210.274L210.38 184.758H210.698L211.016 184.604H211.334L211.525 184.561L211.631 184.385H211.779L212.055 184.254L211.991 183.794L212.055 183.597H212.203L212.437 183.313V183.159L212.67 183.116L212.733 182.962L213.009 182.787L213.179 182.853L213.539 182.678L214.09 182.919L214.43 182.7L214.578 182.984L214.875 183.05L214.939 183.356L215.214 183.532V183.707L215.363 183.904H215.511L215.532 183.729L215.766 183.575L215.85 183.444V183.116L216.041 182.919L216.19 182.656L216.084 182.065L216.147 181.955V181.649L216.168 181.43L216.041 181.167L215.935 181.123L215.85 180.883L215.702 180.773L215.787 180.489L215.872 180.423L216.126 180.029L215.999 179.941L215.935 179.7V179.547L215.872 179.35L216.317 179.022L216.402 178.803L216.253 178.759L216.381 178.409L216.232 178.277L216.275 177.971L216.168 177.774V177.445L216.381 177.183L216.593 177.226L216.741 177.117L217.08 177.205L217.314 177.073L217.42 177.248L217.589 177.314V177.467L217.907 177.599L217.78 177.861L217.738 178.08L217.801 178.321L217.992 178.606L217.928 178.693L218.034 178.847L217.992 179.241L218.119 179.744L218.034 179.832L218.162 179.963L218.225 180.291V180.489V180.904L218.31 181.211V181.452L217.971 182.021L217.886 182.371V182.678L217.78 182.941L217.738 183.51L217.653 183.575V184.079L217.865 184.582L218.098 184.977L218.607 185.677L218.755 186.006L218.861 186.421V186.903L218.819 187.407V187.647L218.989 188.217V188.589L219.01 188.83L218.925 189.268L218.861 189.771V189.99L218.946 190.537L219.116 191.063L219.264 191.763L219.158 192.551V192.88L219.243 193.471L219.179 194.15L219.222 194.544V194.938L219.116 195.332L218.84 195.704L218.437 196.339L217.95 197.127L217.78 197.368L217.42 197.784L217.144 198.309V198.572L217.186 198.813L217.144 199.076L216.995 199.404L216.911 199.886L216.995 200.192L216.953 200.345L217.038 200.893L216.932 201.331V201.9L217.059 202.031L216.995 202.381L217.038 202.491L216.974 202.754L217.038 203.104L216.974 203.476L216.656 203.651L216.593 203.914L216.783 204.22L216.55 204.636L216.338 204.549L216.232 204.614L216.296 204.987L216.041 204.921L215.829 205.052L215.723 204.79L215.596 204.855V205.03L215.363 205.162V205.556L215.469 205.665L215.617 205.534L215.829 205.249L216.041 205.293L216.126 205.468L216.487 205.424L216.253 205.84V205.994L216.147 206.169H216.041L215.596 206.432L215.257 206.891L215.342 207.001L215.214 207.242V207.439L215.384 207.461L215.342 207.767L215.129 207.876L214.96 208.183L214.727 208.402L214.451 208.511L214.515 208.796V208.993L214.366 209.146L214.451 209.234L214.79 208.884L215.066 208.774L214.96 209.059L214.642 209.453V209.584L214.43 209.803L214.345 210H213.836L213.751 209.759L213.56 209.606H213.412L213.115 209.497L213.03 209.387L212.585 209.453L212.543 209.321L212.606 209.102L212.733 209.037V208.84L212.967 208.643V208.555L212.691 208.511L212.585 208.358L212.373 208.533L212.225 208.468L212.182 208.227L212.246 207.986L211.822 208.227L211.779 207.986L211.588 208.052L211.249 207.855L211.164 207.658L210.973 207.811L210.677 207.526L210.486 207.57L210.253 207.439L210.104 207.504L210.019 207.22L209.786 207.176L209.468 206.869L209.298 206.957L208.98 207.001V206.891L209.086 206.716V206.585L208.959 206.432L208.662 206.475L208.493 206.256L208.175 206.213V206.081L208.323 205.928L208.238 205.643H208.09L208.153 205.337L208.238 205.14L208.281 204.724L208.556 204.768L209.468 204.286L209.51 203.958L209.68 203.848H209.913L210.019 203.717L209.977 203.564H209.574L209.447 203.454H208.959L208.705 203.191L208.514 203.104L208.429 203.191H208.153L207.92 203.104L208.111 202.754L207.941 202.557L207.008 202.951L206.945 202.863L207.008 202.666L206.817 202.557L206.627 202.6L206.499 202.535L206.309 202.578V202.403L206.499 202.338L206.669 202.447L207.029 202.228L207.369 201.79L207.199 201.44H207.496L207.602 201.177H207.899L207.962 200.893L208.09 200.827L207.814 200.499L208.153 200.389L208.196 200.039L208.047 199.732L208.365 199.579V199.448L208.217 199.141L208.047 198.922L207.878 198.835L207.793 198.922L207.623 198.725L207.454 198.769V199.097L207.348 199.076L207.157 199.251H206.966H206.711L206.457 199.338L206.054 199.229L205.694 199.404L205.609 199.119L205.778 198.725L205.545 198.572V198.397L205.397 198.375L205.354 198.112L205.651 198.003L205.906 198.068H206.139L206.372 197.871V197.565L206.224 197.434L206.266 197.215L206.457 197.04L206.754 196.886L206.881 196.93L207.242 196.733V196.58L207.475 196.624L207.56 196.448L207.432 196.142H207.157V195.989L207.072 195.77L206.945 195.726L207.008 195.507L206.881 195.332V195.201L206.351 195.31L206.096 195.003H205.969L205.736 194.938L205.588 194.741L205.376 194.828H205.163L205.354 194.566L205.227 194.39H204.909L205.27 194.172V193.996L204.951 194.04L204.909 193.887H205.163L205.079 193.515L205.142 193.362L204.994 193.164L204.951 192.814H204.676L204.549 192.683V192.727Z" stroke="white" stroke-linejoin="round"/>
<g id="Vector_2">
<path d="M58.486 114.993L58.4198 114.84L58.2875 114.752L57.7359 114.818L57.405 114.752L57.1623 114.598L56.9417 114.269L56.8093 114.225L56.4122 113.852L56.4343 113.699L56.1254 113.655L55.8827 113.523L55.7945 113.567L55.993 114.225L56.1695 114.577L56.1254 115.125L56.2136 115.586L56.7211 116.157L56.8755 116.31L57.2064 116.464L57.405 116.661L57.6035 116.727L57.758 116.969L57.9345 117.1L58.0668 117.32L58.1771 117.715L58.2654 118.439L58.4198 118.812L58.5522 118.834L58.5963 118.614L58.7728 118.505L59.0376 118.176L58.8611 117.781L59.0817 117.232L59.1699 116.991L58.6184 116.398L58.486 116.135L58.5963 115.805L58.3536 115.498L58.4419 115.301L58.486 114.993Z" stroke="white" stroke-linejoin="round"/>
<path d="M54.8679 109.551L54.7576 109.244L54.4928 109.024H54.3163L53.8751 109.332L53.5442 109.31L53.5662 109.441L53.853 109.858L53.9633 110.209L54.2501 110.275L54.4046 110.407L54.6473 110.253L54.9561 110.187L55.3312 110.363L56.1033 110.758L56.4343 110.977L56.6769 111.219L57.0079 111.329L57.1623 111.438L57.405 111.482L57.8021 111.46L57.9786 111.197L57.758 111.021L57.6697 110.692L57.5594 110.517L57.3609 110.473L57.2064 110.539L56.6549 110.144H56.3681L56.0813 110.187L55.618 110.165L55.4194 109.99L55.6842 109.858L55.7503 109.617L55.1106 109.661L54.9782 109.902L54.6693 110.122L54.4928 109.902L54.3605 109.968V109.683L54.8679 109.551Z" stroke="white" stroke-linejoin="round"/>
<path d="M66.3841 132.045L66.4724 132.023V131.716L66.3621 131.321L66.2076 131.474L66.2518 131.76L66.3841 132.045Z" stroke="white" stroke-linejoin="round"/>
<path d="M59.4567 142.206L59.3464 142.008L59.1699 142.096L59.3244 142.25L59.4567 142.206Z" stroke="white" stroke-linejoin="round"/>
<path d="M42.2485 99.0611L41.9397 99.0392L41.8073 98.8417L41.2999 98.7319L41.2116 98.8636L41.0131 98.9075L41.1234 99.2367L41.4764 99.4122L41.5426 99.5659L41.8735 99.5878L42.0279 99.7634L42.3368 99.5439L42.5133 99.6317L42.7339 99.5659L42.5574 99.3464L42.2485 99.0611Z" stroke="white" stroke-linejoin="round"/>
<path d="M44.7415 94.4965L44.8077 94.3648L44.6533 94.0137L43.4619 93.3553L43.5281 93.1797L43.7487 93.092L43.7267 92.675L43.6384 92.5653L43.4178 92.5433L43.2413 92.3239L42.8663 92.3019L42.7118 92.3897H42.403L42.6236 92.6531L42.4912 92.9603V93.1578L42.756 93.3114L43.0869 93.8162L43.2193 93.8381L43.3737 93.7064H43.6826L43.9032 93.8601L44.19 94.1673L44.3885 94.5184L44.5209 95.0232L44.6533 95.1987L44.7856 94.7818L44.7415 94.4965Z" stroke="white" stroke-linejoin="round"/>
<path d="M199.99 48.9817H199.88L199.637 49.1792L199.593 48.9597L199.218 48.8939L198.953 48.9378L198.711 48.8939L198.622 48.8061L198.027 48.6745L197.696 48.5208L197.387 48.1039L197.122 47.9941H196.99L196.835 47.8844L196.571 47.7747L196.284 47.8405L196.129 47.4675L195.909 47.3797L195.843 47.1822L195.644 47.1383L195.512 47.4675H195.335L195.004 47.3358L194.894 47.4016L194.695 47.6869L194.497 47.643L194.453 47.4894L193.923 47.2041L193.857 47.0944L193.592 46.9627L193.504 47.1383L193.328 47.1822L193.217 47.3797H192.644L192.467 47.2919H192.291L192.114 47.1383L192.07 47.3358L191.805 47.4236L191.166 47.2041V46.8091L190.989 46.7652L190.702 46.5677L190.239 46.6555L189.908 46.5019L189.621 46.2605L189.423 45.7118L189.268 45.6679L189.026 45.2071L189.268 45.0096L189.114 44.8998V44.5707L188.673 44.6146L188.562 44.7243L188.275 44.5487L188.209 44.3951L188.275 44.2415L187.371 44.439L187.172 44.5048L187.216 44.7243L187.128 44.856V45.1412H186.643L186.4 45.3168L186.18 45.7777H185.937V45.624H185.672L185.363 45.4704L185.143 45.5582L184.635 45.6679L184.481 45.4704L184.15 45.5582L184.084 45.6679L183.731 45.5143L183.598 45.2071L183.267 45.2729V45.1412L183.4 45.0096L183.289 44.8998L182.959 44.9657V45.2071L183.069 45.4046L182.804 45.6021L182.716 45.8435L182.539 45.8874L182.429 45.8215L182.363 45.6021L182.407 45.3387L182.319 45.0973L182.186 44.856L182.12 44.5707L182.231 44.0659L181.701 44.0001L181.613 43.8465L181.348 43.649L181.105 43.8026L180.819 43.4953V43.3637H180.51L180.399 43.5392L180.113 43.6709L179.826 43.5392L179.605 43.3637L179.296 43.5831L179.517 43.8904V44.0659L179.671 44.3732L179.407 44.5048L179.451 44.856L179.252 44.9876L178.436 44.5926L178.193 44.6804L177.973 44.6365L177.818 44.7023L177.553 44.439L177.421 44.1318L177.73 43.7367L177.553 43.3856L177.2 43.5173L177.09 43.3198L177.134 43.1881L177.046 42.9248L177.134 42.7931L176.892 42.5736L176.737 42.6395L176.671 42.4858L176.781 42.2664L176.693 42.025L176.141 41.5641H175.987L175.833 41.3447L175.59 41.1252L175.678 40.9497L175.413 40.8399L175.259 40.5985L175.193 40.3571H175.458L175.678 40.2694L175.722 40.0938L175.634 39.9841L175.458 40.0499L175.524 39.6988L175.347 39.5452L175.149 39.5891L174.972 39.4574L174.752 39.1282L174.972 38.7771L174.707 38.5137H174.575L174.2 38.1845H174.024L173.671 37.8554L173.56 37.8993L173.34 37.8115L173.141 37.5701H173.031L172.854 37.7676L172.612 37.8554L172.479 37.8115L172.192 37.9651L172.016 37.7895H171.729L171.531 37.5481H171.288L171.045 37.3506L170.913 37.1092V36.9556H170.67L170.582 36.8239L170.273 36.8678L170.141 36.8239L169.942 36.9117H169.655L169.346 36.8239L169.038 37.0214V37.2189L168.64 37.3067V37.4823L168.442 37.7456H168.265L168.199 37.8993L168.243 38.1187H168.111L167.934 38.0309V37.8993H167.515L167.339 38.2723L167.052 38.0968L166.831 38.1845L166.677 38.0748L166.434 38.2065L166.39 37.987L166.28 37.7895L166.324 37.5042L166.28 37.2848L165.971 37.2189L165.794 37.0653L165.596 37.1312L165.375 37.0434L165.044 37.1751L164.691 37.1092L164.449 36.9117V36.78L164.25 36.6484V36.4947L164.405 36.407L164.272 36.1217L163.963 36.2534V36.0558L163.831 35.9461H163.61L163.346 35.6608L163.081 35.7925V36.1217L162.816 36.2095L162.728 36.0778L162.551 36.1875H162.265L162.11 36.0339L161.713 35.8803L161.47 35.9461L161.25 36.0778L160.963 36.4728L161.051 36.6703L160.897 36.9776L160.632 36.6045L160.08 36.4289L159.926 36.5606L159.86 36.7361L159.485 36.8898L158.977 36.9556L158.867 37.1531L158.735 37.1092V36.8898L158.492 36.6923L158.757 36.4947V36.1875L158.382 35.9242L158.602 35.5511L158.316 35.4853L158.117 34.8269L157.72 34.4319L157.367 34.2563H157.212L157.058 34.1027L156.926 34.1466V34.3222L156.44 34.5416L156.33 34.1027L156.529 33.7296L156.749 33.576L156.396 33.1371L156.153 33.0274L155.977 32.764L155.778 32.5885L155.602 32.6543L155.514 32.764L155.183 32.7201L155.028 32.8079L154.852 32.6104L154.234 32.6763V32.2593L154.058 32.1057L153.969 32.2593L153.683 32.2154L153.594 32.1276L153.638 31.9082L153.506 31.579L153.197 31.0962H152.712L152.69 30.9865L152.315 30.8767L151.896 30.6353L151.741 30.2403L151.3 30.1964L150.969 30.2623L150.726 30.5256L150.572 30.4817L150.395 30.5475L150.086 30.4817L149.976 30.372L149.822 30.4378L149.601 30.372L149.711 30.1525V29.8892L149.91 29.8014L149.8 29.6697V29.2308H149.623L149.535 28.9894V28.6822L149.689 28.5286L149.932 28.0019L150.086 27.9141L150.131 27.6727L149.998 27.4971V27.3655L149.667 27.1241L149.535 26.751H149.248L149.005 26.5974L148.675 26.5096V26.2901L148.741 26.0926L149.094 25.6537L149.05 25.4782L149.116 25.2806L149.072 25.1709L149.248 24.754L149.403 24.6662V24.5126L149.204 24.4028L149.248 24.2273L149.138 24.0517L149.381 23.9859L149.513 23.5909L149.403 23.3275L149.601 23.1958L149.711 23.3933L149.822 23.3056L149.91 22.9983L149.822 22.7789L149.888 22.6472L150.241 22.4058V22.2741L150.064 22.1863L149.954 21.9449L149.778 21.9888H149.314L149.182 21.7913L148.917 21.9888L148.255 22.4058L148.079 22.9325L147.373 23.3056L147.196 23.5689L147.13 23.8323L146.998 23.9639L147.086 24.1834L147.285 24.2712L147.218 24.4248L147.086 25.0392V25.6098H146.865L146.314 25.8293L145.917 25.8732H145.762L145.409 26.0048L145.277 26.2243H144.946L144.681 26.6193L144.461 26.7729H144.042L143.512 26.9924L143.071 26.751H142.718L142.563 26.5974L142.409 26.6632H142.1L141.857 26.3779H141.637L141.438 26.2462L141.284 26.334H140.821L140.468 26.4218L140.335 26.5096L139.762 26.5535L139.806 26.2901L139.519 26.1804L139.475 26.0926H139.034L139.276 25.6537L139.011 25.4562L138.857 25.1929V25.0612L139.056 24.7978L139.254 24.4028L139.409 24.4687L139.717 24.4028L139.784 24.2273L140.07 24.1175L140.225 23.9859L140.269 23.8103L140.181 23.525L140.026 23.3275L139.828 23.1958L139.762 23.0422L139.85 22.8667V22.6253L139.762 22.3839L139.541 22.4277L139.166 22.3839L139.122 22.5594H138.967L138.725 22.3839L138.857 22.2083V22.0108L139.144 21.7474V21.528L139.034 21.506L139.144 21.2646L139.21 20.8477L139.078 20.6282L139.387 20.4746L139.519 20.1235L139.695 19.9479H139.828L140.093 19.6846V19.531L139.916 19.2237L139.806 19.1579H139.453V18.9384L139.254 18.8287L139.166 18.9165L139.078 19.1798L139.342 19.3554V19.509L139.078 19.5748L138.835 19.3554V19.1359H138.681V18.5654L138.482 18.4776L138.283 18.2142L138.019 18.2581V18.0387L137.798 17.8192L137.644 17.7753V17.6217L137.357 17.512L137.269 17.2486L137.092 17.2047L136.982 17.3803L136.717 17.4242L136.563 17.5339L136.342 17.3803L135.46 17.885L135.327 17.9289L135.173 17.8192L135.084 17.6436L134.952 17.6875L134.754 17.5778L134.555 17.3364L134.401 17.2925L133.805 17.3803L133.452 17.3364L133.275 17.4681L133.033 17.4022L132.922 17.49L132.856 17.7314V18.1045L132.746 18.2581L132.525 18.1484L132.614 18.3898L132.503 18.5215L132.283 18.2801L132.15 17.9728L131.974 17.7753L132.04 17.6656L131.863 17.512V17.1828L131.775 17.0511V16.8975L131.996 16.5244V16.2172L131.93 15.7344V15.3613L131.819 15.2516V14.9444L131.731 14.7907H131.577L131.356 14.3957L131.025 13.9788L130.694 14.1324L130.496 14.0007H130.076L129.768 14.0227L129.415 14.2202L129.348 13.9349L129.657 13.6057V13.3204L129.481 13.2107L129.282 13.2546L129.04 13.1229L128.709 13.4521L128.598 13.7593L128.466 13.6496L128.334 13.7813L128.025 13.9129L127.76 13.9568L127.561 14.1104L127.341 13.8032L126.966 13.6935H126.855L126.723 13.4521L126.48 13.4082L126.238 13.2765L126.039 12.5084L126.083 12.1792V11.7403L125.951 11.2575L125.73 10.9942L125.796 10.8406L125.576 10.5772L125.642 10.3578L125.51 10.1603V9.91886L125.885 9.72135L125.708 9.43606L125.841 9.39217V9.15077L125.598 8.86548H125.201L125.046 8.73381L124.892 8.68992L124.804 8.51436L124.87 8.31685L124.715 8.22907L124.605 7.87794L124.23 7.3293L124.12 7.04401L123.833 7.1318L123.59 6.93429L123.48 7.21958L123.105 7.43903L122.818 7.26347L122.509 7.3732L122.443 7.50487H122.09L121.803 7.74627L121.605 7.83405L121.494 7.96572L121.296 7.89989L120.987 8.09739L121.075 8.38268L120.877 8.49241V8.88743L120.744 9.06299L120.524 9.10688V9.30439H120.369L120.171 9.0191L119.928 9.10688L119.685 8.82159L119.597 8.64603L119.332 8.71187L119.178 8.82159L119.046 8.7777L118.737 8.51436L118.56 8.00961L118.384 7.92183L118.251 7.70238L118.318 7.52681L118.185 7.3732L117.942 7.24152L117.788 7.02207L117.744 6.82456L117.788 6.649L117.678 6.53927H117.082L116.928 6.38565L116.751 6.53927H116.442L116.31 5.99064L116.178 5.9248V5.70534H115.979L115.913 5.57367L116.111 5.33227L116.023 5.06893L116.089 4.98115L116.023 4.76169L116.089 4.58613L116.001 4.36668L116.067 4.235L116.001 4.08138L115.803 4.01555L116.155 3.70831L116.2 3.5108L116.442 3.37913L116.045 2.52326V2.30381H115.869L115.538 2.04046V1.79906L115.361 0.745683V0.592065L115.119 0.0214844L114.523 0.306775L113.31 0.789574L112.736 0.943192L112.361 0.85541L112.184 0.899301L112.096 0.789574H111.92L110.927 1.09681L110.155 1.3821H109.78L109.802 1.73323L109.647 1.77712L109.736 2.1063H109.625L109.559 1.88684L109.449 1.68934L109.096 1.64544L108.831 1.77712L108.787 1.88684L108.346 2.08435L107.993 1.99657L107.684 2.06241L107.573 2.21603L106.823 2.30381L106.559 2.36964L106.184 2.52326L105.985 2.45742L105.566 2.56715L105.345 2.76466H105.014L104.75 2.8305L104.507 2.98411L103.779 3.15968L103.073 3.48886L102.61 3.83999L102.367 4.12528L102.102 4.52029L101.595 5.00309L101.043 5.17865H100.712L100.668 5.48589L100.845 6.21009V6.25398L101.021 6.73678L101.087 7.08791L101.021 7.19763L101.087 7.54876L100.933 7.98767L100.889 8.49241L100.448 8.68992L100.602 8.84354L100.536 9.06299L100.403 9.23856L100.448 9.58968L100.536 9.83108L100.646 10.6431V11.3014L100.69 11.8939L100.646 12.2012L100.712 12.4206L101.308 13.1448L101.396 13.4301L101.131 13.2985L100.933 13.2546L100.756 13.0351L100.646 13.5618L100.602 14.6152L100.448 15.8002L100.337 16.1294V16.3269L100.536 16.3928L100.69 16.6122V16.7439L101.043 16.8317L101.176 16.9853L101.374 17.0731L101.22 17.2047L100.536 17.2486L100.359 17.1389L100.293 17.3145V17.7095L100.117 18.9384V19.2237L100.249 19.3334V19.531L100.448 19.6187L100.823 19.6626L101.087 20.0796L101.242 20.3868L101.396 20.5843L101.705 20.4965L102.19 20.6941L102.345 20.9135L102.19 21.0452L102.367 21.1988L102.19 21.4841L101.948 21.528L101.815 21.4621L101.683 21.2646L101.44 21.1549H101.22L100.933 21.2866L100.514 20.9574L100.403 20.6502L100.183 20.6063L99.9621 20.6721L99.7857 20.8038L99.5209 21.111L99.2782 21.5719L98.837 22.9983L98.5061 23.3714L97.9325 23.7664L97.7339 24.0078H97.5574L97.4692 24.1614L96.9838 24.4467L96.7191 24.754L96.5205 24.8856L95.8587 25.544L95.4836 25.8732L95.1968 25.9829L95.1086 26.1804L94.8438 26.3121L94.5129 26.5535L93.9172 26.8388L93.6745 27.0143H93.4319L93.0789 27.2557L92.4832 27.4752H92.3729L91.5346 27.4094L91.336 27.4971L91.0492 27.6946L90.2108 27.9799L89.7475 28.1116H89.5931L89.3063 28.2652L88.9313 28.4408L88.6224 28.5286L88.0047 28.5725L87.7399 28.5066L87.2546 28.6383L86.7251 28.7041L86.2838 28.8358L86.1294 28.9455L85.6661 29.0553L85.2028 29.3186L84.7616 29.7356H84.6513L84.3865 29.977L83.857 30.2623L83.5261 30.5037L82.8201 30.8767L82.5333 30.9645L82.401 31.2059L81.9377 31.5131L81.7171 31.6009L81.6068 31.557L81.3641 31.6229L80.8125 31.974L80.636 32.0618L80.1507 32.1935L79.5109 32.8299L79.4668 33.2249L79.3565 33.3785V33.7516L78.9593 34.6294L78.6725 35.1122L78.5402 35.4414L78.2754 35.9681L78.0769 36.4947L78.0327 36.7581L78.0989 36.9117L78.3637 37.0434L78.4299 37.2848V37.4603L78.7387 37.7237L78.6505 37.9212L78.8049 38.0309L79.9301 38.1626H80.261L80.5037 38.2065L81.2096 38.3162L81.5626 38.4479L82.0921 38.404L82.4672 38.3382L82.5113 38.4698L81.7391 38.6235L81.2538 38.6673H80.3933L79.6653 39.0404L79.4668 39.0843L78.9373 39.2818L78.7387 39.4354L78.3195 39.9402L78.0989 40.1377L77.7459 40.5108L77.1503 40.9716L76.2237 41.4105L75.9589 41.4983L75.7383 41.7178L75.6059 41.6739L74.9662 41.8714L74.4367 41.9592H73.6866L73.6645 42.0689L73.3556 41.8933V41.7836H73.0247L72.6717 41.6739L72.407 41.5422L71.9658 41.235L71.5907 41.0155L70.973 40.7961H70.4876L69.9581 40.7083L69.4948 40.5766L68.7447 40.5327L68.1049 40.6644H67.7299L67.5093 40.5547L66.4724 40.4888H66.2297L65.1266 40.3571L64.4427 40.2035L63.9353 39.9841L63.5382 39.7646L63.2955 39.5232L63.0087 39.4135L62.5895 39.3696H62.038L61.4643 39.5452H61.0672L60.8025 39.6988L60.3392 40.2255L60.4054 40.423L60.3613 40.5327L60.0745 40.3133V40.0719L59.7215 40.2035L59.4567 40.0719L59.5008 39.8085L59.6994 39.6988L59.7435 39.5013L59.6773 39.1721L59.3023 38.5796L58.8831 38.0748L58.2875 37.2848L58.0889 36.9556L57.8021 36.5167L57.5374 36.0558L57.4932 35.8364L57.5815 35.2658L57.7138 35.0464L57.8903 34.9586L58.133 35.0683V34.8269L58.3316 34.4099H58.4198L58.7287 34.5416V34.1466L58.5081 33.5541L58.5522 33.4663L58.3757 33.2468L58.0889 32.764L58.1771 32.5885L58.0889 32.4787L57.8242 32.5446L57.2947 32.4129L57.1844 32.3251H56.9858L56.7873 32.2593H56.2798L55.9268 32.3471H55.7503L55.3753 32.5665L55.0444 32.4349L54.9782 32.6104L55.0223 32.786L54.8679 32.8957L54.8238 33.1152L54.1619 33.4224H53.831L53.5883 33.3785L53.3677 33.4882L53.1691 33.4224L52.6396 33.3127L52.3087 33.3785H52.044L51.713 33.0932L51.5145 33.0274L51.338 32.8518L51.1836 32.9176H50.7203L50.3232 32.7201L49.926 32.6543L49.7495 32.5665L49.5289 32.1276L49.2642 32.0179L49.0656 32.2154L48.8891 32.2593L48.6906 32.1276V32.0398L48.47 31.8423L48.2273 31.7765H48.0067L47.9184 32.2373L48.0949 32.5446L48.0508 32.764L47.9625 32.8518L48.2052 33.0932L48.4258 33.2029H48.6685L48.8229 33.3346L49.0656 33.4004L49.2642 33.598L49.4407 34.1905L49.5069 34.6952V35.2439L49.4407 35.5072L49.2642 35.8144L48.8671 36.0558L48.8229 36.1875L48.8891 36.5167L48.9994 36.6484L49.3524 36.78L49.4407 37.1531V37.6798L49.6392 37.8773L49.7495 38.2065L49.7937 38.8868V39.2379L49.8378 39.5232L50.0143 39.9621H50.1908L50.5438 39.7866L50.4776 39.9841L50.6541 40.1596L51.0512 40.6424L51.2718 40.9936L51.4924 40.7961H51.6248L51.7572 40.9936L51.5366 41.213L51.8454 41.8933L52.2205 42.5297L52.3749 43.0784L52.5293 43.4076L52.7499 43.649V43.4295L52.9926 43.2539L53.125 43.4076L52.9485 43.4734L53.1029 43.7806L53.0368 43.9562L53.1691 44.5707L53.2132 45.251L53.2574 45.3607L53.0368 45.9971L52.9926 46.2166V46.7871L53.0588 46.8749L53.1912 47.8186L53.3456 48.3014L53.5442 48.4769L53.478 48.1258H53.8089L53.7207 48.3014L53.7648 48.7622L53.6986 48.9597V49.7717L53.9192 49.8156L53.6545 50.2326L53.5442 51.0665L53.4339 51.6371L53.3456 51.9224L53.1471 52.0979L52.9706 52.1638L53.0368 52.2954L53.1912 52.2077L53.5 52.493L53.5883 52.888V53.6561L53.5221 54.073L53.5662 54.2925L53.6986 54.4461L54.184 54.5778L54.3384 54.8192L54.4046 55.1922L54.5149 55.3678L54.5811 55.6092L54.8458 55.5653L55.0664 55.697L55.1767 55.8506L55.3974 55.9164L55.4415 56.2237L55.5518 56.2676L55.6621 56.0262L56.2357 55.8067L56.324 55.8945L56.1475 56.1139L56.2136 56.3773H56.4563L56.6328 56.6187H56.3901L56.324 56.5309H56.1033L55.7724 56.6845L55.4635 56.9259L54.9561 57.1234L54.7134 57.0795L54.4046 57.1234L54.3605 56.9259L54.0075 56.8381L53.5883 56.9479L52.1763 57.3209H51.8454L51.6469 57.3868L50.5438 57.4746L49.9481 57.3648L49.6172 57.2551L49.3966 57.0795L49.1098 56.5309L49.2421 56.2456V56.0262L49.4186 55.9603L49.6172 55.7848L49.4627 55.5434L49.4186 55.28L48.9774 55.4117L48.845 55.302L48.5803 55.5214L48.0949 55.4336L47.9625 55.5434V55.697L47.764 55.7409L47.5654 55.6531L47.3448 55.7189V55.8725L47.1904 56.2017L46.9036 56.3773L46.683 56.4431L46.8153 56.7943L46.9477 57.0137L46.8595 57.1454L47.0359 57.3648L46.9477 57.6062L47.1021 57.694H47.4551L47.8081 58.0451L47.6978 58.111L47.3889 57.8696L47.3228 57.9135L47.411 58.1768L47.5213 58.2646L47.5654 58.506L47.7199 58.6816L47.5875 58.923L47.8743 59.0107V59.1424L47.6537 59.1863L47.5654 59.4935L47.3448 59.4058V59.1863L47.5213 59.0546V58.7693L47.3007 58.7474L47.2345 58.4402L47.1242 58.2427L46.9918 58.1549L47.2124 58.0013L47.1683 57.8696L46.9036 57.7818L46.8153 57.5623L46.6609 57.4307V56.9698L46.3079 56.904L46.4403 56.6626L46.2858 56.5967L45.7122 56.7504L45.4034 56.6406L44.8739 56.882L45.0504 56.9698V57.1673L44.8739 57.1234L44.8298 57.3209L44.6312 57.4526V57.716L44.7636 57.8476L44.4988 58.089L44.3444 57.9793L44.3885 57.716V57.4087L44.19 57.5623L44.2562 57.6721L44.1017 57.9574L43.9252 57.694L43.7708 57.6501V57.4746L43.6826 57.2771L43.4619 57.1234L43.5281 56.9698L43.3516 56.7723L43.484 56.5748L43.2413 56.509L42.7118 56.9259L42.4912 57.2112L42.1382 57.0137L42.4692 56.7504L42.5133 56.509L42.6898 56.3334L42.8663 56.0042L42.5795 55.9603L42.4692 55.8725L42.403 55.5434L42.1603 55.9384L42.0059 56.0042L41.697 56.2895L41.344 56.3553L41.2116 56.5748L40.9028 56.6187L40.8587 56.487L40.5498 56.3553L40.3292 56.4651L40.1086 56.4212L39.9762 56.5309L39.91 56.7065L40.1086 56.7943L39.9321 57.1015L39.6232 57.3648L39.1599 57.5843L38.8069 57.716L38.0789 58.6157L37.6156 58.9668V59.2082L37.4832 59.296L37.2846 59.2521L37.1523 59.0766H36.8655L36.9537 59.3838V59.6252L36.5787 59.5813L36.5345 59.4496L36.2036 59.1424L36.336 59.0107L36.2477 58.7693L36.336 58.5718L35.7403 58.3524L35.4976 58.1988V58.089L35.3432 57.8915H35.1226L34.9902 57.7379L34.7917 57.694L34.7475 57.5623L34.902 57.3429L34.7696 57.0357L34.8137 56.8601L34.7255 56.7504L34.7917 56.5529L34.7255 56.3115H34.571L34.4828 56.1359L34.3284 56.0701L34.2401 55.8945L34.1298 55.9603L33.9313 55.8945L33.8209 55.675L33.8871 55.5434L33.7768 55.3459H33.6224L33.2253 55.0825L32.9385 54.7094L33.137 54.468L33.0047 54.3144L33.1591 54.1169L32.9826 54.0072L32.8502 53.8316L32.4311 53.8975L32.1884 53.8097H31.9016L31.7471 53.5902L31.703 53.3927H31.5265V53.261L31.7692 53.2172L31.9457 52.866L31.8795 52.7563L31.9236 52.5149L31.5486 52.5807L31.35 52.6685L31.1956 52.5149L30.9088 52.7124L30.7323 53.1294V53.4366L30.622 53.5463V53.7877L30.269 53.8755V53.678L30.644 53.3488V52.9099L30.8205 52.7344L30.8867 52.5149L30.7544 52.2077L30.8867 51.9443L30.8205 51.7468V51.5054L30.2028 51.5493L30.1587 51.659L29.7616 51.8346L29.6733 51.7907L29.541 52.0321H29.4086L29.0556 52.6027L29.0997 52.2077L28.9453 52.0102V51.7468L28.857 51.4835H28.6364L28.5041 51.659L28.2393 52.1857L28.1069 52.2296L27.9746 52.054L27.7098 52.2516L27.3348 52.1418L27.1362 52.3613H27.07L26.8053 52.5588L26.4523 52.6466L26.3641 52.9099L26.2538 52.9977L25.7243 53.0855H25.5698L25.636 52.5588L25.3713 52.6685L25.1727 52.493L25.0845 52.2296L24.9962 52.1638L24.8197 52.3613H24.4006L24.2903 52.5368L24.1138 52.6466L24.1799 52.9758L23.8931 53.1733L23.7387 53.1074L23.6725 53.261L23.5181 53.3269L23.4298 53.5463L23.5402 53.9194L23.8049 53.9633L23.9593 54.1828V54.5339L23.496 54.7972L23.4519 54.9069L23.5181 55.3459L23.4519 55.4775L23.6946 55.5873L23.6284 55.8287L23.2975 55.9603H23.0769L22.9886 55.6531L22.8342 55.5873L22.5694 55.7848L22.415 55.6531L22.5694 55.4336L22.3929 55.3239L22.0841 55.5434L21.8855 55.4336H21.687L21.3781 55.1045L21.1795 55.0606H20.7383L20.4736 55.2581L20.2971 55.1483L20.253 54.9947H20.0544L19.9441 55.0825L19.7897 55.0167L19.6352 55.1703L19.4367 55.6311L19.5029 55.8067L19.569 56.1578H19.4587L19.4146 55.8945L19.2822 55.9384L19.569 56.9259H19.4146L19.3043 56.7723L18.8631 56.5748L18.6866 56.2456V56.1139L18.4439 55.8725L18.2895 56.2676H18.1791L18.0027 56.4212V56.1359L17.8041 55.8506L17.7158 55.6092L17.782 55.4995L17.6276 55.3239L17.6717 55.0825L17.8041 54.8192H17.5835L17.2746 55.0606L17.1643 54.8411L17.054 55.0386H16.7451L16.7231 55.2142H16.5245L16.4363 55.5653L16.3039 55.6311L16.1495 55.5434L15.5759 55.4336L15.0684 55.4995L14.7154 55.6531H14.561L14.3625 55.8506L14.1198 56.0481L14.0757 56.3115L14.2522 56.4431L13.833 56.487H13.1932L13.0388 56.6626H12.6416L12.8843 56.1359L12.6196 55.9823L12.4431 56.092L12.399 55.8287L12.0901 55.8725L11.693 56.1578L11.34 56.3334L10.8105 56.3992L11.0091 56.5529L10.8326 56.7723L10.7223 56.6626L10.4796 56.904L10.1707 57.0357H9.90598L9.75155 57.0795L9.68536 56.8381L9.50887 56.7723L9.44268 56.904H9.15588L9.2 57.0357L8.89114 57.0795L8.80289 57.3868H9.00145L9.2 57.6282L8.97939 57.716L8.89114 57.6282L8.60434 57.716L8.56021 57.5404L8.36166 57.4087L8.20722 57.6721L8.27341 57.8915L8.22929 58.1549L8.14104 58.2207L7.83217 58.1329L7.72187 58.2207H7.28063L7.14826 58.3524L6.9497 58.2865L6.83939 58.3743L6.72909 58.5938L6.53053 58.506L6.33197 58.7035L6.11136 58.8571V59.0107L5.95692 59.1424V59.3619L5.86868 59.6252L5.75837 59.691V59.9105L5.86868 60.3714L6.00105 60.503L5.69218 60.9419L5.73631 61.0956L5.626 61.2492L5.58187 61.5345L5.4495 61.7539L5.626 61.9953H5.75837L5.71424 62.3245L5.9128 62.4781V62.7415L5.69218 62.9829L5.64806 63.1584L5.80249 63.2681L5.71424 63.5315L5.80249 63.7071L6.68496 63.6632L6.81733 63.4657V63.2462L7.1262 63.1145L7.43506 63.2462L7.56743 63.3559H7.6998L7.89836 63.5095H8.18516L8.53815 63.2681H8.73671L8.93526 63.1145L9.02351 62.939L9.24413 63.0487L9.79567 62.5878L10.1487 62.4781L10.3031 62.522L10.7885 62.4562L11.0311 62.1709L11.34 62.4123L11.1856 62.522L11.0311 62.7854L10.8546 62.8731L10.6561 63.2243L10.7223 63.3998L10.5678 63.5095V63.7729L11.0311 63.5973V63.7948H11.5386L11.7371 63.729L11.8033 63.334L12.1122 63.3779L12.3107 63.1804L12.3769 63.4218L12.752 63.3559L12.7078 63.1365H12.9946L13.0388 63.312L12.8181 63.4876H12.6637L12.3107 64.0143H12.6858L12.8843 64.0801L13.0608 64.0143L13.2152 64.146L13.855 64.4093H14.4066L14.0977 64.5629H13.8992L13.7889 64.519L13.3476 64.8043L13.1049 64.8482L12.9946 64.7385L13.1932 64.4313H12.6858L12.2445 64.6727H12.0018L11.8474 64.8263L11.5606 64.8921H11.1856L10.9208 64.541L10.4355 64.4971L10.0163 64.7165L9.77361 64.7604L9.59712 64.4532L9.79567 64.2118L9.68536 64.1021L9.48681 64.541L9.28825 64.6946L9.02351 64.4532L8.97939 64.2557L9.11176 64.124V63.7948L9.33237 63.4657H8.97939L8.86908 63.6412L8.64846 63.7729V63.9265L8.82495 64.6068L8.78083 64.7385L8.51609 64.8921H8.42784L8.22929 64.6507L8.09692 64.9141L8.05279 65.2213H8.25135L8.38372 65.4188L8.75877 65.3749L8.95732 65.3091L9.0897 65.4188L9.13382 65.6163L8.86908 65.8797L8.93526 66.143L9.04557 66.3186L9.0897 66.9989L8.97939 67.0866L9.04557 67.3061H9.2L9.24413 67.0208L9.57505 66.7794L9.61918 66.4722L9.72949 66.2747L9.92804 66.121L9.77361 66.0113L9.86186 65.8358L10.3913 65.7041L10.612 65.7699L11.3179 66.121H11.6489L11.7812 66.4502H12.3328L12.6416 66.6258H12.752L12.9505 67.0866L12.8623 67.35L12.9064 67.5036L13.2152 67.5694L13.2814 68.0522L13.0608 68.2278L13.127 68.4034L13.0388 68.7326L12.7299 69.0398L12.5093 68.974L12.2225 68.7764H12.068L11.9136 68.6009H11.7371L11.5827 68.6667L11.2297 68.7106L11.1414 68.6228L10.8326 68.8423L10.5678 68.7984L10.1707 68.8642L9.99423 69.0617L9.64124 68.9959L9.50887 69.0617L9.26619 68.9959L9.04557 69.2812L8.84702 69.1715H8.6264L8.42784 69.3031H8.22929L8.11898 69.4348L7.72187 69.5006L7.39094 69.4568L7.17032 69.6323L6.59671 69.5884L6.75115 69.8957V69.9834L6.26579 70.0932L6.44228 70.2468H6.68496L6.88352 70.4004H7.39094L7.47919 70.4882H7.6998L7.83217 70.3346L8.00867 70.5979L8.36166 70.6418L8.56021 70.8613L8.93526 70.971L8.97939 70.7735L9.24413 70.7076L9.3765 70.8393H9.57505L9.77361 70.9271L10.1045 71.1685L10.1487 71.2782L10.5458 71.4099L11.0311 71.8927L11.1856 72.2658L11.4944 72.6169L11.8474 73.4508L12.0018 73.9556L12.1122 74.4603V74.7017L11.9357 74.8553H11.8033L11.5827 75.0089L11.715 75.1845L11.6709 75.4698L11.8033 75.5356L12.1342 75.4479L12.4651 75.4917L12.6196 75.4259H12.8181L12.9284 75.6015L13.2594 75.6454L13.7668 75.5795L13.9212 75.6234L14.208 75.4479L14.3845 75.5356L14.8258 75.1406L14.8699 74.9431V74.6359H14.6493L14.3404 74.175V73.7361L14.539 73.6483L14.6934 73.7581V73.9336L14.8478 74.3067L15.2008 74.0653L15.5759 73.8678L15.4655 73.5605L15.0905 73.2314L15.0464 72.8802L15.3111 72.4633H15.5097L15.62 72.3536L15.5759 72.156V71.8049L15.8406 71.6074V71.9585L15.642 72.0463V72.1999L15.5759 72.4413L15.3111 72.4852L15.1787 72.6388L15.0905 72.9241L15.1346 73.1216L15.267 73.1655L15.3994 73.385L15.5317 73.4728V73.6264L15.7303 73.7581L15.7965 73.9336L16.2598 73.9995L16.5025 74.1311L16.6569 74.3286L16.8775 74.2189L17.6276 74.1311L17.5173 73.9336V73.6264L17.429 73.4728L17.5173 73.2314L17.8703 73.1436L18.0688 73.2753V73.363L18.3115 73.5167V73.7142L18.5321 73.7581L18.7307 73.9775L18.5763 74.0653L18.7969 74.2409L18.7307 74.4823L18.8631 74.5261L19.2822 75.0748L19.4367 75.1845L19.569 75.4479L19.7235 75.3381L20.1206 75.404L20.275 75.5356L20.4515 75.4479H20.8486L21.1134 75.3601L21.2678 75.1845L21.8414 75.5795L22.04 75.777L22.3268 75.6893L23.0327 75.9526L23.1651 75.8868L23.5843 75.9965L23.6946 75.9306L24.1799 76.0843L24.2903 75.9965L24.4447 76.1062L24.7094 76.5012L24.7756 76.7865L25.1507 77.1596V77.2474L25.3713 77.379L25.5037 77.5766L25.7243 77.5107L25.8787 77.379L26.0331 77.4668L26.1876 77.401L26.4302 77.4449L26.6729 77.2693L26.7171 77.0938L26.6509 76.9621L26.9597 76.7646L27.0259 76.5671H27.3127L27.4672 76.3915V76.2379L27.754 76.0404V76.194L27.6878 76.4354H27.5775L27.4451 76.6987L27.07 76.7426L27.1142 77.1596H27.0039L26.8715 77.3132L26.9597 77.4229L27.1583 77.2913L27.4451 77.379L27.5995 77.3132L27.6878 77.4229H27.9525L28.0849 77.7302H27.8201L27.4451 77.4888L27.3789 77.5985L27.7981 77.7082L28.129 77.8838L28.6364 78.3008L29.1438 78.7616L29.3203 79.0469V79.1566L29.8719 79.5516L30.0263 79.793L30.1587 80.1222L30.2469 80.8245L30.1808 81.0878L29.9601 81.3951L30.0484 81.7023L30.0925 82.2509L30.3352 82.4265L30.5117 82.3387L30.6882 82.4484L30.9309 82.4923L30.7985 82.229L30.5117 81.9437V81.6584L30.3793 81.6145L30.3352 81.3073L30.269 81.1756V80.9342L30.3131 80.7586L30.4014 80.2978L30.3131 80.2539V79.7711L30.7544 80.1222L30.6882 80.2539L30.9529 80.4514L31.1735 80.3417H31.4383L31.5045 80.1881L31.681 80.1442L31.8354 80.2758L31.9898 79.9467L32.1884 80.4075L32.409 80.3197L32.5634 80.1661L32.8282 80.6928L32.9164 80.605L33.2032 80.7147L33.3797 80.627L33.1591 80.3856L33.0708 80.1442H32.9385L32.8282 79.8808L32.9826 79.7272L32.784 79.5297L33.0488 79.2005L33.1591 79.7053L33.3797 79.6394V79.9686L33.7106 79.8589L33.843 80.0344L33.9974 79.5736L34.3063 79.7272L34.3725 79.5955L34.2401 79.4858L34.4166 79.3102V79.1347L34.6814 79.2664L35.0785 79.1347L35.2329 79.2225L35.5418 79.1347L35.5859 78.8933H35.8948L36.0051 79.1127L35.6521 79.0469L35.6079 79.1786L35.9168 79.2664L36.3139 79.6175L36.4684 79.5078L36.6449 79.5736L36.8434 79.3541L36.6669 79.1566L36.4904 79.0688L36.6228 78.6519L36.7552 78.7616L36.711 78.8933L36.8875 78.9811L36.9537 79.2883L36.8655 79.42L36.9096 79.793H36.711L36.358 80.3856L36.2477 80.627L35.9609 80.9342L35.5418 80.8903L35.6079 80.7367L35.4756 80.627L35.255 80.7367L35.1447 80.627L34.8799 80.5611L34.9682 80.8245H34.6152L34.549 80.7147L34.1298 80.5831L34.0636 80.3636L33.8651 80.5831L33.6886 80.4733L33.5783 80.8464L33.7106 80.9342H33.9754L34.1519 81.0439L34.3284 81.1975L34.3946 81.3731L34.571 81.5267L34.5269 81.834L35.1005 82.0973L35.4094 82.0534L35.5859 81.8998H35.9168L36.2257 81.7023H36.5345L36.9978 81.8998L37.2846 81.6145L37.3508 81.417H37.7038L37.7479 81.2853L37.6818 81.1317L37.3067 80.9342L37.395 80.7586L37.6156 81L37.7921 81.0439L38.0347 81L37.9465 80.7586H38.0789L38.123 80.9342L38.2333 81.0878L38.4319 81L38.5863 80.7147L38.476 80.4733L38.5201 80.3636L38.7848 80.5831L38.6525 80.7586L38.6083 80.9561L38.4539 81.1756L38.2333 81.2414L38.1892 81.417L38.4539 81.3731L38.7407 81.417L38.9613 81.5267L39.1158 81.2634L39.4688 81.1756L39.7114 81.2634L39.7776 81.417H39.9762L40.263 81.5048L40.616 81.7901L40.4615 81.9876L40.285 82.0534L40.0865 81.9218L39.8438 81.8559L39.7114 82.0315L39.91 82.4265L39.8217 82.6459L39.6894 82.6898L39.8659 82.9971L40.0203 83.0849L40.2189 82.9093H40.3512L40.5057 83.1507L40.3292 83.436L40.5939 83.5457L40.5277 83.7652H40.285L40.1747 83.6335L39.8659 83.7652L39.3805 84.1602L39.182 84.3796L38.851 84.4894L38.8069 84.5552L39.0275 84.7747H39.2261L39.557 85.2136L39.6453 85.6525V85.8939L39.9321 85.9158L39.9762 86.0694H39.7114V86.2011L39.9321 86.3108L39.7335 86.4645L39.5129 86.245L39.3585 86.1572L39.0496 86.245V86.3986L39.3805 86.4864L39.7556 86.64L39.8217 86.7497L40.1527 86.8814H40.3292L40.4615 87.035L40.7704 87.1228L41.0131 87.057L40.8807 86.8595L40.9469 86.7497L41.2116 86.662H41.4984L41.8735 86.8375L42.2485 87.3203L42.778 87.6934L42.8883 87.6276H43.2193L43.3516 87.3642L43.5502 87.2106L43.9032 87.1667L43.9473 86.9692L44.19 86.8814L44.543 86.6181L44.6092 86.3328L44.8518 86.9253H44.7195V87.3642L44.6753 87.6056L44.5209 87.7153L44.8298 88.1762L44.8739 88.5054L44.7856 88.9882L44.6092 89.3832L44.3003 89.3393L43.8811 89.4929L43.837 89.6685L43.5502 89.8879L43.8591 89.9538L43.9694 90.0635L44.6092 90.1513L44.8518 90.2829L45.1166 90.3707H45.3593L45.6461 90.4146L46.4623 90.7438L46.6609 91.1169L47.1904 91.4899L47.2786 91.6436L47.5213 92.2141L47.2786 92.4117L47.0801 92.4555L46.7933 92.6531L46.7491 92.8506L46.5065 93.3114L46.5506 93.5089L46.352 93.9039L45.624 94.5842L45.4475 94.8256L45.3151 95.1987H45.1607L44.8739 95.3523L44.9842 95.7035L45.0283 96.0985V96.7568L45.1607 96.9105L45.4254 97.1299L46.2197 97.6785L46.9036 98.293L47.5434 98.9953V99.3025L47.764 99.5659L48.0508 99.522L48.2935 99.8073L48.5803 100.246L48.6465 100.444L48.9333 100.839L49.1539 100.97L49.198 101.146L49.4186 101.343L49.551 101.892L49.8599 102.748L49.9702 103.253V103.494L50.0805 103.845L50.279 103.977L50.5217 103.845L50.7203 103.955L50.9188 104.262L51.338 104.526L51.5807 104.613L51.6469 104.789L51.8675 104.921L52.397 105.14L52.4852 105.425L52.7499 105.469L52.8823 105.579L53.2353 105.623L53.5442 105.711L54.0957 105.754L54.206 105.667L54.5811 105.776L54.8679 106.062L55.1326 106.588L55.265 107.071L55.7503 107.159L55.8827 107.005L56.2578 107.137H56.5666L56.8093 106.983L57.405 107.466L57.6477 107.971L57.78 108.168L58.0448 108.344L58.3316 108.41L58.5301 108.212L58.839 108.542L59.0817 108.673L59.1699 108.542V108.3L59.3685 108.059L59.6112 107.839H59.9421L60.2951 107.971V108.168L60.4274 108.805L60.2951 109.024L60.1627 109.09L60.1186 109.288L59.898 109.441L59.6773 109.727L59.5008 109.77L59.2802 109.946L59.1699 110.165L59.2802 110.363L59.1699 110.582H59.0596L58.9714 110.802L58.8169 110.977L58.6625 111.043L58.8831 111.372H59.2802L59.4567 111.285L59.8097 111.197V111.46L60.0303 111.768L60.3171 111.811L60.3833 111.987L60.273 112.338H60.5157L60.7363 112.514L60.8246 112.821V113.194L60.9128 113.37H61.1114L61.3099 113.479L61.3982 113.743L61.332 113.962L61.4423 114.247V114.423L61.332 114.642L61.0452 114.577L60.7584 114.73L60.8025 114.862L60.979 114.95V115.235L61.0893 115.388L61.2437 115.454L61.707 115.301L61.8173 115.388L61.2658 115.586H61.0231L60.7804 115.542V115.762L61.0672 115.849L61.1334 116.266L61.0011 116.683L60.7363 116.947L60.6701 117.232L60.4274 117.539L60.0524 117.473L59.9862 117.693L59.8318 117.649L59.7435 117.846L59.898 117.89L59.9641 118.132L60.1186 118.285L60.2289 118.856L60.3171 119.009L60.7363 119.47L61.2658 119.821L61.5967 120.151V120.216L61.0452 119.712L60.7142 119.514L60.2509 119.053L60.0965 118.856L59.898 118.746L59.6332 118.9L59.3023 119.009L59.0376 118.9L58.7507 119.031L58.5743 119.207L58.6625 120.743L58.7949 121.05L59.1258 120.985L59.4347 121.226L59.8759 121.489L60.3833 121.95L60.7804 122.17L61.1334 122.301L61.5967 122.652L61.9497 122.587L62.0821 122.762L62.038 123.025L62.3027 123.069L62.413 123.399L62.8101 123.969L63.0528 124.079L63.2072 123.969L63.5161 124.167L63.6926 124.518H63.847L64.0456 124.649L64.1779 124.825L64.5309 124.979L64.6633 125.176L64.9501 125.374L64.8398 125.439L65.1266 125.791L65.2148 125.747L65.5458 126.273L65.612 126.23L65.9429 126.844L66.1194 127.327L66.5386 128.973L66.7812 130.158L66.8474 130.706L66.9577 131.233L67.2225 132.221V133.011L67.5534 133.691L67.6858 134.152L67.9505 134.503L68.1491 134.679V134.876L67.9946 134.942L67.774 134.766L67.6416 134.81L68.1049 135.337V135.403L67.4872 134.766L67.399 134.547L67.1783 134.262L67.046 134.152L66.9357 133.932L66.5386 132.791L66.3841 132.44L66.1414 131.738L66.0753 131.453V130.794L65.9208 130.18L65.7664 129.653L65.2369 128.49L65.1266 128.314L64.5751 127.722L64.0897 127.349L63.7367 127.151L63.6485 126.954L63.494 126.8L63.3175 126.493L62.7219 126.186L62.3689 125.9L61.9056 125.461L61.8394 125.352L61.5747 125.198L61.3099 124.979L61.2217 124.781L61.3761 124.43H61.5526L61.6629 124.276L61.4864 124.211L61.3761 124.079V123.881L61.1996 123.794L60.9569 123.859L60.8687 124.035L60.8025 124.386L60.3392 125.001L60.0524 125.593L60.0083 125.944L60.0745 126.493L59.9421 127.063V128.139L59.898 129.565L59.7656 130.684L59.7215 131.123L59.6332 131.957L59.5008 133.274L59.3905 134.657L59.3464 134.986L59.214 136.654L59.0155 138.343L58.9714 138.87L58.8611 139.66L58.7728 140.406L58.6404 141.262L58.4639 142.667L58.4198 143.501L58.5301 143.764H58.6404V143.523L58.7066 143.281V142.776L58.7728 142.491L58.9714 141.964L59.2582 141.767L59.4567 141.504V141.372L59.7215 141.174V140.977L59.6112 140.889L59.7656 140.582H59.8759L60.0303 140.779L60.6922 141.218L60.8466 141.35L61.2879 141.855L61.4864 141.986L61.6408 142.206L61.4423 142.25L61.5526 142.491L61.8394 142.557L62.038 142.754L61.8835 142.93V143.04L61.6188 143.193L61.1996 143.303L60.8025 143.215H60.2509L60.1848 142.974L60.0524 142.908H59.5891L59.3685 143.04L59.2361 143.391V143.742L59.1479 144.225L58.9493 144.664L58.5743 145.256L58.486 145.563L58.4419 145.893L58.5522 146.178V146.397L58.4639 147.495L58.1771 149.931L57.8683 152.037L57.7138 153.244L57.427 154.846L57.3388 155.241L57.0741 156.58L57.0079 156.778L56.699 158.401L56.4122 159.652L56.0813 161.013L55.7062 162.944V163.383L55.5959 163.8V163.976L55.4856 164.349L54.912 165.534L54.4487 166.412L54.3825 166.609L54.1178 167.092L53.831 167.311L53.7868 167.509L53.3015 168.387L52.9706 168.562L52.9044 168.716L52.6396 168.913L52.397 168.979V169.177L52.3087 169.264L52.0881 169.221V169.089L51.2277 169.44L51.0953 169.396L50.8747 169.506H50.4776V169.659L50.61 169.769L50.4555 169.967L50.7644 170.186H51.0071V170.362L51.2277 170.428L51.1615 170.691L51.338 171.108L51.5807 171.02L51.7351 170.823H51.9998L52.2425 170.713L52.4631 170.757L52.5955 170.866L52.7499 170.823L52.9485 170.998L52.8382 171.327L52.9706 171.744L53.1691 172.008L53.3015 171.964H53.5883L53.7868 171.898L53.9633 171.459L53.853 171.283L54.3384 171.174H54.7355L54.9561 171.437H55.0885L55.3974 171.635L55.7503 171.744H55.9268L56.1033 171.613L56.2357 171.657L56.6549 172.073L56.6108 172.183L56.699 172.403L56.5887 172.666L56.6549 172.798L56.5887 172.951V173.302L56.346 173.544V174.005L56.1254 174.114L56.2357 174.246L56.1695 174.553L56.0151 174.619L55.971 174.773L55.7724 174.97L55.4415 175.168L55.2871 175.409V175.563L55.7724 176.221L57.0741 176.594L57.2506 176.068V175.673L57.2947 175.519L57.2064 175.321L57.405 174.97L57.5815 174.861L58.2213 174.729H58.3536L58.0227 175.102L57.8462 175.453L57.78 175.673L57.8242 175.782L58.0889 175.87L58.3316 176.046L58.4419 176.265H58.6846L58.9493 176.024L59.214 176.133L59.6773 176.484L59.7877 176.375L59.9421 176.441L60.2289 176.66L60.273 176.967L60.7363 176.726L60.8907 176.858L61.1334 176.923L61.0893 177.099L61.2879 177.209L61.707 177.253L61.9938 177.318L62.1483 177.253L62.3027 177.384L62.3909 177.626L62.6777 177.757L62.7881 177.911L62.9866 177.955L63.2072 178.087H63.5161L63.6926 177.889L63.9132 177.933V178.043L64.2662 178.065L64.4206 178.152L64.8177 178.108H65.259L65.5678 177.889H65.8105L65.8988 177.779H66.1414L66.5606 178.701L66.4062 178.898V179.206L66.6489 179.447L67.0019 179.601L67.1342 179.513L67.4431 179.645L67.5093 179.886L67.7078 180.062L67.9064 180.105L68.1491 180.413L68.4138 180.544L68.4579 180.852V181.049L68.5903 181.137L68.7889 181.027L68.9654 181.225L68.8771 181.378L68.9212 181.576L69.1639 181.642L69.2742 181.312H69.4728L69.5831 181.181L69.539 180.917L69.8258 180.588L70.0023 180.808H70.1346L70.2229 180.961L70.5979 181.071L70.7524 181.247L71.1274 181.049L71.2818 181.005L71.5025 181.181L71.9437 180.83L72.0761 180.544L72.3849 180.391L72.5394 180.457L72.6938 180.149L72.782 180.281L73.1571 180.391L73.2674 180.566L73.5542 180.764H73.8189V180.961L74.4367 181.225L74.569 181.4L74.7455 181.444L74.9 181.334L75.2088 181.642L75.1647 181.773L75.3412 181.839L75.7824 182.476L75.8266 182.739H76.1134L76.4002 182.805L76.4884 183.266L76.9517 183.353L77.1723 183.463H77.4371L77.768 183.112L78.121 183.244L78.4519 183.09L78.5622 182.871L78.7608 182.827L79.0035 182.958L79.4006 182.849L79.4888 182.717L79.8418 182.607L80.1727 182.454L80.5037 182.585L80.8125 182.827H81.3199L81.5185 183.353L81.8494 183.683L82.2907 183.419V183.046L82.6437 182.871L82.8422 182.673L83.0628 182.871H83.3276L83.3717 183.112L83.5041 183.222L83.7688 183.331L84.3645 183.266L84.541 183.134L84.916 183.31H85.2249L85.3352 183.134H85.5999L85.975 183.222H86.2618L86.35 183.068L86.6148 183.2L87.3428 183.353H87.5855V183.178L87.7179 182.98L87.5193 182.783L87.6737 182.695L87.5414 182.563L87.3649 182.124H87.1884L87.3208 181.795L87.4311 181.729L87.1443 181.51L87.3428 181.203L87.4972 181.115L87.4311 180.874L87.4972 180.654L87.3869 180.566V180.325L87.6296 180.171V180.018H87.8502L88.115 179.886L88.5121 180.04L88.5783 180.149L88.9092 180.259L88.9533 180.325L89.2842 180.391L89.5931 180.325L90.0123 180.544L90.3653 180.61L90.5638 180.808H90.6962L90.9609 180.983L91.4022 181.356L91.6007 181.181L91.9096 181.005L92.1523 181.225L92.2847 181.4L92.5714 181.312L92.6597 181.378H93.0789L93.1451 181.51H93.5863L94.1158 181.708L94.4688 182.146V182.585L94.7335 182.761L94.9541 182.98L95.1306 182.893L95.7042 182.761L95.9028 182.607L96.1675 182.695L96.2558 182.871L96.5867 182.783L96.6308 182.871L96.9176 182.761L97.1162 182.805L97.3589 182.673L97.5574 182.783H97.8442L97.756 183.09L97.9545 183.266H98.131L98.3296 183.441V183.683L98.6826 184.034L98.7267 184.429L98.7929 184.648L98.9032 184.736V184.912L99.0576 185.109H99.3224L99.6533 184.868L99.5209 184.538L99.6533 184.341V184.122L99.896 184.078L99.9842 184.231H100.271L100.734 184.034L100.977 184.122L101.131 184.231L101.198 184.429L101.396 184.517L101.506 184.648H101.926L102.058 184.56L102.301 184.648L102.455 184.802L102.72 184.692L102.985 184.736L103.205 184.89L103.338 184.846L103.58 184.955L103.426 185.175V185.438H103.646L104.044 185.592L104.22 185.548L104.33 185.702L104.132 185.855L103.757 185.921L103.558 186.206L103.514 186.733L103.426 186.821V187.15L103.514 187.347L103.735 187.282L103.955 187.435H104.11L104.419 187.479L104.595 187.391L104.772 187.545L104.882 187.479L105.058 187.589L105.235 187.852L105.411 187.962L105.5 187.896L105.72 188.028L105.764 188.225L106.25 188.313L106.492 188.138L106.647 188.335V188.576L106.89 188.752L106.845 189.037L106.912 189.147V189.345L106.956 189.586L107.176 189.805L107.287 189.981L107.463 190.113L107.662 190.178L107.838 190.135L108.412 190.069L108.566 189.937L108.721 189.981L108.809 189.783L109.206 189.586V189.366L109.294 189.323L109.405 189.015L109.824 188.796H110.066L110.177 188.906H110.464L110.839 188.752L111.17 188.686L111.324 188.489L111.611 188.62L111.831 188.796L112.074 188.686L112.251 188.774L112.339 188.928L112.648 188.971L112.692 189.147L113.045 189.279H113.265L113.398 189.388L113.685 189.454L113.905 189.41L113.993 189.564V189.805L114.302 190.047L114.435 190.091L114.655 190.486L114.942 190.442L115.339 190.639H115.582L115.714 190.486L115.758 190.244L116.133 190.135L116.597 190.376L116.95 190.442H117.192L117.347 190.508L117.545 190.464V190.222L117.325 189.959V189.74L117.192 189.608L117.479 189.542V189.301L117.59 189.169H117.788L118.163 188.862L118.715 188.796L118.803 188.949L119.068 189.059L119.156 188.949L119.399 188.906L119.487 188.664L119.641 188.511H119.818L120.016 188.138L120.259 188.225L120.458 187.962L120.634 188.094H120.744L120.987 188.159H121.186L121.384 187.808L121.605 187.677L121.803 187.852L121.892 188.006L122.222 187.83L122.575 187.984L122.84 187.83H122.973L123.061 188.181L123.414 188.62L123.634 188.818H123.833L124.009 188.62H124.429L124.517 188.664L124.848 188.511V188.357L124.671 187.786L124.296 187.677V187.391L124.186 187.216L124.362 186.974L123.943 186.799H123.723L123.414 186.601H123.193L123.105 186.426L123.017 185.855V185.46L122.928 184.868L122.862 184.626V183.968L122.928 182.805L122.884 182.651V182.19L122.928 181.291V181.027L122.973 180.325L123.061 179.798V179.491L123.215 178.855L123.127 178.679L122.906 178.591V178.372L122.995 177.779L123.149 177.187L123.304 176.88V176.748L123.568 176.024L123.745 175.651L124.054 175.08L124.362 174.597L124.738 174.071L124.958 173.807L125.642 173.061L125.863 172.885L126.304 172.447L126.745 172.161L127.098 171.898L127.539 171.635L128.091 171.371L128.466 171.283H128.709L128.907 171.437H129.084L129.26 171.569H129.679L129.878 171.657L130.01 171.547L130.231 171.196L130.805 170.493L131.29 169.967L131.952 169.352L132.172 169.221H132.636L132.768 169.155L133.231 169.089L133.165 168.935L133.275 168.76L133.518 168.65L133.562 168.54L133.915 168.431L134.224 168.233L134.511 167.904L134.952 167.355L135.592 166.829L136.717 166.192L137.357 165.929L137.71 165.863L138.107 165.819L138.725 165.885L139.1 166.082L139.298 166.346L139.232 166.521L139.056 166.565V166.785L138.879 166.829L138.989 167.114L139.188 167.311L139.784 167.597L140.203 167.728L140.666 167.816L142.255 167.904L142.916 167.97L143.181 168.036H143.622L143.953 167.882H144.13L144.748 167.904L145.233 168.014L145.652 168.211L145.829 168.365L145.961 168.562L146.049 168.826L145.983 169.067L145.52 169.286V169.55L145.784 169.769L146.182 169.945L146.91 170.098L147.086 170.164H147.395L147.947 170.076H148.564L148.939 170.142L149.358 170.274L149.711 170.493L150.153 170.318L150.77 169.659L150.594 169.725L150.462 169.857L149.998 169.594L149.932 169.418L150.02 169.308L149.778 169.177L150.042 168.979L149.557 168.562L149.645 168.496L150.197 168.979L150.351 168.826L150.086 168.211L149.954 168.036L150.086 167.97L150.506 168.804L150.815 168.65L150.881 168.496L151.212 168.387L151.388 168.474L151.719 168.518L151.829 168.65L151.896 168.957H152.116L152.249 169.089L152.05 169.221L152.249 169.55L152.403 169.681V169.813L152.602 169.989L152.491 170.142L152.557 170.296L152.8 170.515L152.999 170.603L153.109 170.471L153.418 170.515H154.212L154.366 170.537H154.719L154.764 170.406L155.05 170.493L155.161 170.428L155.602 170.493L156.065 170.296L156.506 169.901L156.793 169.857L156.948 170.12L157.257 170.384L157.588 170.91L157.499 171.305L157.367 171.481L157.72 171.744L157.808 171.942L157.764 172.205L157.433 172.468L157.279 172.842L157.521 172.973H157.72L158.205 172.864L158.514 173.039L158.602 172.951L158.823 173.039L159.044 172.885L159.33 173.039L159.419 172.995L159.683 173.171L160.235 172.82L160.433 172.973V173.259L160.764 173.675L161.294 173.917L161.36 173.5L161.691 173.324H161.934L162.287 173.544L162.441 173.5L162.596 173.654V173.785L162.419 173.873L162.573 174.049V174.224L162.971 174.158L163.037 174.378L163.434 174.422L163.677 174.312L163.809 174.356L163.875 174.509L163.809 174.663L164.03 174.839L164.206 174.773L164.36 174.926L164.228 175.563L164.118 175.716L164.427 175.848L164.493 176.024L164.625 176.111H165.022L165.155 175.892L165.486 175.541H165.662L165.861 175.76L166.236 175.651L166.346 175.76L166.456 175.563L166.258 175.409H165.949L165.817 175.541L165.618 175.475L165.839 175.08L165.75 175.014H165.464L165.486 174.751L165.75 174.795L166.059 174.619L166.214 174.707V174.948L166.545 174.926L166.699 174.992H167.273L167.537 175.234L167.449 175.453L167.648 175.519H167.934L168.332 175.321L168.64 175.409H168.883L169.06 175.519L169.17 176.002L169.126 176.199L168.971 176.309H168.596L168.751 176.528L168.905 176.397L169.016 176.463L169.567 176.55L169.479 176.397L169.435 175.98L169.567 175.365L169.744 175.08L169.92 174.904L170.295 174.751L170.78 174.817L171.111 174.663H171.332L171.508 174.904H171.861L172.06 175.102V175.234L172.325 175.299H172.59L172.722 175.014L172.59 174.904V174.663L172.744 174.312L172.92 174.268L173.251 174.049H173.494L173.891 174.005L174.156 173.895L174.597 174.027L175.06 173.719L175.237 173.456L175.413 173.324L175.612 173.259L176.053 173.324L176.208 173.39L176.34 173.675L176.517 173.741L176.803 173.522V173.302L177.399 173.039L177.222 172.907L177.112 172.622V172.227L177.531 171.986L177.598 171.678L177.355 171.437L177.222 171.503L177.156 171.722L176.892 171.591H176.737L176.494 171.722H176.053L175.987 171.415L176.517 171.086L176.605 170.932L176.847 170.888L177.068 170.735L177.222 170.34L177.377 170.208L177.884 170.098L177.973 169.835L177.884 169.659L177.995 169.418L178.149 169.221V169.111L178.215 168.826L178.458 168.54L178.679 168.474L179.032 168.804L179.627 168.584L179.98 168.738L180.091 168.65V168.299L180.245 168.452L180.62 168.343L180.708 168.079L181.039 167.86L181.172 167.245L181.436 167.202V167.07L181.569 166.872L181.525 166.763L181.304 166.719V166.433L181.458 166.302L181.525 166.104L181.723 165.951L182.01 165.863L182.65 165.907V166.06L182.981 165.885L183.179 165.578L183.444 165.424H183.731L183.885 165.49L184.018 165.731V165.907H184.216V165.687L184.26 165.38L184.04 165.27L184.128 164.985L184.062 164.875L184.128 164.393L184.348 163.866L184.525 163.646L185.076 163.559L185.341 163.756L185.452 163.537L185.606 163.383V163.12L185.805 162.878L186.025 162.791H186.4L186.731 162.966V162.703L186.908 162.549L187.04 162.747L186.952 162.856L187.04 163.208L187.172 163.098V162.791L187.084 162.681L187.172 162.461L187.393 162.374L187.525 162.22L187.724 162.308L187.967 162.198L188.077 162.286L188.275 162.242L188.32 161.979L188.562 161.781L188.606 161.671L188.849 161.606L189.07 161.43L189.268 161.627L189.555 161.254L189.798 161.145L189.864 160.991L190.107 160.903L189.93 160.596L189.82 160.113L189.776 159.784L189.643 159.718L189.577 159.499L189.621 159.192L189.842 158.884H190.062L190.239 158.709H190.415L190.57 158.599V158.38L190.526 158.204L190.658 158.094L190.746 157.831L190.636 157.677L190.901 157.458L191.099 157.392L191.298 157.436L191.717 157.129L191.894 157.063L191.96 156.821L192.18 156.558L192.048 156.141L192.114 155.856L192.291 155.812L192.489 155.68H192.622L192.666 155.439L192.842 155.154L192.908 154.802L192.842 154.671L192.401 154.144L192.247 154.078L192.136 153.749L192.335 153.464L192.224 153.332L192.357 153.113L192.401 152.915L191.827 152.805L191.607 152.871V153.025L191.43 153.42H190.989L190.768 153.354L190.46 153.486H190.151L190.04 153.617L189.864 153.661L189.709 153.552L189.489 153.683L189.202 153.771L189.003 153.903L188.584 153.815L188.518 154.188L188.364 154.056H188.231L188.055 153.925L187.68 154.1H187.525L187.349 153.508L186.952 153.552L186.886 153.486L186.4 153.595L186.29 153.464H186.135L185.937 153.244L185.738 152.893L185.518 153.047L185.275 152.827L185.121 152.608L185.032 152.388L184.878 152.454L184.569 152.301L184.37 152.388L183.951 152.037L183.598 151.928L183.532 151.774L183.289 151.686L182.826 151.884L182.694 151.73L182.363 151.642L182.186 151.291V151.159L182.142 150.699L181.789 150.435L181.547 150.348L181.613 150.04L181.26 149.689L181.105 149.601L181.039 149.404V149.25L180.774 149.075L180.532 149.009L180.686 148.724L180.642 148.241L180.686 148.087L180.62 147.758H180.752L180.995 147.626L181.216 147.67L181.304 147.495L181.26 147.363L180.885 147.1L180.819 146.77L180.598 146.683L180.355 146.463V146.332L180.201 146.2L180.135 146.024L180.024 145.498L180.068 145.366L180.267 145.234L180.377 144.971L180.929 144.839V144.642L181.216 144.51V144.137L181.282 143.896L181.392 143.852L181.458 143.566L181.723 143.435L181.48 143.193L181.392 142.886L181.569 142.623L181.613 142.381H181.745L181.966 142.184H182.716L183.069 142.359H183.334L183.312 142.14L183.157 141.767V141.657L182.804 141.525L182.65 141.328L182.517 140.911L182.583 140.757L182.495 140.362L182.208 140.077L182.495 139.572V139.331L182.341 139.287L182.297 139.024L181.922 138.87H181.767L181.37 138.563L181.194 138.497L181.039 138.76L180.774 138.848H180.466L180.179 138.76L180.046 138.607L179.848 138.563L179.671 138.387L179.318 138.212L179.142 137.97H178.965L178.767 137.641H178.634L178.458 137.575L178.502 137.158L178.568 136.939V136.763L178.679 136.478V136.237L178.259 135.776L178.436 135.732L178.37 135.403L178.414 135.293L178.061 135.183L177.289 135.227V135.052L177.156 134.898L177.245 134.766L177.068 134.525L177.134 134.13L176.869 134.064L176.803 133.801L176.583 133.428L176.627 133.34L176.671 133.23H176.914L177.068 133.098L177.267 133.033L177.377 132.703H177.531L177.84 132.616L178.083 132.747L178.281 132.791L178.392 132.725L178.701 132.308L178.987 132.44L179.362 132.528L179.627 132.703L179.914 132.989L180.267 132.813H180.576L180.444 132.33L180.576 132.111L180.819 132.177L181.127 132.045L181.48 131.848V131.628L181.657 131.54L181.569 131.387L181.635 131.277L181.944 131.211H182.054L182.186 131.058L182.539 131.123L182.782 130.926H182.914L183.157 131.233L183.356 131.189V130.948L183.466 130.926L183.731 130.684L183.797 130.487L184.018 130.531L184.194 130.267L184.128 130.18L184.172 129.785L184.128 129.631L183.951 129.456L183.863 129.082L183.753 128.951L183.841 128.731L184.106 128.687V128.49L184.216 128.249L184.503 128.095V127.875L184.547 127.612L184.79 127.415L184.834 127.063L184.525 126.932L184.37 126.734L184.128 126.668L183.819 126.515V126.339L183.62 126.076V125.747L183.267 125.659H182.848V125.418L182.959 125.22L182.451 125.176L182.142 124.979L182.208 124.759L181.988 124.452L182.076 124.145L181.988 123.903L182.076 123.508L181.811 123.245L181.944 122.718V122.477L182.164 122.214L181.988 122.06L181.789 122.016L181.701 121.84L181.039 121.994L180.885 121.862V121.731L180.686 121.621L180.752 121.511L180.686 121.27L180.532 121.38L180.377 121.27H180.157L179.826 121.072L179.76 120.875L179.539 120.787L179.429 120.48L179.252 120.282L179.385 120.019L179.252 119.909L179.208 119.602V119.383L179.164 119.119L179.208 118.9L179.318 118.79V118.549L179.23 118.351L179.407 117.956L179.782 117.846L179.936 117.912L180.157 118.176L180.333 117.627L180.488 117.737L180.796 117.781L181.039 117.671H181.238L181.414 117.407L181.745 117.232H182.01L182.142 117.1L182.231 116.859V116.574L182.363 116.42L182.473 116.2L182.738 116.091L182.804 116.003L182.694 115.762V115.388L182.473 115.323L182.275 115.103L182.495 114.884L182.297 114.489L181.922 114.335L181.855 114.006L181.591 113.765L181.326 113.326L181.172 113.194L181.216 113.04H181.017L180.774 113.348L180.576 113.391L180.532 113.501L180.245 113.326L180.355 112.931L180.51 112.821V112.601L180.377 112.382L180.576 112.097L180.62 111.811L180.245 111.724H179.87L179.738 111.57L179.429 111.614L179.12 111.504L179.009 111.131V110.934L179.34 110.539L179.208 110.078L179.296 109.836L179.473 109.639V109.441L179.605 109.397L179.738 109.112L179.914 109.024L180.046 108.717V108.542L180.113 108.344L179.958 108.147L179.87 108.212L179.671 107.993L179.539 107.73L179.274 107.532H179.186L179.12 107.269H178.965L178.723 106.786L178.877 106.544H179.032L179.252 106.281L179.208 106.128L179.495 105.228L177.421 104.635L174.994 104.591L173.604 105.469L172.259 105.733L171.023 106.676L170.516 107.73L170.935 107.927L171.001 108.19L170.78 108.388L170.957 108.805L171.2 109.112L171.376 109.024L171.553 108.849L171.839 109.068V109.2L171.619 109.595L171.354 109.814L170.913 110.034H170.692L170.317 110.319L170.185 110.517L170.008 110.626L170.052 110.89L169.832 111.065L169.457 111.241L169.28 111.416L168.707 111.372L168.596 111.197L168.354 111.263L168.023 111.219L167.934 111.416L167.78 111.504L167.471 111.394L167.118 111.351L166.942 111.416L166.853 111.592L166.677 111.68V111.372L166.898 110.89L167.03 110.78L167.118 110.539L166.942 110.363L166.655 110.231L166.876 109.792L167.206 109.727L167.427 109.485L167.692 109.354L167.868 109.507L168.089 109.222L168.199 109.288L168.442 109.2L168.707 109.375L169.06 109.09V108.937L168.751 108.498V108.366L169.038 108.059V107.751L169.236 107.4L169.28 107.203L169.589 106.961L169.655 106.742L169.788 106.61L169.655 106.347H169.501L169.28 106.128L168.949 105.886H168.861L168.729 105.689L168.221 105.535L168.376 105.184L168.53 104.986V104.833L168.354 104.701V104.438L168.685 104.087L168.927 103.472L169.302 103.011L169.391 103.077L169.545 102.88L169.589 102.704L168.905 102.024L169.148 101.738L169.677 101.3L169.942 101.168V101.08L170.383 100.751L170.758 100.334L171.266 99.8731V99.7414L171.508 99.5439L171.729 99.4781L172.148 99.2147L172.391 99.1269L172.7 98.8636L172.854 98.8197L173.163 98.4905L173.207 98.293L173.582 98.1833L173.869 98.0077L174.024 97.7663L174.156 97.4372L173.803 97.1519L173.759 96.9105L173.891 96.8227L173.935 96.4496L174.2 96.0546L174.266 95.1987L174.178 94.9793L173.803 94.3648L174.001 94.2551L174.2 94.0356L174.443 93.6625L174.752 93.3772L174.884 93.5528L175.082 93.4431L175.369 93.3772L175.877 93.1797L176.186 92.9603H176.561L176.803 92.8286L176.98 92.5872L177.178 92.1922L177.421 92.0386L177.752 91.9727L177.973 91.7313L177.928 91.5119L177.664 91.3144L177.796 91.2486L177.906 90.9633L178.017 90.8535L178.37 90.8096L178.48 90.6121L178.392 90.5024L178.612 90.2171L178.899 90.1293L179.362 89.9099L179.539 89.7343L180.002 89.3612L180.135 89.1637H179.914L179.87 89.0321L180.201 88.8346L180.466 88.3956L181.083 87.9567L181.238 87.7373L181.613 87.43L181.48 87.2764L181.547 86.8595L181.37 86.5083L181.48 86.3986H181.855L181.9 86.2889H182.164L182.407 86.1353L182.495 85.8719L182.407 85.6525L182.76 85.5647L182.936 85.6086L183.113 85.433L183.201 85.2136L183.047 85.0599L183.003 84.8405L182.782 84.7966V84.6649L182.429 84.5991L182.186 84.7966L181.878 84.8624L181.127 84.9722L180.819 84.8844L180.532 85.038L180.488 84.9283L180.554 84.5991L180.973 84.3138V84.0943L181.105 83.8968H181.37L181.414 83.6554V83.2604L181.789 83.1726L181.855 82.9751H182.142L182.319 82.8215V82.5362L182.076 82.3387V81.9656L182.341 81.812L182.65 81.7242L182.826 81.8779L183.356 81.9876L183.4 82.0754L183.687 81.9218H183.951L184.216 81.7462L184.547 81.8998L184.768 82.0534L185.032 82.0095L185.121 82.0754L184.922 82.5362V82.7337L184.812 83.0849L185.341 83.2604L185.694 83.1507L185.849 83.3921L186.091 83.4799L186.312 83.414L186.533 83.2385L186.643 83.2824L186.775 83.1726H187.084L187.305 83.1068L187.547 83.2604L188.011 83.3043L188.518 83.019L188.628 82.7557L188.893 82.6459L189.048 82.4045L188.65 82.1851V81.9437L188.739 81.834L189.07 82.0534H189.158L189.312 82.229L189.555 82.1851L189.754 81.9437L189.908 81.8559V81.6584L189.798 81.4828L190.107 81.3731L190.217 81.1537L190.04 81.022L189.776 81.1537L189.709 80.9781L189.82 80.8025L190.018 80.7586L190.195 80.5831L190.592 80.3417V80.1881L190.724 80.0783L190.989 80.1222L191.121 79.5516L190.879 79.2664L190.68 78.8055L190.327 78.5202L190.107 78.2569L190.04 78.1032V77.6863L189.93 77.4668L189.996 77.3132L190.371 76.984L190.46 76.8085V76.5012L190.239 75.8429V75.4698L190.415 75.0089L190.504 74.7017L190.68 74.3506L190.724 74.0872L190.614 73.6483L190.68 73.3411L190.967 73.0777L191.033 72.8363V72.3097L191.121 72.1122L191.386 71.8049L191.607 71.3441L191.496 70.9052L191.32 70.5979L190.835 70.0273V69.8737L190.879 69.4568L190.813 68.8862L190.967 68.4912L190.923 68.1181L191.011 67.9425L191.188 67.8328L191.276 67.6353V67.3061L191.32 67.1964L191.739 66.6477L191.916 66.1869L192.202 65.9235L192.313 65.748L192.622 64.519V64.1899L192.71 63.9923L192.908 63.8168L193.306 63.6632L193.438 63.5315L193.504 63.312L193.306 62.4342V62.0392L193.372 61.6442L193.725 60.7444L193.813 60.3494V59.8447L193.857 59.713L194.232 59.4935L194.387 59.2521V58.1329L194.342 57.8476V57.5184L194.74 56.9259L194.938 56.3334L195.556 55.9823L195.71 55.8506L196.747 54.5778L196.813 54.4022V53.8975L196.902 53.7438L197.034 53.6999L197.321 53.7438L197.585 53.6122L197.674 53.1952L197.872 53.0196L198.159 53.0635L198.314 53.0196L198.644 52.6905L198.865 52.2735L198.931 51.8785L199.218 51.0007L199.417 50.5837L199.615 50.2545L199.814 49.9912L200.101 49.5084L200.211 49.245L200.343 49.1573L200.696 49.0475L200.608 48.8061L199.99 48.9817ZM106.912 188.401H106.603L106.25 188.269L106.206 188.181L106.294 187.764L106.514 187.611V187.435L106.691 187.457L106.735 187.633L106.647 187.94L106.713 188.094L107.044 188.313L106.867 188.401H106.912Z" stroke="white" stroke-linejoin="round"/>
<path d="M163.434 175.76L163.588 175.673L163.39 175.519L163.434 175.76Z" stroke="white" stroke-linejoin="round"/>
<path d="M173.516 176.66L173.318 176.682L173.207 176.792L173.185 176.967L173.295 177.099L173.472 176.836L173.604 176.901L173.803 176.792L174.046 176.309H174.222L174.332 176.111L173.737 176.265L173.516 176.66Z" stroke="white" stroke-linejoin="round"/>
<path d="M170.317 176.682L170.251 176.923L170.008 176.945L169.92 177.099L169.721 177.187L169.479 177.011L169.126 177.143L169.368 177.253L169.832 177.538L169.964 177.362L170.472 177.209L170.45 176.858L170.317 176.682Z" stroke="white" stroke-linejoin="round"/>
<path d="M172.523 176.945L172.237 177.143L172.259 177.231L172.678 177.296L172.81 177.275L172.965 177.055L172.854 176.814L172.523 176.945Z" stroke="white" stroke-linejoin="round"/>
<path d="M1.21364 60.2616L1.10333 60.108L0.993024 60.2836L0.507665 60.3494V60.4811L0.220862 60.6128L0.000244141 60.8542L0.132615 60.8761L0.640036 60.7005L0.750344 60.8322L0.463541 61.0078L0.44148 61.1614L0.794468 61.0517L0.926839 60.8322L1.21364 60.8542L1.36807 60.6347L1.50044 60.6786L1.58869 60.525L1.2357 60.4591L1.21364 60.2616Z" stroke="white" stroke-linejoin="round"/>
<path d="M16.8554 54.2266L17.1643 54.2925L16.9878 54.0291H16.7231L16.4804 54.1828L16.8113 54.3144L16.8554 54.2266Z" stroke="white" stroke-linejoin="round"/>
<path d="M23.6284 52.888L23.5622 52.7782L23.2092 52.9319L23.4078 53.0635L23.6284 52.888Z" stroke="white" stroke-linejoin="round"/>
<path d="M32.1442 51.7249L32.2546 51.5054L31.8354 51.659L31.9236 51.7468L32.1442 51.7249Z" stroke="white" stroke-linejoin="round"/>
<path d="M25.3492 78.8055L25.0845 78.6738L24.9962 78.7177L24.6212 78.586L24.3564 78.6299L24.3344 78.6958L24.4888 78.8933L24.7756 79.1127L25.0624 79.2225L25.1286 79.3102L25.5257 79.1347L25.7243 79.3102L25.8125 79.003L25.5257 78.7836L25.3492 78.8055Z" stroke="white" stroke-linejoin="round"/>
<path d="M34.8578 79.9467L34.7917 80.0783L34.924 80.1881L35.1005 79.793L34.8578 79.9467Z" stroke="white" stroke-linejoin="round"/>
<path d="M33.6665 85.3452L33.7106 85.5427L33.8209 85.6525L34.0636 85.5427L33.9533 85.4111L33.6665 85.3452Z" stroke="white" stroke-linejoin="round"/>
<path d="M30.622 86.0036L30.3793 85.9378L30.3572 85.828L29.9822 85.7183L29.8498 85.6086L29.7836 85.3672L29.7175 84.9941L29.4527 85.0161L29.21 84.9502L29.0115 84.7747L28.7688 84.7527V84.621H28.5261L28.3055 84.5113L28.2834 84.643L28.0849 84.7966L28.1069 85.2136L28.3055 85.5866L28.482 85.7841L28.3276 86.0475L28.482 86.1792L28.5261 86.3547L28.7688 86.5303L29.0115 86.4206L29.0997 86.5083L29.2983 86.4645L29.4307 86.3328L29.6733 86.5303L29.8278 86.5083L29.8939 86.64L30.2469 86.5742L30.622 86.7717L30.8647 86.7058L30.9088 86.5083L31.0191 86.4425L31.0632 86.245L31.1956 86.1353L30.9309 85.9816L30.622 86.0036Z" stroke="white" stroke-linejoin="round"/>
<path d="M32.1663 84.1602L32.1222 84.2919H32.2325L32.3869 84.4455L32.6958 84.5552L32.8061 84.4016L32.5193 84.3357L32.1663 84.1602Z" stroke="white" stroke-linejoin="round"/>
</g>
</g>
<defs>
<clipPath id="clip0_184_633">
<rect width="220" height="210" fill="white"/>
</clipPath>
</defs>
</svg>
