<svg width="135" height="135" viewBox="0 0 135 135" fill="none" xmlns="http://www.w3.org/2000/svg">
<g id="streamline-emojis:hamster-face">
<path id="Vector" d="M4.21875 39.2906C4.21875 46.3545 7.02486 53.1291 12.0198 58.124C17.0147 63.1189 23.7893 65.925 30.8531 65.925C37.917 65.925 44.6916 63.1189 49.6865 58.124C54.6814 53.1291 57.4875 46.3545 57.4875 39.2906C57.4875 32.2267 54.6814 25.4522 49.6865 20.4573C44.6916 15.4624 37.917 12.6563 30.8531 12.6562C23.7893 12.6563 17.0147 15.4624 12.0198 20.4573C7.02486 25.4522 4.21875 32.2267 4.21875 39.2906ZM77.5125 39.2906C77.5125 46.3545 80.3186 53.1291 85.3135 58.124C90.3084 63.1189 97.083 65.925 104.147 65.925C111.211 65.925 117.985 63.1189 122.98 58.124C127.975 53.1291 130.781 46.3545 130.781 39.2906C130.781 32.2267 127.975 25.4522 122.98 20.4573C117.985 15.4624 111.211 12.6563 104.147 12.6562C97.083 12.6563 90.3084 15.4624 85.3135 20.4573C80.3186 25.4522 77.5125 32.2267 77.5125 39.2906Z" stroke="#45413C" stroke-linecap="round" stroke-linejoin="round"/>
<path id="Vector_2" d="M12.2061 39.2904C12.2061 41.7392 12.6884 44.1639 13.6255 46.4263C14.5626 48.6886 15.9361 50.7442 17.6676 52.4758C19.3991 54.2073 21.4547 55.5808 23.7171 56.5179C25.9794 57.455 28.4042 57.9373 30.8529 57.9373C33.3017 57.9373 35.7264 57.455 37.9888 56.5179C40.2511 55.5808 42.3067 54.2073 44.0383 52.4758C45.7698 50.7442 47.1433 48.6886 48.0804 46.4263C49.0175 44.1639 49.4998 41.7392 49.4998 39.2904C49.4998 36.8417 49.0175 34.4169 48.0804 32.1546C47.1433 29.8922 45.7698 27.8366 44.0383 26.1051C42.3067 24.3736 40.2511 23.0001 37.9888 22.063C35.7264 21.1259 33.3017 20.6436 30.8529 20.6436C28.4042 20.6436 25.9794 21.1259 23.7171 22.063C21.4547 23.0001 19.3991 24.3736 17.6676 26.1051C15.9361 27.8366 14.5626 29.8922 13.6255 32.1546C12.6884 34.4169 12.2061 36.8417 12.2061 39.2904ZM85.4998 39.2904C85.4998 41.7392 85.9821 44.1639 86.9192 46.4263C87.8563 48.6886 89.2298 50.7442 90.9613 52.4758C92.6929 54.2073 94.7485 55.5808 97.0108 56.5179C99.2732 57.455 101.698 57.9373 104.147 57.9373C106.595 57.9373 109.02 57.455 111.283 56.5179C113.545 55.5808 115.6 54.2073 117.332 52.4758C119.064 50.7442 120.437 48.6886 121.374 46.4263C122.311 44.1639 122.794 41.7392 122.794 39.2904C122.794 36.8417 122.311 34.4169 121.374 32.1546C120.437 29.8922 119.064 27.8366 117.332 26.1051C115.6 24.3736 113.545 23.0001 111.283 22.063C109.02 21.1259 106.595 20.6436 104.147 20.6436C101.698 20.6436 99.2732 21.1259 97.0108 22.063C94.7485 23.0001 92.6929 24.3736 90.9613 26.1051C89.2298 27.8366 87.8563 29.8922 86.9192 32.1546C85.9821 34.4169 85.4998 36.8417 85.4998 39.2904Z" stroke="#45413C" stroke-linecap="round" stroke-linejoin="round"/>
<path id="Vector_3" opacity="0.15" d="M35.1562 125.156C35.1563 126.275 38.5639 127.348 44.6295 128.139C50.6951 128.931 58.9219 129.375 67.5 129.375C76.0781 129.375 84.3049 128.931 90.3705 128.139C96.4361 127.348 99.8438 126.275 99.8438 125.156C99.8438 124.037 96.4361 122.964 90.3705 122.173C84.3049 121.382 76.0781 120.938 67.5 120.938C58.9219 120.938 50.6951 121.382 44.6295 122.173C38.5639 122.964 35.1563 124.037 35.1562 125.156Z" fill="#45413C"/>
<path id="Vector_4" d="M106.875 73.9127C104.595 70.987 103.358 67.384 103.359 63.6752C103.413 60.6944 103.044 57.721 102.262 54.8439C99.9999 47.0723 95.2074 40.2785 88.645 35.5401C82.0827 30.8018 74.1261 28.3901 66.0373 28.6877C56.9631 28.8453 48.3021 32.5087 41.869 38.9103C35.4359 45.312 31.73 53.955 31.5279 63.0283C31.474 67.0883 30.1349 71.0268 27.7029 74.2783C24.8204 78.2914 23.3559 83.15 23.5404 88.0877C24.0467 100.547 35.3529 110.138 48.3748 110.138H49.6967C52.7088 109.746 55.7702 110.214 58.5279 111.488C61.2529 113.071 64.3483 113.905 67.4998 113.905C70.6513 113.905 73.7467 113.071 76.4717 111.488C79.2294 110.214 82.2908 109.746 85.3029 110.138H86.6248C99.1404 110.138 110.194 101.335 111.347 89.4095C111.861 83.8651 110.264 78.3307 106.875 73.9127Z" fill="#ADC798" stroke="#45413C" stroke-linecap="round" stroke-linejoin="round"/>
<path id="Vector_5" d="M75.4877 99.7031C75.0369 101.48 74.0068 103.055 72.5601 104.181C71.1135 105.306 69.333 105.917 67.5002 105.917C65.6674 105.917 63.8869 105.306 62.4402 104.181C60.9936 103.055 59.9635 101.48 59.5127 99.7031C59.5127 97.425 63.0846 96.6094 67.5002 96.6094C71.9158 96.6094 75.4877 97.425 75.4877 99.7031Z" stroke="#45413C" stroke-linecap="round" stroke-linejoin="round"/>
<path id="Vector_6" d="M106.875 73.9126C104.595 70.9869 103.358 67.3839 103.359 63.675C103.413 60.6942 103.044 57.7209 102.262 54.8438C100.012 47.1417 95.2779 40.4001 88.797 35.6692C82.3161 30.9382 74.4524 28.4835 66.431 28.6875L62.381 34.8188C60.9118 36.9759 59.9532 39.4392 59.578 42.022C59.2027 44.6048 59.4207 47.2391 60.2154 49.725C61.844 54.3459 65.0777 58.2283 69.3279 60.6657C70.5033 61.3011 71.4244 62.3216 71.9365 63.5558C72.4487 64.79 72.5206 66.1628 72.1404 67.4438C70.0873 73.7157 71.6904 83.5032 77.9904 87.2719L80.0435 88.5094C86.2029 92.2219 95.1748 90.4219 102.544 89.1C105.596 88.5612 108.529 87.4852 111.206 85.9219C110.962 81.5826 109.456 77.4089 106.875 73.9126Z" fill="#ADC798" stroke="#45413C" stroke-linecap="round" stroke-linejoin="round"/>
<path id="Vector_7" d="M90.1406 79.2843C90.1406 80.0742 89.9064 80.8463 89.4676 81.5031C89.0287 82.1599 88.405 82.6717 87.6752 82.974C86.9455 83.2763 86.1424 83.3554 85.3677 83.2013C84.593 83.0472 83.8814 82.6668 83.3229 82.1083C82.7643 81.5497 82.384 80.8381 82.2299 80.0634C82.0758 79.2887 82.1549 78.4857 82.4571 77.7559C82.7594 77.0262 83.2713 76.4024 83.9281 75.9636C84.5848 75.5248 85.357 75.2905 86.1469 75.2905C87.2061 75.2905 88.2219 75.7113 88.9709 76.4603C89.7199 77.2092 90.1406 78.2251 90.1406 79.2843ZM52.8469 79.2843C52.8469 80.0742 52.6127 80.8463 52.1738 81.5031C51.735 82.1599 51.1112 82.6717 50.3815 82.974C49.6517 83.2763 48.8487 83.3554 48.074 83.2013C47.2993 83.0472 46.5877 82.6668 46.0291 82.1083C45.4706 81.5497 45.0902 80.8381 44.9361 80.0634C44.782 79.2887 44.8611 78.4857 45.1634 77.7559C45.4657 77.0262 45.9776 76.4024 46.6343 75.9636C47.2911 75.5248 48.0632 75.2905 48.8531 75.2905C49.9101 75.2979 50.9216 75.721 51.669 76.4684C52.4164 77.2158 52.8395 78.2273 52.8469 79.2843Z" fill="#45413C" stroke="#45413C" stroke-linecap="round" stroke-linejoin="round"/>
<path id="Vector_8" d="M100.8 97.0874C100.8 98.6343 98.6346 99.8999 95.9627 99.8999C93.2908 99.8999 91.1252 98.6343 91.1252 97.0874C91.1252 95.5405 93.2908 94.2749 95.9627 94.2749C98.6346 94.2749 100.8 95.6249 100.8 97.0874ZM43.8752 97.0874C43.8752 98.6343 41.7096 99.8999 39.0377 99.8999C36.3658 99.8999 34.2002 98.6343 34.2002 97.0874C34.2002 95.5405 36.3658 94.2749 39.0377 94.2749C41.7096 94.2749 43.8752 95.6249 43.8752 97.0874Z" fill="#FFCCDD"/>
</g>
</svg>
