<svg width="135" height="135" viewBox="0 0 135 135" fill="none" xmlns="http://www.w3.org/2000/svg">
<g id="streamline-emojis:hamster-face">
<path id="Vector" d="M4.21875 39.2906C4.21875 46.3545 7.02486 53.1291 12.0198 58.124C17.0147 63.1189 23.7892 65.925 30.8531 65.925C37.917 65.925 44.6916 63.1189 49.6865 58.124C54.6814 53.1291 57.4875 46.3545 57.4875 39.2906C57.4875 32.2267 54.6814 25.4522 49.6865 20.4573C44.6916 15.4624 37.917 12.6563 30.8531 12.6562C23.7892 12.6563 17.0147 15.4624 12.0198 20.4573C7.02486 25.4522 4.21875 32.2267 4.21875 39.2906ZM77.5125 39.2906C77.5125 46.3545 80.3186 53.1291 85.3135 58.124C90.3084 63.1189 97.083 65.925 104.147 65.925C111.211 65.925 117.985 63.1189 122.98 58.124C127.975 53.1291 130.781 46.3545 130.781 39.2906C130.781 32.2267 127.975 25.4522 122.98 20.4573C117.985 15.4624 111.211 12.6563 104.147 12.6562C97.083 12.6563 90.3084 15.4624 85.3135 20.4573C80.3186 25.4522 77.5125 32.2267 77.5125 39.2906Z" fill="#F0F0F0"/>
<path id="Vector_2" d="M30.9375 20.6437C37.3063 20.6515 43.4619 22.9387 48.2906 27.0915C53.1192 31.2444 56.3018 36.9884 57.2625 43.2844C57.4436 41.9893 57.5283 40.6826 57.5156 39.375C57.2909 32.4572 54.3848 25.898 49.4118 21.0839C44.4388 16.2699 37.7886 13.5783 30.8672 13.5783C23.9458 13.5783 17.2956 16.2699 12.3226 21.0839C7.34959 25.898 4.44352 32.4572 4.21875 39.375C4.22982 40.7129 4.34264 42.048 4.55625 43.3687C5.49454 37.0454 8.6758 31.2705 13.5192 27.0984C18.3626 22.9262 24.5449 20.6353 30.9375 20.6437ZM104.062 20.6437C110.428 20.6524 116.58 22.9407 121.404 27.0939C126.228 31.2472 129.405 36.9908 130.359 43.2844C130.974 39.4896 130.752 35.6064 129.71 31.9061C128.668 28.2058 126.831 24.7776 124.326 21.861C121.822 18.9443 118.712 16.6095 115.212 15.0197C111.711 13.4298 107.907 12.6232 104.062 12.6562C100.562 12.6636 97.0982 13.3608 93.8677 14.7079C90.6373 16.0549 87.704 18.0255 85.2356 20.507C82.7673 22.9884 80.8122 25.932 79.4822 29.1695C78.1521 32.407 77.4733 35.875 77.4844 39.375C77.4954 40.7129 77.6083 42.048 77.8219 43.3687C78.762 37.0717 81.9245 31.319 86.7374 27.151C91.5503 22.9829 97.6958 20.6747 104.062 20.6437Z" fill="white"/>
<path id="Vector_3" d="M4.21875 39.2906C4.21875 46.3545 7.02486 53.1291 12.0198 58.124C17.0147 63.1189 23.7893 65.925 30.8531 65.925C37.917 65.925 44.6916 63.1189 49.6865 58.124C54.6814 53.1291 57.4875 46.3545 57.4875 39.2906C57.4875 32.2267 54.6814 25.4522 49.6865 20.4573C44.6916 15.4624 37.917 12.6563 30.8531 12.6562C23.7893 12.6563 17.0147 15.4624 12.0198 20.4573C7.02486 25.4522 4.21875 32.2267 4.21875 39.2906ZM77.5125 39.2906C77.5125 46.3545 80.3186 53.1291 85.3135 58.124C90.3084 63.1189 97.083 65.925 104.147 65.925C111.211 65.925 117.985 63.1189 122.98 58.124C127.975 53.1291 130.781 46.3545 130.781 39.2906C130.781 32.2267 127.975 25.4522 122.98 20.4573C117.985 15.4624 111.211 12.6563 104.147 12.6562C97.083 12.6563 90.3084 15.4624 85.3135 20.4573C80.3186 25.4522 77.5125 32.2267 77.5125 39.2906Z" stroke="#45413C" stroke-linecap="round" stroke-linejoin="round"/>
<path id="Vector_4" d="M12.2063 39.2904C12.2063 41.7392 12.6886 44.1639 13.6257 46.4263C14.5628 48.6886 15.9363 50.7442 17.6678 52.4758C19.3994 54.2073 21.455 55.5808 23.7173 56.5179C25.9797 57.455 28.4044 57.9373 30.8532 57.9373C33.3019 57.9373 35.7267 57.455 37.989 56.5179C40.2514 55.5808 42.307 54.2073 44.0385 52.4758C45.77 50.7442 47.1435 48.6886 48.0806 46.4263C49.0177 44.1639 49.5 41.7392 49.5 39.2904C49.5 36.8417 49.0177 34.4169 48.0806 32.1546C47.1435 29.8922 45.77 27.8366 44.0385 26.1051C42.307 24.3736 40.2514 23.0001 37.989 22.063C35.7267 21.1259 33.3019 20.6436 30.8532 20.6436C28.4044 20.6436 25.9797 21.1259 23.7173 22.063C21.455 23.0001 19.3994 24.3736 17.6678 26.1051C15.9363 27.8366 14.5628 29.8922 13.6257 32.1546C12.6886 34.4169 12.2063 36.8417 12.2063 39.2904ZM85.5 39.2904C85.5 41.7392 85.9824 44.1639 86.9194 46.4263C87.8565 48.6886 89.2301 50.7442 90.9616 52.4758C92.6931 54.2073 94.7487 55.5808 97.0111 56.5179C99.2734 57.455 101.698 57.9373 104.147 57.9373C106.596 57.9373 109.02 57.455 111.283 56.5179C113.545 55.5808 115.601 54.2073 117.332 52.4758C119.064 50.7442 120.437 48.6886 121.374 46.4263C122.311 44.1639 122.794 41.7392 122.794 39.2904C122.794 36.8417 122.311 34.4169 121.374 32.1546C120.437 29.8922 119.064 27.8366 117.332 26.1051C115.601 24.3736 113.545 23.0001 111.283 22.063C109.02 21.1259 106.596 20.6436 104.147 20.6436C101.698 20.6436 99.2734 21.1259 97.0111 22.063C94.7487 23.0001 92.6931 24.3736 90.9616 26.1051C89.2301 27.8366 87.8565 29.8922 86.9194 32.1546C85.9824 34.4169 85.5 36.8417 85.5 39.2904Z" fill="#FFB0CA"/>
<path id="Vector_5" d="M30.9375 26.972C35.3216 26.9894 39.5588 28.5532 42.903 31.3881C46.2472 34.2229 48.4837 38.1469 49.2188 42.4689C49.4169 41.4493 49.5205 40.4137 49.5282 39.3751C49.3409 34.5513 47.2929 29.9874 43.8137 26.6407C40.3346 23.2941 35.6947 21.4247 30.8672 21.4247C26.0398 21.4247 21.3999 23.2941 17.9207 26.6407C14.4416 29.9874 12.3936 34.5513 12.2063 39.3751C12.2139 40.4404 12.308 41.5032 12.4875 42.5532C13.2201 38.1921 15.4766 34.2325 18.8552 31.3792C22.2338 28.5259 26.5153 26.9642 30.9375 26.972ZM104.063 26.972C108.458 26.9807 112.71 28.5395 116.069 31.3741C119.428 34.2088 121.68 38.1375 122.428 42.4689C122.608 41.4188 122.702 40.356 122.709 39.2907C122.522 34.4669 120.474 29.903 116.995 26.5564C113.516 23.2097 108.876 21.3403 104.048 21.3403C99.221 21.3403 94.5811 23.2097 91.102 26.5564C87.6229 29.903 85.5749 34.4669 85.3876 39.2907C85.39 40.3575 85.4936 41.4216 85.6969 42.4689C86.4344 38.1326 88.6833 34.1975 92.045 31.3609C95.4067 28.5243 99.664 26.9695 104.063 26.972Z" fill="#FF87AF"/>
<path id="Vector_6" d="M12.2063 39.2904C12.2063 41.7392 12.6886 44.1639 13.6257 46.4263C14.5628 48.6886 15.9363 50.7442 17.6678 52.4758C19.3994 54.2073 21.455 55.5808 23.7173 56.5179C25.9797 57.455 28.4044 57.9373 30.8532 57.9373C33.3019 57.9373 35.7267 57.455 37.989 56.5179C40.2514 55.5808 42.307 54.2073 44.0385 52.4758C45.77 50.7442 47.1435 48.6886 48.0806 46.4263C49.0177 44.1639 49.5 41.7392 49.5 39.2904C49.5 36.8417 49.0177 34.4169 48.0806 32.1546C47.1435 29.8922 45.77 27.8366 44.0385 26.1051C42.307 24.3736 40.2514 23.0001 37.989 22.063C35.7267 21.1259 33.3019 20.6436 30.8532 20.6436C28.4044 20.6436 25.9797 21.1259 23.7173 22.063C21.455 23.0001 19.3994 24.3736 17.6678 26.1051C15.9363 27.8366 14.5628 29.8922 13.6257 32.1546C12.6886 34.4169 12.2063 36.8417 12.2063 39.2904ZM85.5 39.2904C85.5 41.7392 85.9824 44.1639 86.9194 46.4263C87.8565 48.6886 89.2301 50.7442 90.9616 52.4758C92.6931 54.2073 94.7487 55.5808 97.0111 56.5179C99.2734 57.455 101.698 57.9373 104.147 57.9373C106.596 57.9373 109.02 57.455 111.283 56.5179C113.545 55.5808 115.601 54.2073 117.332 52.4758C119.064 50.7442 120.437 48.6886 121.374 46.4263C122.311 44.1639 122.794 41.7392 122.794 39.2904C122.794 36.8417 122.311 34.4169 121.374 32.1546C120.437 29.8922 119.064 27.8366 117.332 26.1051C115.601 24.3736 113.545 23.0001 111.283 22.063C109.02 21.1259 106.596 20.6436 104.147 20.6436C101.698 20.6436 99.2734 21.1259 97.0111 22.063C94.7487 23.0001 92.6931 24.3736 90.9616 26.1051C89.2301 27.8366 87.8565 29.8922 86.9194 32.1546C85.9824 34.4169 85.5 36.8417 85.5 39.2904Z" stroke="#45413C" stroke-linecap="round" stroke-linejoin="round"/>
<path id="Vector_7" opacity="0.15" d="M35.1562 125.156C35.1563 126.275 38.5639 127.348 44.6295 128.139C50.6951 128.931 58.9219 129.375 67.5 129.375C76.0781 129.375 84.3049 128.931 90.3705 128.139C96.4361 127.348 99.8438 126.275 99.8438 125.156C99.8438 124.037 96.4361 122.964 90.3705 122.173C84.3049 121.382 76.0781 120.938 67.5 120.938C58.9219 120.938 50.6951 121.382 44.6295 122.173C38.5639 122.964 35.1563 124.037 35.1562 125.156Z" fill="#45413C"/>
<path id="Vector_8" d="M106.875 73.9127C104.596 70.987 103.358 67.384 103.359 63.6752C103.413 60.6944 103.044 57.721 102.263 54.8439C100 47.0723 95.2077 40.2785 88.6453 35.5401C82.0829 30.8018 74.1263 28.3901 66.0376 28.6877C56.9586 28.8455 48.2935 32.5129 41.8596 38.9205C35.4258 45.3281 31.7231 53.9782 31.5282 63.0564C31.4742 67.1164 30.1351 71.0549 27.7032 74.3064C24.8206 78.3195 23.3561 83.1781 23.5407 88.1158C24.0469 100.575 35.3532 110.166 48.3751 110.166H49.6969C52.7091 109.775 55.7705 110.243 58.5282 111.516C61.2532 113.099 64.3485 113.933 67.5001 113.933C70.6516 113.933 73.747 113.099 76.4719 111.516C79.2296 110.243 82.291 109.775 85.3032 110.166H86.6251C99.1407 110.166 110.194 101.363 111.347 89.4377C111.868 83.8838 110.271 78.3381 106.875 73.9127Z" fill="#F0F0F0"/>
<path id="Vector_9" d="M31.6688 68.1189C32.5856 59.5614 36.595 51.6329 42.9441 45.8224C49.2931 40.012 57.545 36.7193 66.1501 36.5627C74.256 36.2784 82.2244 38.7121 88.7881 43.477C95.3519 48.2418 100.134 55.0643 102.375 62.8595C102.843 64.581 103.153 66.3414 103.303 68.1189H104.063C103.622 66.6793 103.404 65.1807 103.416 63.6752C103.469 60.6944 103.1 57.721 102.319 54.8439C100.056 47.0723 95.264 40.2785 88.7016 35.5401C82.1392 30.8018 74.1826 28.3901 66.0938 28.6877C57.0051 28.8311 48.3258 32.4921 41.8799 38.9012C35.4341 45.3104 31.7236 53.9686 31.5282 63.0564C31.507 64.7543 31.2417 66.4403 30.7407 68.0627L31.6688 68.1189Z" fill="white"/>
<path id="Vector_10" d="M106.875 73.9127C104.596 70.987 103.358 67.384 103.359 63.6752C103.413 60.6944 103.044 57.721 102.263 54.8439C100 47.0723 95.2077 40.2785 88.6453 35.5401C82.0829 30.8018 74.1263 28.3901 66.0376 28.6877C56.9634 28.8453 48.3023 32.5087 41.8692 38.9103C35.4361 45.312 31.7303 53.955 31.5282 63.0283C31.4742 67.0883 30.1351 71.0268 27.7032 74.2783C24.8206 78.2914 23.3561 83.15 23.5407 88.0877C24.0469 100.547 35.3532 110.138 48.3751 110.138H49.6969C52.7091 109.746 55.7705 110.214 58.5282 111.488C61.2532 113.071 64.3485 113.905 67.5001 113.905C70.6516 113.905 73.747 113.071 76.4719 111.488C79.2296 110.214 82.291 109.746 85.3032 110.138H86.6251C99.1407 110.138 110.194 101.335 111.347 89.4095C111.861 83.8651 110.264 78.3307 106.875 73.9127Z" stroke="#45413C" stroke-linecap="round" stroke-linejoin="round"/>
<path id="Vector_11" d="M75.4875 99.7031C75.0367 101.48 74.0065 103.055 72.5599 104.181C71.1133 105.306 69.3328 105.917 67.5 105.917C65.6671 105.917 63.8866 105.306 62.44 104.181C60.9934 103.055 59.9632 101.48 59.5125 99.7031C59.5125 97.425 63.0843 96.6094 67.5 96.6094C71.9156 96.6094 75.4875 97.425 75.4875 99.7031Z" fill="#FFB0CA"/>
<path id="Vector_12" d="M67.5 101.25C69.8246 101.085 72.1538 101.501 74.2781 102.459C74.9733 101.677 75.3975 100.69 75.4875 99.647C75.4875 97.3688 71.9156 96.5532 67.5 96.5532C63.0843 96.5532 59.5125 97.3688 59.5125 99.647C59.6024 100.69 60.0266 101.677 60.7218 102.459C62.8461 101.501 65.1753 101.085 67.5 101.25Z" fill="#FFCCDD"/>
<path id="Vector_13" d="M75.4875 99.7031C75.0367 101.48 74.0065 103.055 72.5599 104.181C71.1133 105.306 69.3328 105.917 67.5 105.917C65.6671 105.917 63.8866 105.306 62.44 104.181C60.9934 103.055 59.9632 101.48 59.5125 99.7031C59.5125 97.425 63.0843 96.6094 67.5 96.6094C71.9156 96.6094 75.4875 97.425 75.4875 99.7031Z" stroke="#45413C" stroke-linecap="round" stroke-linejoin="round"/>
<path id="Vector_14" d="M106.875 73.9126C104.596 70.9869 103.358 67.3839 103.359 63.675C103.413 60.6942 103.044 57.7209 102.263 54.8438C100.012 47.1417 95.2782 40.4001 88.7972 35.6692C82.3163 30.9382 74.4527 28.4835 66.4313 28.6875L62.3812 34.8188C60.912 36.9759 59.9534 39.4392 59.5782 42.022C59.203 44.6048 59.421 47.2391 60.2156 49.725C61.8442 54.3459 65.0779 58.2283 69.3281 60.6657C70.5036 61.3011 71.4247 62.3216 71.9368 63.5558C72.4489 64.79 72.5209 66.1628 72.1406 67.4438C70.0875 73.7157 71.6906 83.5032 77.9906 87.2719L80.0437 88.5094C86.2031 92.2219 95.175 90.4219 102.544 89.1C105.596 88.5612 108.529 87.4852 111.206 85.9219C110.962 81.5826 109.457 77.4089 106.875 73.9126Z" fill="#FFAA54"/>
<path id="Vector_15" d="M104.063 68.1188C103.622 66.6792 103.404 65.1806 103.416 63.675C103.469 60.6942 103.1 57.7209 102.319 54.8438C100.069 47.1417 95.3345 40.4001 88.8536 35.6692C82.3727 30.9382 74.509 28.4835 66.4876 28.6875L62.4376 34.8188C61.9269 35.5847 61.4846 36.3941 61.1157 37.2375C62.7789 36.9345 64.461 36.7466 66.1501 36.675C74.2425 36.3792 82.2019 38.7949 88.7648 43.5387C95.3276 48.2825 100.118 55.0825 102.375 62.8594C102.852 64.5802 103.172 66.3404 103.331 68.1188H104.063Z" fill="#FFCC99"/>
<path id="Vector_16" d="M106.875 73.9126C104.596 70.9868 103.358 67.3839 103.359 63.675C103.413 60.6942 103.044 57.7209 102.263 54.8438C100.012 47.1417 95.2782 40.4001 88.7972 35.6692C82.3163 30.9382 74.4526 28.4835 66.4313 28.6875L62.3812 34.8188C60.912 36.9759 59.9534 39.4392 59.5782 42.022C59.203 44.6048 59.421 47.2391 60.2156 49.725C61.8442 54.3459 65.0779 58.2283 69.3281 60.6657C70.5036 61.3011 71.4247 62.3216 71.9368 63.5558C72.4489 64.79 72.5209 66.1628 72.1406 67.4438C70.0875 73.7157 71.6906 83.5032 77.9906 87.2719L80.0437 88.5094C86.2031 92.2219 95.175 90.4219 102.544 89.1C105.596 88.5612 108.529 87.4852 111.206 85.9219C110.962 81.5826 109.457 77.4089 106.875 73.9126Z" stroke="#45413C" stroke-linecap="round" stroke-linejoin="round"/>
<path id="Vector_17" d="M90.1406 79.2843C90.1406 80.0742 89.9064 80.8463 89.4676 81.5031C89.0287 82.1599 88.405 82.6717 87.6752 82.974C86.9455 83.2763 86.1424 83.3554 85.3677 83.2013C84.593 83.0472 83.8814 82.6668 83.3229 82.1083C82.7643 81.5497 82.384 80.8381 82.2299 80.0634C82.0758 79.2887 82.1549 78.4857 82.4571 77.7559C82.7594 77.0262 83.2713 76.4024 83.9281 75.9636C84.5848 75.5248 85.357 75.2905 86.1469 75.2905C87.2061 75.2905 88.2219 75.7113 88.9709 76.4603C89.7199 77.2092 90.1406 78.2251 90.1406 79.2843ZM52.8469 79.2843C52.8469 80.0742 52.6127 80.8463 52.1738 81.5031C51.735 82.1599 51.1112 82.6717 50.3815 82.974C49.6517 83.2763 48.8487 83.3554 48.074 83.2013C47.2993 83.0472 46.5877 82.6668 46.0291 82.1083C45.4706 81.5497 45.0902 80.8381 44.9361 80.0634C44.782 79.2887 44.8611 78.4857 45.1634 77.7559C45.4657 77.0262 45.9776 76.4024 46.6343 75.9636C47.2911 75.5248 48.0632 75.2905 48.8531 75.2905C49.9101 75.2979 50.9216 75.721 51.669 76.4684C52.4164 77.2158 52.8395 78.2273 52.8469 79.2843Z" fill="#45413C" stroke="#45413C" stroke-linecap="round" stroke-linejoin="round"/>
<path id="Vector_18" d="M100.8 97.0874C100.8 98.6343 98.6343 99.8999 95.9625 99.8999C93.2906 99.8999 91.125 98.6343 91.125 97.0874C91.125 95.5405 93.2906 94.2749 95.9625 94.2749C98.6343 94.2749 100.8 95.6249 100.8 97.0874ZM43.875 97.0874C43.875 98.6343 41.7093 99.8999 39.0375 99.8999C36.3656 99.8999 34.2 98.6343 34.2 97.0874C34.2 95.5405 36.3656 94.2749 39.0375 94.2749C41.7093 94.2749 43.875 95.6249 43.875 97.0874Z" fill="#FFCCDD"/>
</g>
</svg>
