<svg width="45" height="45" viewBox="0 0 45 45" fill="none" xmlns="http://www.w3.org/2000/svg">
<g id="ant-design:man-outlined">
<path id="Vector" d="M38.4082 5.27344H27.334C27.189 5.27344 27.0703 5.39209 27.0703 5.53711V7.99805C27.0703 8.14307 27.189 8.26172 27.334 8.26172H34.3828L25.6245 17.02C23.4272 15.3281 20.7466 14.4141 17.9297 14.4141C14.5503 14.4141 11.3687 15.7324 8.98242 18.123C6.59619 20.5137 5.27344 23.6909 5.27344 27.0703C5.27344 30.4497 6.5918 33.6313 8.98242 36.0176C11.3687 38.4082 14.5503 39.7266 17.9297 39.7266C21.3091 39.7266 24.4907 38.4082 26.877 36.0176C29.2676 33.6313 30.5859 30.4497 30.5859 27.0703C30.5859 24.2534 29.6719 21.5815 27.9844 19.3843L36.7383 10.6304V17.666C36.7383 17.811 36.8569 17.9297 37.002 17.9297H39.4629C39.6079 17.9297 39.7266 17.811 39.7266 17.666V6.5918C39.7266 5.8667 39.1333 5.27344 38.4082 5.27344ZM17.9297 36.3867C12.7925 36.3867 8.61328 32.2075 8.61328 27.0703C8.61328 21.9331 12.7925 17.7539 17.9297 17.7539C23.0669 17.7539 27.2461 21.9331 27.2461 27.0703C27.2461 32.2075 23.0669 36.3867 17.9297 36.3867Z" fill="#897F66"/>
</g>
</svg>
