<svg width="135" height="135" viewBox="0 0 135 135" fill="none" xmlns="http://www.w3.org/2000/svg">
<g id="streamline-emojis:rabbit">
<path id="Vector" opacity="0.15" d="M20.2783 126.928C20.2783 128.323 25.2683 129.661 34.1505 130.647C43.0327 131.634 55.0795 132.188 67.6408 132.188C80.2021 132.188 92.249 131.634 101.131 130.647C110.013 129.661 115.003 128.323 115.003 126.928C115.003 125.533 110.013 124.196 101.131 123.209C92.249 122.223 80.2021 121.669 67.6408 121.669C55.0795 121.669 43.0327 122.223 34.1505 123.209C25.2683 124.196 20.2783 125.533 20.2783 126.928Z" fill="#45413C"/>
<path id="Vector_2" d="M37.8281 46.7438C37.8281 46.7438 38.025 38.3063 48.3469 23.9625C58.6688 9.6188 67.8375 8.38129 69.3844 9.90004C70.9312 11.4188 72.0281 21.5157 62.3812 34.4532C57.8072 40.9787 51.805 46.3749 44.8312 50.2313L37.8281 46.7438Z" fill="#E5FEFF"/>
<path id="Vector_3" d="M48.3469 35.4655C58.4156 21.403 67.4156 19.9686 69.2438 21.403C71.1281 15.2155 70.3406 10.9405 69.3844 9.98422C67.8375 8.43734 58.6406 9.53422 48.3469 24.0467C38.0531 38.5592 37.8281 46.828 37.8281 46.828L40.8375 48.3467C42.9096 43.8158 45.4249 39.501 48.3469 35.4655Z" fill="white"/>
<path id="Vector_4" d="M37.8281 46.7438C37.8281 46.7438 38.025 38.3063 48.3469 23.9625C58.6688 9.6188 67.8375 8.38129 69.3844 9.90004C70.9312 11.4188 72.0281 21.5157 62.3812 34.4532C57.8072 40.9787 51.805 46.3749 44.8312 50.2313L37.8281 46.7438Z" stroke="#45413C" stroke-linecap="round" stroke-linejoin="round"/>
<path id="Vector_5" d="M106.2 69.5533C106.2 71.8806 107.124 74.1125 108.77 75.7582C110.416 77.4038 112.648 78.3283 114.975 78.3283C117.302 78.3283 119.534 77.4038 121.18 75.7582C122.825 74.1125 123.75 71.8806 123.75 69.5533C123.75 67.226 122.825 64.9941 121.18 63.3485C119.534 61.7028 117.302 60.7783 114.975 60.7783C112.648 60.7783 110.416 61.7028 108.77 63.3485C107.124 64.9941 106.2 67.226 106.2 69.5533Z" fill="white" stroke="#45413C" stroke-linecap="round" stroke-linejoin="round"/>
<path id="Vector_6" d="M118.491 88.847C118.491 65.6158 97.4533 62.5502 83.4189 62.5502H60.6096C59.9538 60.0638 58.9602 57.6791 57.6564 55.4627C63.3914 54.949 69.0513 53.7982 74.5314 52.0314C89.4377 47.4189 99.8439 40.3877 99.0846 37.9689C98.3252 35.5502 88.9877 32.7095 70.9596 36.197C62.4089 37.7488 54.4167 41.5219 47.7846 47.1377C47.3347 46.9677 46.8744 46.8268 46.4064 46.7158C36.3377 44.5502 27.3377 50.0064 21.8533 53.747C18.7445 55.8293 15.8183 58.1721 13.1064 60.7502C13.1064 60.7502 13.8096 72.2814 23.6252 76.5564C28.0377 78.5136 32.9308 79.1203 37.6877 78.3002C37.6877 78.3002 38.4471 89.8877 45.0846 96.3845L39.4596 117.76H37.7158C36.4479 117.978 35.2601 118.528 34.2725 119.353C33.2849 120.177 32.5323 121.248 32.0908 122.456C31.8439 122.991 31.7363 123.579 31.778 124.166C31.8198 124.754 32.0096 125.321 32.3296 125.815C32.6497 126.309 33.0897 126.714 33.6086 126.993C34.1275 127.271 34.7083 127.413 35.2971 127.406H45.1971C46.6315 127.408 48.0319 126.97 49.209 126.15C50.386 125.33 51.2829 124.168 51.7783 122.822L59.5408 101.728C66.0691 102.564 72.6471 102.949 79.2283 102.881C79.7144 108.216 82.0879 113.203 85.9221 116.944H78.4971C72.0002 116.944 70.2846 120.01 70.0596 122.569C69.9822 123.064 70.0132 123.569 70.1502 124.05C70.2873 124.532 70.5272 124.978 70.8535 125.358C71.1797 125.737 71.5845 126.042 72.0398 126.25C72.4951 126.458 72.9902 126.565 73.4908 126.563H88.0596C100.913 126.563 118.491 111.656 118.491 88.847Z" fill="#E5FEFF"/>
<path id="Vector_7" d="M60.6094 62.5498C60.6168 64.3377 61.3303 66.0503 62.5946 67.3146C63.8588 68.5788 65.5714 69.2924 67.3594 69.2998H83.4187C96.8344 69.2998 116.634 72.1123 118.322 92.756C118.322 91.4904 118.491 90.1966 118.491 88.8466C118.491 65.6154 97.4531 62.5498 83.4187 62.5498H60.6094ZM22.0219 60.5248C27.5063 56.8123 36.5625 51.3279 46.575 53.4373C47.0424 53.5386 47.5027 53.6702 47.9531 53.831C54.5818 48.2152 62.5766 44.4507 71.1281 42.9185C82.9969 40.5841 91.0969 41.0623 95.4562 42.3279C98.0719 40.4435 99.45 38.8404 99.1969 37.9123C98.55 35.4935 89.1 32.6529 71.0719 36.1404C62.5212 37.6922 54.529 41.4652 47.8969 47.081C47.447 46.9111 46.9867 46.7702 46.5188 46.6591C36.45 44.4935 27.45 49.9498 21.9656 53.6904C18.8568 55.7726 15.9306 58.1155 13.2188 60.6935C13.4039 62.6167 13.8388 64.5077 14.5125 66.3185C16.8989 64.2405 19.4064 62.3059 22.0219 60.5248Z" fill="white"/>
<path id="Vector_8" d="M118.491 88.847C118.491 65.6158 97.4533 62.5502 83.4189 62.5502H60.6096C59.9538 60.0638 58.9602 57.6791 57.6564 55.4627C63.3914 54.949 69.0513 53.7982 74.5314 52.0314C89.4377 47.4189 99.8439 40.3877 99.0846 37.9689C98.3252 35.5502 88.9877 32.7095 70.9596 36.197C62.4089 37.7488 54.4167 41.5219 47.7846 47.1377C47.3347 46.9677 46.8744 46.8268 46.4064 46.7158C36.3377 44.5502 27.3377 50.0064 21.8533 53.747C18.7445 55.8293 15.8183 58.1721 13.1064 60.7502C13.1064 60.7502 13.8096 72.2814 23.6252 76.5564C28.0376 78.5136 32.9308 79.1203 37.6877 78.3002C37.6877 78.3002 38.4471 89.8877 45.0846 96.3845L39.4596 117.76H37.7158C36.4479 117.978 35.2601 118.528 34.2725 119.353C33.2849 120.177 32.5323 121.248 32.0908 122.456C31.8439 122.991 31.7363 123.579 31.778 124.166C31.8198 124.754 32.0096 125.321 32.3296 125.815C32.6497 126.309 33.0897 126.714 33.6086 126.993C34.1275 127.271 34.7083 127.413 35.2971 127.406H45.1971C46.6315 127.408 48.0319 126.97 49.209 126.15C50.386 125.33 51.2829 124.168 51.7783 122.822L59.5408 101.728C66.0691 102.564 72.6471 102.949 79.2283 102.881C79.7144 108.216 82.0879 113.203 85.9221 116.944H78.4971C72.0002 116.944 70.2846 120.01 70.0596 122.569C69.9822 123.064 70.0132 123.569 70.1502 124.05C70.2873 124.532 70.5272 124.978 70.8535 125.358C71.1797 125.737 71.5845 126.042 72.0398 126.25C72.4951 126.458 72.9902 126.565 73.4908 126.563H88.0596C100.913 126.563 118.491 111.656 118.491 88.847Z" stroke="#45413C" stroke-linecap="round" stroke-linejoin="round"/>
<path id="Vector_9" d="M85.9499 117.113C82.5794 113.87 80.3353 109.633 79.5458 105.023C78.7563 100.412 79.463 95.6705 81.5625 91.4907" stroke="#45413C" stroke-linecap="round" stroke-linejoin="round"/>
<path id="Vector_10" d="M59.0625 55.3219C64.3525 54.7444 69.572 53.6421 74.6438 52.0312C81.6957 49.9506 88.4253 46.9029 94.6406 42.975C90.5625 41.0062 84.375 40.5281 74.6438 43.2562C61.3406 46.9687 59.9063 54.1125 59.0625 55.3219Z" fill="#FFA694" stroke="#45413C" stroke-linecap="round" stroke-linejoin="round"/>
<path id="Vector_11" d="M42.1874 57.8812C42.193 58.5789 41.9908 59.2624 41.6066 59.8449C41.2225 60.4273 40.6737 60.8822 40.0302 61.1518C39.3866 61.4214 38.6775 61.4934 37.9929 61.3586C37.3083 61.2239 36.6793 60.8885 36.186 60.3951C35.6926 59.9017 35.3572 59.2727 35.2224 58.5882C35.0877 57.9036 35.1597 57.1944 35.4292 56.5509C35.6988 55.9073 36.1538 55.3586 36.7362 54.9744C37.3186 54.5903 38.0022 54.3881 38.6999 54.3937C39.6226 54.401 40.5054 54.7708 41.1578 55.4233C41.8102 56.0757 42.18 56.9585 42.1874 57.8812Z" fill="#45413C"/>
<path id="Vector_12" d="M45.2812 66.15C45.2812 67.1344 46.8563 67.9219 48.7969 67.9219C50.7375 67.9219 52.3125 67.1344 52.3125 66.15C52.3125 65.1656 50.7375 64.4062 48.7969 64.4062C46.8563 64.4062 45.2812 65.1938 45.2812 66.15Z" fill="#FFCC99"/>
<path id="Vector_13" d="M21.7405 62.3813C21.7405 60.5251 18.928 59.0345 15.2155 59.0063C13.978 60.0751 13.2749 60.7782 13.2749 60.7782C13.4724 62.7836 13.9456 64.7522 14.6812 66.6282C18.8437 66.8532 21.7405 64.1532 21.7405 62.3813Z" fill="#FFA694" stroke="#45413C" stroke-linecap="round" stroke-linejoin="round"/>
</g>
</svg>
