<svg width="320" height="726" viewBox="0 0 320 726" fill="none" xmlns="http://www.w3.org/2000/svg">
<rect width="320" height="726" rx="16" fill="#ADC798"/>
<rect x="134.5" y="32" width="24" height="10" rx="5" fill="#897F66"/>
<circle cx="167.5" cy="37" r="5" fill="#EAE3D3"/>
<circle cx="181.5" cy="37" r="5" fill="#EAE3D3"/>
<path d="M38.688 167.816L35.584 162.792C34.9653 161.811 33.952 161.32 32.544 161.32C30.368 161.32 28.4693 160.84 26.848 159.88C25.2267 158.92 23.968 157.576 23.072 155.848C22.176 154.099 21.728 152.051 21.728 149.704C21.728 147.336 22.176 145.288 23.072 143.56C23.968 141.832 25.2267 140.499 26.848 139.56C28.4693 138.6 30.3787 138.12 32.576 138.12C34.7733 138.12 36.6827 138.6 38.304 139.56C39.9253 140.499 41.184 141.832 42.08 143.56C42.976 145.288 43.424 147.325 43.424 149.672C43.424 152.232 42.8907 154.429 41.824 156.264C40.7787 158.099 39.328 159.443 37.472 160.296C38.3893 160.595 39.1787 161.309 39.84 162.44L42.176 166.152L38.688 167.816ZM32.576 157.8C34.6453 157.8 36.256 157.085 37.408 155.656C38.56 154.227 39.136 152.243 39.136 149.704C39.136 147.144 38.56 145.16 37.408 143.752C36.2773 142.344 34.6667 141.64 32.576 141.64C30.5067 141.64 28.896 142.344 27.744 143.752C26.592 145.16 26.016 147.144 26.016 149.704C26.016 152.243 26.592 154.227 27.744 155.656C28.896 157.085 30.5067 157.8 32.576 157.8ZM52.869 161.32C49.029 161.32 47.109 159.165 47.109 154.856V145.352H51.109V154.92C51.109 156.029 51.333 156.851 51.781 157.384C52.229 157.917 52.9437 158.184 53.925 158.184C54.9917 158.184 55.8663 157.821 56.549 157.096C57.2317 156.349 57.573 155.368 57.573 154.152V145.352H61.573V161H57.669V158.664C56.6237 160.435 55.0237 161.32 52.869 161.32ZM73.4483 161.32C71.6776 161.32 70.1523 160.989 68.8723 160.328C67.5923 159.667 66.6003 158.728 65.8963 157.512C65.2136 156.296 64.8723 154.856 64.8723 153.192C64.8723 151.571 65.2029 150.152 65.8643 148.936C66.5469 147.72 67.4749 146.771 68.6483 146.088C69.8429 145.384 71.1976 145.032 72.7123 145.032C74.9309 145.032 76.6803 145.736 77.9603 147.144C79.2616 148.552 79.9123 150.472 79.9123 152.904V154.088H68.7123C69.0109 156.883 70.6109 158.28 73.5123 158.28C74.3869 158.28 75.2616 158.152 76.1363 157.896C77.0109 157.619 77.8109 157.192 78.5363 156.616L79.6562 159.304C78.9096 159.923 77.9709 160.413 76.8403 160.776C75.7096 161.139 74.5789 161.32 73.4483 161.32ZM72.8723 147.752C71.6989 147.752 70.7496 148.115 70.0243 148.84C69.2989 149.565 68.8616 150.547 68.7123 151.784H76.5843C76.4989 150.483 76.1363 149.491 75.4963 148.808C74.8776 148.104 74.0029 147.752 72.8723 147.752ZM88.52 161.32C86.664 161.32 85.288 160.819 84.392 159.816C83.5173 158.792 83.08 157.299 83.08 155.336V138.44H87.08V155.144C87.08 157.064 87.8907 158.024 89.512 158.024C89.7467 158.024 89.9813 158.013 90.216 157.992C90.4507 157.971 90.6747 157.928 90.888 157.864L90.824 161.032C90.056 161.224 89.288 161.32 88.52 161.32ZM109.092 161.32C104.953 161.32 102.884 159.272 102.884 155.176V148.36H99.8758V145.352H102.884V140.68H106.884V145.352H111.62V148.36H106.884V154.952C106.884 155.976 107.108 156.744 107.556 157.256C108.004 157.768 108.729 158.024 109.732 158.024C110.03 158.024 110.34 157.992 110.66 157.928C110.98 157.843 111.31 157.757 111.652 157.672L112.26 160.616C111.876 160.829 111.385 161 110.788 161.128C110.212 161.256 109.646 161.32 109.092 161.32ZM115.863 166.76L118.743 160.36L112.247 145.352H116.503L120.887 156.296L125.367 145.352H129.399L119.991 166.76H115.863ZM131.299 166.76V145.352H135.203V147.848C135.651 146.995 136.323 146.312 137.219 145.8C138.136 145.288 139.171 145.032 140.323 145.032C141.688 145.032 142.883 145.363 143.907 146.024C144.952 146.685 145.763 147.624 146.339 148.84C146.915 150.035 147.203 151.475 147.203 153.16C147.203 154.824 146.915 156.275 146.339 157.512C145.763 158.728 144.963 159.667 143.939 160.328C142.915 160.989 141.709 161.32 140.323 161.32C139.213 161.32 138.211 161.085 137.315 160.616C136.44 160.125 135.768 159.475 135.299 158.664V166.76H131.299ZM139.203 158.28C140.397 158.28 141.357 157.853 142.083 157C142.808 156.125 143.171 154.845 143.171 153.16C143.171 151.453 142.808 150.184 142.083 149.352C141.357 148.499 140.397 148.072 139.203 148.072C138.008 148.072 137.048 148.499 136.323 149.352C135.597 150.184 135.235 151.453 135.235 153.16C135.235 154.845 135.597 156.125 136.323 157C137.048 157.853 138.008 158.28 139.203 158.28ZM158.198 161.32C156.428 161.32 154.902 160.989 153.622 160.328C152.342 159.667 151.35 158.728 150.646 157.512C149.964 156.296 149.622 154.856 149.622 153.192C149.622 151.571 149.953 150.152 150.614 148.936C151.297 147.72 152.225 146.771 153.398 146.088C154.593 145.384 155.948 145.032 157.462 145.032C159.681 145.032 161.43 145.736 162.71 147.144C164.012 148.552 164.662 150.472 164.662 152.904V154.088H153.462C153.761 156.883 155.361 158.28 158.262 158.28C159.137 158.28 160.012 158.152 160.886 157.896C161.761 157.619 162.561 157.192 163.286 156.616L164.406 159.304C163.66 159.923 162.721 160.413 161.59 160.776C160.46 161.139 159.329 161.32 158.198 161.32ZM157.622 147.752C156.449 147.752 155.5 148.115 154.774 148.84C154.049 149.565 153.612 150.547 153.462 151.784H161.334C161.249 150.483 160.886 149.491 160.246 148.808C159.628 148.104 158.753 147.752 157.622 147.752ZM28.096 205.32C26.7307 205.32 25.5253 204.989 24.48 204.328C23.456 203.667 22.656 202.728 22.08 201.512C21.504 200.275 21.216 198.824 21.216 197.16C21.216 195.475 21.504 194.035 22.08 192.84C22.656 191.624 23.456 190.685 24.48 190.024C25.5253 189.363 26.7307 189.032 28.096 189.032C29.2053 189.032 30.208 189.277 31.104 189.768C32 190.259 32.672 190.909 33.12 191.72V182.44H37.12V205H33.216V202.408C32.7893 203.304 32.1173 204.019 31.2 204.552C30.2827 205.064 29.248 205.32 28.096 205.32ZM29.216 202.28C30.4107 202.28 31.3707 201.853 32.096 201C32.8213 200.125 33.184 198.845 33.184 197.16C33.184 195.453 32.8213 194.184 32.096 193.352C31.3707 192.499 30.4107 192.072 29.216 192.072C28.0213 192.072 27.0613 192.499 26.336 193.352C25.6107 194.184 25.248 195.453 25.248 197.16C25.248 198.845 25.6107 200.125 26.336 201C27.0613 201.853 28.0213 202.28 29.216 202.28ZM42.8675 191.144L41.2355 189.864C42.2168 188.84 42.7928 187.848 42.9635 186.888H40.9155V182.44H45.3955V185.352C45.3955 186.461 45.2035 187.475 44.8195 188.392C44.4568 189.288 43.8062 190.205 42.8675 191.144ZM54.357 205.32C53.2263 205.32 52.213 205.107 51.317 204.68C50.4423 204.232 49.749 203.635 49.237 202.888C48.7463 202.141 48.501 201.299 48.501 200.36C48.501 199.208 48.7997 198.301 49.397 197.64C49.9943 196.957 50.965 196.467 52.309 196.168C53.653 195.869 55.4557 195.72 57.717 195.72H58.837V195.048C58.837 193.981 58.6023 193.213 58.133 192.744C57.6637 192.275 56.8743 192.04 55.765 192.04C54.8903 192.04 53.9943 192.179 53.077 192.456C52.1597 192.712 51.2317 193.117 50.293 193.672L49.141 190.952C49.6957 190.568 50.3463 190.237 51.093 189.96C51.861 189.661 52.661 189.437 53.493 189.288C54.3463 189.117 55.1463 189.032 55.893 189.032C58.1757 189.032 59.8717 189.565 60.981 190.632C62.0903 191.677 62.645 193.309 62.645 195.528V205H58.901V202.504C58.5383 203.379 57.9623 204.072 57.173 204.584C56.3837 205.075 55.445 205.32 54.357 205.32ZM55.189 202.568C56.2343 202.568 57.0983 202.205 57.781 201.48C58.485 200.755 58.837 199.837 58.837 198.728V198.024H57.749C55.7437 198.024 54.3463 198.184 53.557 198.504C52.789 198.803 52.405 199.357 52.405 200.168C52.405 200.872 52.6503 201.448 53.141 201.896C53.6317 202.344 54.3143 202.568 55.189 202.568ZM66.705 205V189.352H70.609V191.784C71.1423 190.888 71.857 190.205 72.753 189.736C73.6703 189.267 74.6943 189.032 75.825 189.032C79.5157 189.032 81.361 191.176 81.361 195.464V205H77.361V195.656C77.361 194.44 77.1263 193.555 76.657 193C76.209 192.445 75.505 192.168 74.545 192.168C73.3717 192.168 72.433 192.541 71.729 193.288C71.0463 194.013 70.705 194.984 70.705 196.2V205H66.705ZM85.1678 185.992V182.088H89.6478V185.992H85.1678ZM85.4238 205V189.352H89.4238V205H85.4238ZM93.644 205V189.352H97.548V191.752C98.0173 190.899 98.668 190.237 99.5 189.768C100.332 189.277 101.292 189.032 102.38 189.032C104.727 189.032 106.263 190.056 106.988 192.104C107.479 191.144 108.183 190.397 109.1 189.864C110.017 189.309 111.063 189.032 112.236 189.032C115.756 189.032 117.516 191.176 117.516 195.464V205H113.516V195.624C113.516 194.429 113.313 193.555 112.908 193C112.524 192.445 111.863 192.168 110.924 192.168C109.879 192.168 109.057 192.541 108.46 193.288C107.863 194.013 107.564 195.027 107.564 196.328V205H103.564V195.624C103.564 194.429 103.361 193.555 102.956 193C102.572 192.445 101.921 192.168 101.004 192.168C99.9587 192.168 99.1373 192.541 98.54 193.288C97.9427 194.013 97.644 195.027 97.644 196.328V205H93.644ZM126.795 205.32C125.664 205.32 124.651 205.107 123.755 204.68C122.88 204.232 122.187 203.635 121.674 202.888C121.184 202.141 120.939 201.299 120.939 200.36C120.939 199.208 121.237 198.301 121.835 197.64C122.432 196.957 123.403 196.467 124.747 196.168C126.091 195.869 127.893 195.72 130.155 195.72H131.275V195.048C131.275 193.981 131.04 193.213 130.571 192.744C130.101 192.275 129.312 192.04 128.203 192.04C127.328 192.04 126.432 192.179 125.515 192.456C124.597 192.712 123.669 193.117 122.731 193.672L121.579 190.952C122.133 190.568 122.784 190.237 123.531 189.96C124.299 189.661 125.099 189.437 125.931 189.288C126.784 189.117 127.584 189.032 128.331 189.032C130.613 189.032 132.309 189.565 133.419 190.632C134.528 191.677 135.083 193.309 135.083 195.528V205H131.339V202.504C130.976 203.379 130.4 204.072 129.611 204.584C128.821 205.075 127.883 205.32 126.795 205.32ZM127.627 202.568C128.672 202.568 129.536 202.205 130.219 201.48C130.923 200.755 131.275 199.837 131.275 198.728V198.024H130.187C128.181 198.024 126.784 198.184 125.995 198.504C125.227 198.803 124.843 199.357 124.843 200.168C124.843 200.872 125.088 201.448 125.579 201.896C126.069 202.344 126.752 202.568 127.627 202.568ZM144.583 205.32C142.727 205.32 141.351 204.819 140.455 203.816C139.58 202.792 139.143 201.299 139.143 199.336V182.44H143.143V199.144C143.143 201.064 143.953 202.024 145.575 202.024C145.809 202.024 146.044 202.013 146.279 201.992C146.513 201.971 146.737 201.928 146.951 201.864L146.887 205.032C146.119 205.224 145.351 205.32 144.583 205.32ZM163.714 205.32C162.392 205.32 161.154 205.16 160.002 204.84C158.85 204.52 157.89 204.061 157.122 203.464L158.146 200.84C158.936 201.373 159.821 201.789 160.802 202.088C161.784 202.365 162.765 202.504 163.746 202.504C164.77 202.504 165.528 202.333 166.018 201.992C166.53 201.629 166.786 201.16 166.786 200.584C166.786 199.688 166.125 199.112 164.802 198.856L161.602 198.248C158.893 197.736 157.538 196.328 157.538 194.024C157.538 193 157.816 192.115 158.37 191.368C158.946 190.621 159.736 190.045 160.738 189.64C161.741 189.235 162.893 189.032 164.194 189.032C165.304 189.032 166.37 189.192 167.394 189.512C168.418 189.811 169.293 190.269 170.018 190.888L168.93 193.512C168.312 193 167.565 192.595 166.69 192.296C165.837 191.997 165.016 191.848 164.226 191.848C163.181 191.848 162.402 192.029 161.89 192.392C161.4 192.755 161.154 193.235 161.154 193.832C161.154 194.771 161.762 195.347 162.978 195.56L166.178 196.168C167.565 196.424 168.61 196.893 169.314 197.576C170.04 198.259 170.402 199.176 170.402 200.328C170.402 201.885 169.794 203.112 168.578 204.008C167.362 204.883 165.741 205.32 163.714 205.32ZM180.747 205.32C179.126 205.32 177.718 204.989 176.523 204.328C175.329 203.667 174.401 202.728 173.739 201.512C173.078 200.275 172.747 198.824 172.747 197.16C172.747 195.496 173.078 194.056 173.739 192.84C174.401 191.624 175.329 190.685 176.523 190.024C177.718 189.363 179.126 189.032 180.747 189.032C182.369 189.032 183.777 189.363 184.971 190.024C186.166 190.685 187.094 191.624 187.755 192.84C188.417 194.056 188.747 195.496 188.747 197.16C188.747 198.824 188.417 200.275 187.755 201.512C187.094 202.728 186.166 203.667 184.971 204.328C183.777 204.989 182.369 205.32 180.747 205.32ZM180.747 202.28C181.942 202.28 182.902 201.853 183.627 201C184.353 200.125 184.715 198.845 184.715 197.16C184.715 195.453 184.353 194.184 183.627 193.352C182.902 192.499 181.942 192.072 180.747 192.072C179.553 192.072 178.593 192.499 177.867 193.352C177.142 194.184 176.779 195.453 176.779 197.16C176.779 198.845 177.142 200.125 177.867 201C178.593 201.853 179.553 202.28 180.747 202.28ZM197.713 205.32C193.873 205.32 191.953 203.165 191.953 198.856V189.352H195.953V198.92C195.953 200.029 196.177 200.851 196.625 201.384C197.073 201.917 197.787 202.184 198.769 202.184C199.835 202.184 200.71 201.821 201.393 201.096C202.075 200.349 202.417 199.368 202.417 198.152V189.352H206.417V205H202.513V202.664C201.467 204.435 199.867 205.32 197.713 205.32ZM210.58 205V182.44H214.58V191.624C215.113 190.771 215.828 190.131 216.724 189.704C217.62 189.256 218.612 189.032 219.7 189.032C223.391 189.032 225.236 191.176 225.236 195.464V205H221.236V195.656C221.236 194.44 221.001 193.555 220.532 193C220.084 192.445 219.38 192.168 218.42 192.168C217.247 192.168 216.308 192.541 215.604 193.288C214.921 194.013 214.58 194.984 214.58 196.2V205H210.58ZM234.451 205.32C233.32 205.32 232.307 205.107 231.411 204.68C230.536 204.232 229.843 203.635 229.331 202.888C228.84 202.141 228.595 201.299 228.595 200.36C228.595 199.208 228.893 198.301 229.491 197.64C230.088 196.957 231.059 196.467 232.403 196.168C233.747 195.869 235.549 195.72 237.811 195.72H238.931V195.048C238.931 193.981 238.696 193.213 238.227 192.744C237.757 192.275 236.968 192.04 235.859 192.04C234.984 192.04 234.088 192.179 233.171 192.456C232.253 192.712 231.325 193.117 230.387 193.672L229.235 190.952C229.789 190.568 230.44 190.237 231.187 189.96C231.955 189.661 232.755 189.437 233.587 189.288C234.44 189.117 235.24 189.032 235.987 189.032C238.269 189.032 239.965 189.565 241.075 190.632C242.184 191.677 242.739 193.309 242.739 195.528V205H238.995V202.504C238.632 203.379 238.056 204.072 237.267 204.584C236.477 205.075 235.539 205.32 234.451 205.32ZM235.283 202.568C236.328 202.568 237.192 202.205 237.875 201.48C238.579 200.755 238.931 199.837 238.931 198.728V198.024H237.843C235.837 198.024 234.44 198.184 233.651 198.504C232.883 198.803 232.499 199.357 232.499 200.168C232.499 200.872 232.744 201.448 233.235 201.896C233.725 202.344 234.408 202.568 235.283 202.568ZM246.543 185.992V182.088H251.023V185.992H246.543ZM246.799 205V189.352H250.799V205H246.799ZM262.123 205.32C257.984 205.32 255.915 203.272 255.915 199.176V192.36H252.907V189.352H255.915V184.68H259.915V189.352H264.651V192.36H259.915V198.952C259.915 199.976 260.139 200.744 260.587 201.256C261.035 201.768 261.76 202.024 262.763 202.024C263.062 202.024 263.371 201.992 263.691 201.928C264.011 201.843 264.342 201.757 264.683 201.672L265.291 204.616C264.907 204.829 264.416 205 263.819 205.128C263.243 205.256 262.678 205.32 262.123 205.32ZM274.792 205.32C273.021 205.32 271.496 204.989 270.216 204.328C268.936 203.667 267.944 202.728 267.24 201.512C266.557 200.296 266.216 198.856 266.216 197.192C266.216 195.571 266.547 194.152 267.208 192.936C267.891 191.72 268.819 190.771 269.992 190.088C271.187 189.384 272.541 189.032 274.056 189.032C276.275 189.032 278.024 189.736 279.304 191.144C280.605 192.552 281.256 194.472 281.256 196.904V198.088H270.056C270.355 200.883 271.955 202.28 274.856 202.28C275.731 202.28 276.605 202.152 277.48 201.896C278.355 201.619 279.155 201.192 279.88 200.616L281 203.304C280.253 203.923 279.315 204.413 278.184 204.776C277.053 205.139 275.923 205.32 274.792 205.32ZM274.216 191.752C273.043 191.752 272.093 192.115 271.368 192.84C270.643 193.565 270.205 194.547 270.056 195.784H277.928C277.843 194.483 277.48 193.491 276.84 192.808C276.221 192.104 275.347 191.752 274.216 191.752ZM283.693 205V202.408L291.757 192.36H283.693V189.352H296.109V191.944L288.045 201.992H296.461V205H283.693ZM26.688 249L19.904 233.352H24.16L28.512 244.296L33.024 233.352H37.024L30.144 249H26.688ZM45.7785 249.32C44.1572 249.32 42.7492 248.989 41.5545 248.328C40.3598 247.667 39.4318 246.728 38.7705 245.512C38.1092 244.275 37.7785 242.824 37.7785 241.16C37.7785 239.496 38.1092 238.056 38.7705 236.84C39.4318 235.624 40.3598 234.685 41.5545 234.024C42.7492 233.363 44.1572 233.032 45.7785 233.032C47.3998 233.032 48.8078 233.363 50.0025 234.024C51.1972 234.685 52.1252 235.624 52.7865 236.84C53.4478 238.056 53.7785 239.496 53.7785 241.16C53.7785 242.824 53.4478 244.275 52.7865 245.512C52.1252 246.728 51.1972 247.667 50.0025 248.328C48.8078 248.989 47.3998 249.32 45.7785 249.32ZM45.7785 246.28C46.9732 246.28 47.9332 245.853 48.6585 245C49.3838 244.125 49.7465 242.845 49.7465 241.16C49.7465 239.453 49.3838 238.184 48.6585 237.352C47.9332 236.499 46.9732 236.072 45.7785 236.072C44.5838 236.072 43.6238 236.499 42.8985 237.352C42.1732 238.184 41.8105 239.453 41.8105 241.16C41.8105 242.845 42.1732 244.125 42.8985 245C43.6238 245.853 44.5838 246.28 45.7785 246.28ZM62.744 249.32C58.904 249.32 56.984 247.165 56.984 242.856V233.352H60.984V242.92C60.984 244.029 61.208 244.851 61.656 245.384C62.104 245.917 62.8187 246.184 63.8 246.184C64.8667 246.184 65.7413 245.821 66.424 245.096C67.1067 244.349 67.448 243.368 67.448 242.152V233.352H71.448V249H67.544V246.664C66.4987 248.435 64.8987 249.32 62.744 249.32ZM81.3393 249.32C80.0166 249.32 78.7793 249.16 77.6273 248.84C76.4753 248.52 75.5153 248.061 74.7473 247.464L75.7713 244.84C76.5606 245.373 77.4459 245.789 78.4273 246.088C79.4086 246.365 80.3899 246.504 81.3713 246.504C82.3953 246.504 83.1526 246.333 83.6433 245.992C84.1553 245.629 84.4113 245.16 84.4113 244.584C84.4113 243.688 83.7499 243.112 82.4273 242.856L79.2273 242.248C76.5179 241.736 75.1633 240.328 75.1633 238.024C75.1633 237 75.4406 236.115 75.9953 235.368C76.5713 234.621 77.3606 234.045 78.3633 233.64C79.3659 233.235 80.5179 233.032 81.8193 233.032C82.9286 233.032 83.9953 233.192 85.0193 233.512C86.0433 233.811 86.9179 234.269 87.6433 234.888L86.5553 237.512C85.9366 237 85.1899 236.595 84.3153 236.296C83.4619 235.997 82.6406 235.848 81.8513 235.848C80.8059 235.848 80.0273 236.029 79.5153 236.392C79.0246 236.755 78.7793 237.235 78.7793 237.832C78.7793 238.771 79.3873 239.347 80.6033 239.56L83.8033 240.168C85.1899 240.424 86.2353 240.893 86.9393 241.576C87.6646 242.259 88.0273 243.176 88.0273 244.328C88.0273 245.885 87.4193 247.112 86.2033 248.008C84.9873 248.883 83.3659 249.32 81.3393 249.32ZM105.013 249.32C103.883 249.32 102.869 249.107 101.973 248.68C101.099 248.232 100.405 247.635 99.8932 246.888C99.4026 246.141 99.1573 245.299 99.1573 244.36C99.1573 243.208 99.4559 242.301 100.053 241.64C100.651 240.957 101.621 240.467 102.965 240.168C104.309 239.869 106.112 239.72 108.373 239.72H109.493V239.048C109.493 237.981 109.259 237.213 108.789 236.744C108.32 236.275 107.531 236.04 106.421 236.04C105.547 236.04 104.651 236.179 103.733 236.456C102.816 236.712 101.888 237.117 100.949 237.672L99.7973 234.952C100.352 234.568 101.003 234.237 101.749 233.96C102.517 233.661 103.317 233.437 104.149 233.288C105.003 233.117 105.803 233.032 106.549 233.032C108.832 233.032 110.528 233.565 111.637 234.632C112.747 235.677 113.301 237.309 113.301 239.528V249H109.557V246.504C109.195 247.379 108.619 248.072 107.829 248.584C107.04 249.075 106.101 249.32 105.013 249.32ZM105.845 246.568C106.891 246.568 107.755 246.205 108.437 245.48C109.141 244.755 109.493 243.837 109.493 242.728V242.024H108.405C106.4 242.024 105.003 242.184 104.213 242.504C103.445 242.803 103.061 243.357 103.061 244.168C103.061 244.872 103.307 245.448 103.797 245.896C104.288 246.344 104.971 246.568 105.845 246.568ZM123.377 249.32C122.012 249.32 120.807 248.989 119.761 248.328C118.737 247.667 117.937 246.728 117.361 245.512C116.785 244.275 116.497 242.824 116.497 241.16C116.497 239.475 116.785 238.035 117.361 236.84C117.937 235.624 118.737 234.685 119.761 234.024C120.807 233.363 122.012 233.032 123.377 233.032C124.487 233.032 125.489 233.277 126.385 233.768C127.281 234.259 127.953 234.909 128.401 235.72V226.44H132.401V249H128.497V246.408C128.071 247.304 127.399 248.019 126.481 248.552C125.564 249.064 124.529 249.32 123.377 249.32ZM124.497 246.28C125.692 246.28 126.652 245.853 127.377 245C128.103 244.125 128.465 242.845 128.465 241.16C128.465 239.453 128.103 238.184 127.377 237.352C126.652 236.499 125.692 236.072 124.497 236.072C123.303 236.072 122.343 236.499 121.617 237.352C120.892 238.184 120.529 239.453 120.529 241.16C120.529 242.845 120.892 244.125 121.617 245C122.343 245.853 123.303 246.28 124.497 246.28ZM143.685 249.32C142.063 249.32 140.655 248.989 139.461 248.328C138.266 247.667 137.338 246.728 136.677 245.512C136.015 244.275 135.685 242.824 135.685 241.16C135.685 239.496 136.015 238.056 136.677 236.84C137.338 235.624 138.266 234.685 139.461 234.024C140.655 233.363 142.063 233.032 143.685 233.032C145.306 233.032 146.714 233.363 147.909 234.024C149.103 234.685 150.031 235.624 150.693 236.84C151.354 238.056 151.685 239.496 151.685 241.16C151.685 242.824 151.354 244.275 150.693 245.512C150.031 246.728 149.103 247.667 147.909 248.328C146.714 248.989 145.306 249.32 143.685 249.32ZM143.685 246.28C144.879 246.28 145.839 245.853 146.565 245C147.29 244.125 147.653 242.845 147.653 241.16C147.653 239.453 147.29 238.184 146.565 237.352C145.839 236.499 144.879 236.072 143.685 236.072C142.49 236.072 141.53 236.499 140.805 237.352C140.079 238.184 139.717 239.453 139.717 241.16C139.717 242.845 140.079 244.125 140.805 245C141.53 245.853 142.49 246.28 143.685 246.28ZM154.986 254.76V233.352H158.89V235.848C159.338 234.995 160.01 234.312 160.906 233.8C161.824 233.288 162.858 233.032 164.01 233.032C165.376 233.032 166.57 233.363 167.594 234.024C168.64 234.685 169.45 235.624 170.026 236.84C170.602 238.035 170.89 239.475 170.89 241.16C170.89 242.824 170.602 244.275 170.026 245.512C169.45 246.728 168.65 247.667 167.626 248.328C166.602 248.989 165.397 249.32 164.01 249.32C162.901 249.32 161.898 249.085 161.002 248.616C160.128 248.125 159.456 247.475 158.986 246.664V254.76H154.986ZM162.89 246.28C164.085 246.28 165.045 245.853 165.77 245C166.496 244.125 166.858 242.845 166.858 241.16C166.858 239.453 166.496 238.184 165.77 237.352C165.045 236.499 164.085 236.072 162.89 236.072C161.696 236.072 160.736 236.499 160.01 237.352C159.285 238.184 158.922 239.453 158.922 241.16C158.922 242.845 159.285 244.125 160.01 245C160.736 245.853 161.696 246.28 162.89 246.28ZM181.186 249.32C177.047 249.32 174.978 247.272 174.978 243.176V236.36H171.97V233.352H174.978V228.68H178.978V233.352H183.714V236.36H178.978V242.952C178.978 243.976 179.202 244.744 179.65 245.256C180.098 245.768 180.823 246.024 181.826 246.024C182.124 246.024 182.434 245.992 182.754 245.928C183.074 245.843 183.404 245.757 183.746 245.672L184.354 248.616C183.97 248.829 183.479 249 182.882 249.128C182.306 249.256 181.74 249.32 181.186 249.32ZM193.855 249.32C192.084 249.32 190.559 248.989 189.279 248.328C187.999 247.667 187.007 246.728 186.303 245.512C185.62 244.296 185.279 242.856 185.279 241.192C185.279 239.571 185.609 238.152 186.271 236.936C186.953 235.72 187.881 234.771 189.055 234.088C190.249 233.384 191.604 233.032 193.119 233.032C195.337 233.032 197.087 233.736 198.367 235.144C199.668 236.552 200.319 238.472 200.319 240.904V242.088H189.119C189.417 244.883 191.017 246.28 193.919 246.28C194.793 246.28 195.668 246.152 196.543 245.896C197.417 245.619 198.217 245.192 198.943 244.616L200.062 247.304C199.316 247.923 198.377 248.413 197.247 248.776C196.116 249.139 194.985 249.32 193.855 249.32ZM193.279 235.752C192.105 235.752 191.156 236.115 190.431 236.84C189.705 237.565 189.268 238.547 189.119 239.784H196.991C196.905 238.483 196.543 237.491 195.903 236.808C195.284 236.104 194.409 235.752 193.279 235.752ZM203.486 249V233.352H207.39V236.104C208.158 234.248 209.801 233.224 212.318 233.032L213.534 232.936L213.79 236.328L211.486 236.552C208.862 236.808 207.55 238.152 207.55 240.584V249H203.486ZM228.419 242.312V241.032C228.419 240.029 228.6 239.101 228.963 238.248C229.347 237.395 229.987 236.467 230.883 235.464C231.565 234.717 232.035 234.077 232.291 233.544C232.568 233.011 232.707 232.445 232.707 231.848C232.707 231.144 232.451 230.589 231.939 230.184C231.427 229.779 230.701 229.576 229.763 229.576C227.672 229.576 225.741 230.344 223.971 231.88L222.627 228.808C223.523 227.997 224.632 227.347 225.955 226.856C227.299 226.365 228.653 226.12 230.019 226.12C231.363 226.12 232.536 226.344 233.539 226.792C234.563 227.24 235.352 227.859 235.907 228.648C236.483 229.437 236.771 230.365 236.771 231.432C236.771 232.413 236.547 233.331 236.099 234.184C235.672 235.037 234.904 235.965 233.795 236.968C232.792 237.885 232.099 238.685 231.715 239.368C231.331 240.051 231.085 240.733 230.979 241.416L230.851 242.312H228.419ZM227.395 249V244.552H231.875V249H227.395Z" fill="#EAE3D3"/>
</svg>
