<svg width="320" height="728" viewBox="0 0 320 728" fill="none" xmlns="http://www.w3.org/2000/svg">
<rect width="320" height="728" rx="16" fill="#ADC798"/>
<path d="M20.016 276L25.12 264.72H26.8L31.904 276H29.824L28.704 273.392H23.2L22.096 276H20.016ZM25.936 266.944L23.904 271.76H28L25.968 266.944H25.936ZM38.6279 276.16C37.3799 276.16 36.3239 275.925 35.4599 275.456C34.6065 274.987 33.9559 274.32 33.5079 273.456C33.0599 272.592 32.8359 271.568 32.8359 270.384C32.8359 269.189 33.0652 268.16 33.5239 267.296C33.9825 266.421 34.6439 265.749 35.5079 265.28C36.3719 264.8 37.4065 264.56 38.6119 264.56C39.4012 264.56 40.1425 264.677 40.8359 264.912C41.5292 265.136 42.1052 265.451 42.5639 265.856L41.8759 267.456C41.3745 267.061 40.8625 266.779 40.3399 266.608C39.8172 266.437 39.2412 266.352 38.6119 266.352C37.4172 266.352 36.5105 266.699 35.8919 267.392C35.2839 268.085 34.9799 269.083 34.9799 270.384C34.9799 271.696 35.2945 272.693 35.9239 273.376C36.5532 274.059 37.4865 274.4 38.7239 274.4C39.0759 274.4 39.4332 274.373 39.7959 274.32C40.1692 274.256 40.5372 274.165 40.8999 274.048V271.424H38.3079V269.904H42.6119V275.328C42.0892 275.584 41.4705 275.787 40.7559 275.936C40.0412 276.085 39.3319 276.16 38.6279 276.16ZM45.2851 276V264.72H52.7891V266.352H47.2531V269.456H52.4371V271.088H47.2531V274.368H52.7891V276H45.2851ZM59.7765 276V264.72H61.4885L65.4885 272.096L69.4725 264.72H71.1525V276H69.2965V268.4L66.0645 274.288H64.8645L61.6325 268.432V276H59.7765ZM72.7191 276L77.8231 264.72H79.5031L84.6071 276H82.5271L81.4071 273.392H75.9031L74.7991 276H72.7191ZM78.6391 266.944L76.6071 271.76H80.7031L78.6711 266.944H78.6391ZM84.579 276L88.883 270.256L84.739 264.72H87.123L90.051 268.768L92.979 264.72H95.379L91.235 270.256L95.523 276H93.123L90.051 271.776L86.995 276H84.579ZM96.957 276V264.72H99.005V276H96.957ZM101.789 276V264.72H103.501L107.501 272.096L111.485 264.72H113.165V276H111.309V268.4L108.077 274.288H106.877L103.645 268.432V276H101.789ZM114.732 276L119.836 264.72H121.516L126.62 276H124.54L123.42 273.392H117.916L116.812 276H114.732ZM120.652 266.944L118.62 271.76H122.716L120.684 266.944H120.652ZM128.154 276V264.72H130.202V274.256H135.61V276H128.154Z" fill="#897F66"/>
<path d="M21.232 390V378.72H26.128C27.3653 378.72 28.32 379.019 28.992 379.616C29.664 380.203 30 381.029 30 382.096C30 382.939 29.7813 383.637 29.344 384.192C28.9067 384.736 28.2773 385.104 27.456 385.296C28 385.467 28.448 385.877 28.8 386.528L30.688 390H28.432L26.48 386.4C26.288 386.048 26.0587 385.808 25.792 385.68C25.536 385.552 25.2053 385.488 24.8 385.488H23.28V390H21.232ZM23.28 383.968H25.776C27.2693 383.968 28.016 383.36 28.016 382.144C28.016 380.939 27.2693 380.336 25.776 380.336H23.28V383.968ZM31.0816 390L36.1856 378.72H37.8656L42.9696 390H40.8896L39.7696 387.392H34.2656L33.1616 390H31.0816ZM37.0016 380.944L34.9696 385.76H39.0656L37.0336 380.944H37.0016ZM49.5175 390.16C48.3442 390.16 47.3362 389.925 46.4935 389.456C45.6615 388.976 45.0215 388.304 44.5735 387.44C44.1255 386.565 43.9015 385.536 43.9015 384.352C43.9015 383.168 44.1255 382.144 44.5735 381.28C45.0215 380.416 45.6615 379.749 46.4935 379.28C47.3362 378.8 48.3442 378.56 49.5175 378.56C50.2748 378.56 50.9895 378.677 51.6615 378.912C52.3442 379.147 52.9042 379.483 53.3415 379.92L52.6695 381.552C52.1895 381.147 51.6988 380.853 51.1975 380.672C50.6962 380.48 50.1575 380.384 49.5815 380.384C48.4402 380.384 47.5708 380.731 46.9735 381.424C46.3762 382.107 46.0775 383.083 46.0775 384.352C46.0775 385.621 46.3762 386.603 46.9735 387.296C47.5708 387.989 48.4402 388.336 49.5815 388.336C50.1575 388.336 50.6962 388.245 51.1975 388.064C51.6988 387.872 52.1895 387.573 52.6695 387.168L53.3415 388.8C52.9042 389.227 52.3442 389.563 51.6615 389.808C50.9895 390.043 50.2748 390.16 49.5175 390.16ZM55.4289 390V378.72H62.9329V380.352H57.3969V383.456H62.5809V385.088H57.3969V388.368H62.9329V390H55.4289Z" fill="#897F66"/>
<path d="M25.12 510.16C24.2347 510.16 23.4133 510.048 22.656 509.824C21.8987 509.589 21.2587 509.275 20.736 508.88L21.36 507.264C21.8827 507.637 22.4533 507.925 23.072 508.128C23.7013 508.331 24.384 508.432 25.12 508.432C25.9627 508.432 26.576 508.293 26.96 508.016C27.344 507.728 27.536 507.36 27.536 506.912C27.536 506.539 27.3973 506.245 27.12 506.032C26.8533 505.819 26.3893 505.643 25.728 505.504L23.968 505.136C21.9627 504.709 20.96 503.68 20.96 502.048C20.96 501.344 21.1467 500.731 21.52 500.208C21.8933 499.685 22.4107 499.28 23.072 498.992C23.7333 498.704 24.496 498.56 25.36 498.56C26.128 498.56 26.848 498.677 27.52 498.912C28.192 499.136 28.752 499.456 29.2 499.872L28.576 501.408C27.6907 500.661 26.6133 500.288 25.344 500.288C24.608 500.288 24.032 500.443 23.616 500.752C23.2 501.061 22.992 501.467 22.992 501.968C22.992 502.352 23.12 502.661 23.376 502.896C23.632 503.12 24.0693 503.296 24.688 503.424L26.432 503.792C27.488 504.016 28.272 504.368 28.784 504.848C29.3067 505.328 29.568 505.968 29.568 506.768C29.568 507.44 29.3867 508.032 29.024 508.544C28.6613 509.056 28.144 509.456 27.472 509.744C26.8107 510.021 26.0267 510.16 25.12 510.16ZM31.6258 510V498.72H39.1298V500.352H33.5938V503.456H38.7778V505.088H33.5938V508.368H39.1298V510H31.6258ZM40.0665 510L44.3705 504.256L40.2265 498.72H42.6105L45.5385 502.768L48.4665 498.72H50.8665L46.7225 504.256L51.0105 510H48.6105L45.5385 505.776L42.4825 510H40.0665ZM52.4445 510V498.72H59.9485V500.352H54.4125V503.456H59.5965V505.088H54.4125V508.368H59.9485V510H52.4445Z" fill="#897F66"/>
<path d="M82.4134 610V600.13H88.8674V601.558H84.2054V604.344H88.5734V605.772H84.2054V610H82.4134ZM93.5346 610.14C92.7599 610.14 92.0926 609.995 91.5326 609.706C90.9726 609.417 90.5386 609.006 90.2306 608.474C89.9319 607.942 89.7826 607.312 89.7826 606.584C89.7826 605.875 89.9273 605.254 90.2166 604.722C90.5153 604.19 90.9213 603.775 91.4346 603.476C91.9573 603.168 92.5499 603.014 93.2126 603.014C94.1833 603.014 94.9486 603.322 95.5086 603.938C96.0779 604.554 96.3626 605.394 96.3626 606.458V606.976H91.4626C91.5933 608.199 92.2933 608.81 93.5626 608.81C93.9453 608.81 94.3279 608.754 94.7106 608.642C95.0933 608.521 95.4433 608.334 95.7606 608.082L96.2506 609.258C95.9239 609.529 95.5133 609.743 95.0186 609.902C94.5239 610.061 94.0293 610.14 93.5346 610.14ZM93.2826 604.204C92.7693 604.204 92.3539 604.363 92.0366 604.68C91.7193 604.997 91.5279 605.427 91.4626 605.968H94.9066C94.8693 605.399 94.7106 604.965 94.4306 604.666C94.1599 604.358 93.7773 604.204 93.2826 604.204ZM98.0765 610V603.154H99.7845V604.204C99.9898 603.831 100.274 603.541 100.638 603.336C101.002 603.121 101.422 603.014 101.898 603.014C102.925 603.014 103.597 603.462 103.914 604.358C104.129 603.938 104.437 603.611 104.838 603.378C105.24 603.135 105.697 603.014 106.21 603.014C107.75 603.014 108.52 603.952 108.52 605.828V610H106.77V605.898C106.77 605.375 106.682 604.993 106.504 604.75C106.336 604.507 106.047 604.386 105.636 604.386C105.179 604.386 104.82 604.549 104.558 604.876C104.297 605.193 104.166 605.637 104.166 606.206V610H102.416V605.898C102.416 605.375 102.328 604.993 102.15 604.75C101.982 604.507 101.698 604.386 101.296 604.386C100.839 604.386 100.48 604.549 100.218 604.876C99.9571 605.193 99.8265 605.637 99.8265 606.206V610H98.0765ZM114 610.14C113.225 610.14 112.558 609.995 111.998 609.706C111.438 609.417 111.004 609.006 110.696 608.474C110.397 607.942 110.248 607.312 110.248 606.584C110.248 605.875 110.392 605.254 110.682 604.722C110.98 604.19 111.386 603.775 111.9 603.476C112.422 603.168 113.015 603.014 113.678 603.014C114.648 603.014 115.414 603.322 115.974 603.938C116.543 604.554 116.828 605.394 116.828 606.458V606.976H111.928C112.058 608.199 112.758 608.81 114.028 608.81C114.41 608.81 114.793 608.754 115.176 608.642C115.558 608.521 115.908 608.334 116.226 608.082L116.716 609.258C116.389 609.529 115.978 609.743 115.484 609.902C114.989 610.061 114.494 610.14 114 610.14ZM113.748 604.204C113.234 604.204 112.819 604.363 112.502 604.68C112.184 604.997 111.993 605.427 111.928 605.968H115.372C115.334 605.399 115.176 604.965 114.896 604.666C114.625 604.358 114.242 604.204 113.748 604.204ZM120.894 610.14C120.082 610.14 119.48 609.921 119.088 609.482C118.705 609.034 118.514 608.381 118.514 607.522V600.13H120.264V607.438C120.264 608.278 120.618 608.698 121.328 608.698C121.43 608.698 121.533 608.693 121.636 608.684C121.738 608.675 121.836 608.656 121.93 608.628L121.902 610.014C121.566 610.098 121.23 610.14 120.894 610.14ZM125.664 610.14C124.852 610.14 124.25 609.921 123.858 609.482C123.476 609.034 123.284 608.381 123.284 607.522V600.13H125.034V607.438C125.034 608.278 125.389 608.698 126.098 608.698C126.201 608.698 126.304 608.693 126.406 608.684C126.509 608.675 126.607 608.656 126.7 608.628L126.672 610.014C126.336 610.098 126 610.14 125.664 610.14ZM131.361 610.14C130.586 610.14 129.919 609.995 129.359 609.706C128.799 609.417 128.365 609.006 128.057 608.474C127.758 607.942 127.609 607.312 127.609 606.584C127.609 605.875 127.753 605.254 128.043 604.722C128.341 604.19 128.747 603.775 129.261 603.476C129.783 603.168 130.376 603.014 131.039 603.014C132.009 603.014 132.775 603.322 133.335 603.938C133.904 604.554 134.189 605.394 134.189 606.458V606.976H129.289C129.419 608.199 130.119 608.81 131.389 608.81C131.771 608.81 132.154 608.754 132.537 608.642C132.919 608.521 133.269 608.334 133.587 608.082L134.077 609.258C133.75 609.529 133.339 609.743 132.845 609.902C132.35 610.061 131.855 610.14 131.361 610.14ZM131.109 604.204C130.595 604.204 130.18 604.363 129.863 604.68C129.545 604.997 129.354 605.427 129.289 605.968H132.733C132.695 605.399 132.537 604.965 132.257 604.666C131.986 604.358 131.603 604.204 131.109 604.204Z" fill="#897F66"/>
<path d="M196.256 609V599.13H197.754L201.254 605.584L204.74 599.13H206.21V609H204.586V602.35L201.758 607.502H200.708L197.88 602.378V609H196.256ZM210.768 609.14C210.273 609.14 209.83 609.047 209.438 608.86C209.055 608.664 208.752 608.403 208.528 608.076C208.313 607.749 208.206 607.381 208.206 606.97C208.206 606.466 208.337 606.069 208.598 605.78C208.859 605.481 209.284 605.267 209.872 605.136C210.46 605.005 211.249 604.94 212.238 604.94H212.728V604.646C212.728 604.179 212.625 603.843 212.42 603.638C212.215 603.433 211.869 603.33 211.384 603.33C211.001 603.33 210.609 603.391 210.208 603.512C209.807 603.624 209.401 603.801 208.99 604.044L208.486 602.854C208.729 602.686 209.013 602.541 209.34 602.42C209.676 602.289 210.026 602.191 210.39 602.126C210.763 602.051 211.113 602.014 211.44 602.014C212.439 602.014 213.181 602.247 213.666 602.714C214.151 603.171 214.394 603.885 214.394 604.856V609H212.756V607.908C212.597 608.291 212.345 608.594 212 608.818C211.655 609.033 211.244 609.14 210.768 609.14ZM211.132 607.936C211.589 607.936 211.967 607.777 212.266 607.46C212.574 607.143 212.728 606.741 212.728 606.256V605.948H212.252C211.375 605.948 210.763 606.018 210.418 606.158C210.082 606.289 209.914 606.531 209.914 606.886C209.914 607.194 210.021 607.446 210.236 607.642C210.451 607.838 210.749 607.936 211.132 607.936ZM209.2 601.244L210.74 598.402H212.28L213.82 601.244H212.7L211.51 599.396L210.32 601.244H209.2ZM218.85 609.14C218.038 609.14 217.436 608.921 217.044 608.482C216.661 608.034 216.47 607.381 216.47 606.522V599.13H218.22V606.438C218.22 607.278 218.575 607.698 219.284 607.698C219.387 607.698 219.489 607.693 219.592 607.684C219.695 607.675 219.793 607.656 219.886 607.628L219.858 609.014C219.522 609.098 219.186 609.14 218.85 609.14ZM224.546 609.14C223.772 609.14 223.104 608.995 222.544 608.706C221.984 608.417 221.55 608.006 221.242 607.474C220.944 606.942 220.794 606.312 220.794 605.584C220.794 604.875 220.939 604.254 221.228 603.722C221.527 603.19 221.933 602.775 222.446 602.476C222.969 602.168 223.562 602.014 224.224 602.014C225.195 602.014 225.96 602.322 226.52 602.938C227.09 603.554 227.374 604.394 227.374 605.458V605.976H222.474C222.605 607.199 223.305 607.81 224.574 607.81C224.957 607.81 225.34 607.754 225.722 607.642C226.105 607.521 226.455 607.334 226.772 607.082L227.262 608.258C226.936 608.529 226.525 608.743 226.03 608.902C225.536 609.061 225.041 609.14 224.546 609.14ZM224.294 603.204C223.781 603.204 223.366 603.363 223.048 603.68C222.731 603.997 222.54 604.427 222.474 604.968H225.918C225.881 604.399 225.722 603.965 225.442 603.666C225.172 603.358 224.789 603.204 224.294 603.204Z" fill="#897F66"/>
<circle cx="139.5" cy="37" r="5" fill="#EAE3D3"/>
<rect x="148.5" y="32" width="24" height="10" rx="5" fill="#897F66"/>
<circle cx="181.5" cy="37" r="5" fill="#EAE3D3"/>
</svg>
